<?xml version="1.0" encoding="UTF-8" standalone="no"?>
<!DOCTYPE svg PUBLIC "-//W3C//DTD SVG 1.1//EN"
 "http://www.w3.org/Graphics/SVG/1.1/DTD/svg11.dtd">
<!-- Generated by graphviz version 2.44.1 (20200629.0846)
 -->
<!-- Title: dependencies Pages: 1 -->
<svg width="1461pt" height="211pt"
 viewBox="0.00 0.00 1461.00 211.00" xmlns="http://www.w3.org/2000/svg" xmlns:xlink="http://www.w3.org/1999/xlink">
<g id="graph0" class="graph" transform="scale(1 1) rotate(0) translate(4 207)">
<title>dependencies</title>
<polygon fill="white" stroke="transparent" points="-4,4 -4,-207 1457,-207 1457,4 -4,4"/>
<text text-anchor="start" x="705.51" y="-42.4" font-family="sans-serif" font-weight="bold" font-size="14.00">Legend</text>
<polygon fill="#ffffb3" stroke="transparent" points="492.5,-10 492.5,-30 512.5,-30 512.5,-10 492.5,-10"/>
<text text-anchor="start" x="516.13" y="-15.4" font-family="sans-serif" font-size="14.00"> &#160;Declarations</text>
<polygon fill="#8dd3c7" stroke="transparent" points="605.5,-10 605.5,-30 625.5,-30 625.5,-10 605.5,-10"/>
<text text-anchor="start" x="629.23" y="-15.4" font-family="sans-serif" font-size="14.00"> &#160;Module</text>
<polygon fill="#80b1d3" stroke="transparent" points="691.5,-10 691.5,-30 711.5,-30 711.5,-10 691.5,-10"/>
<text text-anchor="start" x="715.28" y="-15.4" font-family="sans-serif" font-size="14.00"> &#160;Bootstrap</text>
<polygon fill="#fdb462" stroke="transparent" points="788.5,-10 788.5,-30 808.5,-30 808.5,-10 788.5,-10"/>
<text text-anchor="start" x="812.17" y="-15.4" font-family="sans-serif" font-size="14.00"> &#160;Providers</text>
<polygon fill="#fb8072" stroke="transparent" points="884.5,-10 884.5,-30 904.5,-30 904.5,-10 884.5,-10"/>
<text text-anchor="start" x="908.23" y="-15.4" font-family="sans-serif" font-size="14.00"> &#160;Exports</text>
<g id="clust1" class="cluster">
<title>cluster_DashboardModule</title>
<polygon fill="none" stroke="black" stroke-dasharray="1,5" points="8,-70 8,-195 1445,-195 1445,-70 8,-70"/>
</g>
<g id="clust10" class="cluster">
<title>cluster_DashboardModule_imports</title>
<polygon fill="none" stroke="black" points="1255,-78 1255,-130 1437,-130 1437,-78 1255,-78"/>
</g>
<g id="clust2" class="cluster">
<title>cluster_DashboardModule_declarations</title>
<polygon fill="none" stroke="black" points="16,-78 16,-130 1247,-130 1247,-78 16,-78"/>
</g>
<!-- AddressComponent -->
<g id="node1" class="node">
<title>AddressComponent</title>
<polygon fill="#ffffb3" stroke="black" points="1238.7,-122 1111.3,-122 1111.3,-86 1238.7,-86 1238.7,-122"/>
<text text-anchor="middle" x="1175" y="-99.8" font-family="Times,serif" font-size="14.00">AddressComponent</text>
</g>
<!-- DashboardModule -->
<g id="node8" class="node">
<title>DashboardModule</title>
<polygon fill="#8dd3c7" stroke="black" points="821.19,-187 818.19,-191 797.19,-191 794.19,-187 700.81,-187 700.81,-151 821.19,-151 821.19,-187"/>
<text text-anchor="middle" x="761" y="-164.8" font-family="Times,serif" font-size="14.00">DashboardModule</text>
</g>
<!-- AddressComponent&#45;&gt;DashboardModule -->
<g id="edge1" class="edge">
<title>AddressComponent&#45;&gt;DashboardModule</title>
<path fill="none" stroke="black" d="M1175,-122.11C1175,-141.34 1175,-169 1175,-169 1175,-169 831.2,-169 831.2,-169"/>
<polygon fill="black" stroke="black" points="831.2,-165.5 821.2,-169 831.2,-172.5 831.2,-165.5"/>
</g>
<!-- ContactComponent -->
<g id="node2" class="node">
<title>ContactComponent</title>
<polygon fill="#ffffb3" stroke="black" points="1093.38,-122 968.62,-122 968.62,-86 1093.38,-86 1093.38,-122"/>
<text text-anchor="middle" x="1031" y="-99.8" font-family="Times,serif" font-size="14.00">ContactComponent</text>
</g>
<!-- ContactComponent&#45;&gt;DashboardModule -->
<g id="edge2" class="edge">
<title>ContactComponent&#45;&gt;DashboardModule</title>
<path fill="none" stroke="black" d="M1031,-122.03C1031,-138.4 1031,-160 1031,-160 1031,-160 831.26,-160 831.26,-160"/>
<polygon fill="black" stroke="black" points="831.26,-156.5 821.26,-160 831.26,-163.5 831.26,-156.5"/>
</g>
<!-- HomeDashboardComponent -->
<g id="node3" class="node">
<title>HomeDashboardComponent</title>
<polygon fill="#ffffb3" stroke="black" points="950.19,-122 773.81,-122 773.81,-86 950.19,-86 950.19,-122"/>
<text text-anchor="middle" x="862" y="-99.8" font-family="Times,serif" font-size="14.00">HomeDashboardComponent</text>
</g>
<!-- HomeDashboardComponent&#45;&gt;DashboardModule -->
<g id="edge3" class="edge">
<title>HomeDashboardComponent&#45;&gt;DashboardModule</title>
<path fill="none" stroke="black" d="M797.5,-122.11C797.5,-122.11 797.5,-140.99 797.5,-140.99"/>
<polygon fill="black" stroke="black" points="794,-140.99 797.5,-150.99 801,-140.99 794,-140.99"/>
</g>
<!-- ProductsDashboardComponent -->
<g id="node4" class="node">
<title>ProductsDashboardComponent</title>
<polygon fill="#ffffb3" stroke="black" points="755.47,-122 564.53,-122 564.53,-86 755.47,-86 755.47,-122"/>
<text text-anchor="middle" x="660" y="-99.8" font-family="Times,serif" font-size="14.00">ProductsDashboardComponent</text>
</g>
<!-- ProductsDashboardComponent&#45;&gt;DashboardModule -->
<g id="edge4" class="edge">
<title>ProductsDashboardComponent&#45;&gt;DashboardModule</title>
<path fill="none" stroke="black" d="M728.19,-122.11C728.19,-122.11 728.19,-140.99 728.19,-140.99"/>
<polygon fill="black" stroke="black" points="724.69,-140.99 728.19,-150.99 731.69,-140.99 724.69,-140.99"/>
</g>
<!-- ProfileDashboardComponent -->
<g id="node5" class="node">
<title>ProfileDashboardComponent</title>
<polygon fill="#ffffb3" stroke="black" points="546.07,-122 365.93,-122 365.93,-86 546.07,-86 546.07,-122"/>
<text text-anchor="middle" x="456" y="-99.8" font-family="Times,serif" font-size="14.00">ProfileDashboardComponent</text>
</g>
<!-- ProfileDashboardComponent&#45;&gt;DashboardModule -->
<g id="edge5" class="edge">
<title>ProfileDashboardComponent&#45;&gt;DashboardModule</title>
<path fill="none" stroke="black" d="M456,-122.03C456,-138.4 456,-160 456,-160 456,-160 690.74,-160 690.74,-160"/>
<polygon fill="black" stroke="black" points="690.74,-163.5 700.74,-160 690.74,-156.5 690.74,-163.5"/>
</g>
<!-- ServicesDashboardComponent -->
<g id="node6" class="node">
<title>ServicesDashboardComponent</title>
<polygon fill="#ffffb3" stroke="black" points="347.9,-122 158.1,-122 158.1,-86 347.9,-86 347.9,-122"/>
<text text-anchor="middle" x="253" y="-99.8" font-family="Times,serif" font-size="14.00">ServicesDashboardComponent</text>
</g>
<!-- ServicesDashboardComponent&#45;&gt;DashboardModule -->
<g id="edge6" class="edge">
<title>ServicesDashboardComponent&#45;&gt;DashboardModule</title>
<path fill="none" stroke="black" d="M253,-122.11C253,-141.34 253,-169 253,-169 253,-169 690.73,-169 690.73,-169"/>
<polygon fill="black" stroke="black" points="690.73,-172.5 700.73,-169 690.73,-165.5 690.73,-172.5"/>
</g>
<!-- StoresComponent -->
<g id="node7" class="node">
<title>StoresComponent</title>
<polygon fill="#ffffb3" stroke="black" points="140.33,-122 23.67,-122 23.67,-86 140.33,-86 140.33,-122"/>
<text text-anchor="middle" x="82" y="-99.8" font-family="Times,serif" font-size="14.00">StoresComponent</text>
</g>
<!-- StoresComponent&#45;&gt;DashboardModule -->
<g id="edge7" class="edge">
<title>StoresComponent&#45;&gt;DashboardModule</title>
<path fill="none" stroke="black" d="M82,-122.29C82,-144.21 82,-178 82,-178 82,-178 690.74,-178 690.74,-178"/>
<polygon fill="black" stroke="black" points="690.74,-181.5 700.74,-178 690.74,-174.5 690.74,-181.5"/>
</g>
<!-- DashboardRoutingModule -->
<g id="node9" class="node">
<title>DashboardRoutingModule</title>
<polygon fill="#8dd3c7" stroke="black" points="1428.81,-122 1425.81,-126 1404.81,-126 1401.81,-122 1263.19,-122 1263.19,-86 1428.81,-86 1428.81,-122"/>
<text text-anchor="middle" x="1346" y="-99.8" font-family="Times,serif" font-size="14.00">DashboardRoutingModule</text>
</g>
<!-- DashboardRoutingModule&#45;&gt;DashboardModule -->
<g id="edge8" class="edge">
<title>DashboardRoutingModule&#45;&gt;DashboardModule</title>
<path fill="none" stroke="black" d="M1346,-122.29C1346,-144.21 1346,-178 1346,-178 1346,-178 831.13,-178 831.13,-178"/>
<polygon fill="black" stroke="black" points="831.13,-174.5 821.13,-178 831.13,-181.5 831.13,-174.5"/>
</g>
</g>
</svg>
