<?xml version="1.0" encoding="UTF-8" standalone="no"?>
<!DOCTYPE svg PUBLIC "-//W3C//DTD SVG 1.1//EN"
 "http://www.w3.org/Graphics/SVG/1.1/DTD/svg11.dtd">
<!-- Generated by graphviz version 2.44.1 (20200629.0846)
 -->
<!-- Title: dependencies Pages: 1 -->
<svg width="1469pt" height="211pt"
 viewBox="0.00 0.00 1469.00 211.00" xmlns="http://www.w3.org/2000/svg" xmlns:xlink="http://www.w3.org/1999/xlink">
<g id="graph0" class="graph" transform="scale(1 1) rotate(0) translate(4 207)">
<title>dependencies</title>
<polygon fill="white" stroke="transparent" points="-4,4 -4,-207 1465,-207 1465,4 -4,4"/>
<text text-anchor="start" x="709.51" y="-42.4" font-family="sans-serif" font-weight="bold" font-size="14.00">Legend</text>
<polygon fill="#ffffb3" stroke="transparent" points="496.5,-10 496.5,-30 516.5,-30 516.5,-10 496.5,-10"/>
<text text-anchor="start" x="520.13" y="-15.4" font-family="sans-serif" font-size="14.00"> &#160;Declarations</text>
<polygon fill="#8dd3c7" stroke="transparent" points="609.5,-10 609.5,-30 629.5,-30 629.5,-10 609.5,-10"/>
<text text-anchor="start" x="633.23" y="-15.4" font-family="sans-serif" font-size="14.00"> &#160;Module</text>
<polygon fill="#80b1d3" stroke="transparent" points="695.5,-10 695.5,-30 715.5,-30 715.5,-10 695.5,-10"/>
<text text-anchor="start" x="719.28" y="-15.4" font-family="sans-serif" font-size="14.00"> &#160;Bootstrap</text>
<polygon fill="#fdb462" stroke="transparent" points="792.5,-10 792.5,-30 812.5,-30 812.5,-10 792.5,-10"/>
<text text-anchor="start" x="816.17" y="-15.4" font-family="sans-serif" font-size="14.00"> &#160;Providers</text>
<polygon fill="#fb8072" stroke="transparent" points="888.5,-10 888.5,-30 908.5,-30 908.5,-10 888.5,-10"/>
<text text-anchor="start" x="912.23" y="-15.4" font-family="sans-serif" font-size="14.00"> &#160;Exports</text>
<g id="clust1" class="cluster">
<title>cluster_ProductsModule</title>
<polygon fill="none" stroke="black" stroke-dasharray="1,5" points="8,-70 8,-195 1453,-195 1453,-70 8,-70"/>
</g>
<g id="clust11" class="cluster">
<title>cluster_ProductsModule_imports</title>
<polygon fill="none" stroke="black" points="1281,-78 1281,-130 1445,-130 1445,-78 1281,-78"/>
</g>
<g id="clust2" class="cluster">
<title>cluster_ProductsModule_declarations</title>
<polygon fill="none" stroke="black" points="16,-78 16,-130 1273,-130 1273,-78 16,-78"/>
</g>
<!-- ModalDialog -->
<g id="node1" class="node">
<title>ModalDialog</title>
<polygon fill="#ffffb3" stroke="black" points="1265.15,-122 1174.85,-122 1174.85,-86 1265.15,-86 1265.15,-122"/>
<text text-anchor="middle" x="1220" y="-99.8" font-family="Times,serif" font-size="14.00">ModalDialog</text>
</g>
<!-- ProductsModule -->
<g id="node9" class="node">
<title>ProductsModule</title>
<polygon fill="#8dd3c7" stroke="black" points="762.04,-187 759.04,-191 738.04,-191 735.04,-187 653.96,-187 653.96,-151 762.04,-151 762.04,-187"/>
<text text-anchor="middle" x="708" y="-164.8" font-family="Times,serif" font-size="14.00">ProductsModule</text>
</g>
<!-- ModalDialog&#45;&gt;ProductsModule -->
<g id="edge1" class="edge">
<title>ModalDialog&#45;&gt;ProductsModule</title>
<path fill="none" stroke="black" d="M1220,-122.13C1220,-142.57 1220,-173 1220,-173 1220,-173 772.31,-173 772.31,-173"/>
<polygon fill="black" stroke="black" points="772.31,-169.5 762.31,-173 772.31,-176.5 772.31,-169.5"/>
</g>
<!-- ProductDescriptionComponent -->
<g id="node2" class="node">
<title>ProductDescriptionComponent</title>
<polygon fill="#ffffb3" stroke="black" points="1157.19,-122 966.81,-122 966.81,-86 1157.19,-86 1157.19,-122"/>
<text text-anchor="middle" x="1062" y="-99.8" font-family="Times,serif" font-size="14.00">ProductDescriptionComponent</text>
</g>
<!-- ProductDescriptionComponent&#45;&gt;ProductsModule -->
<g id="edge2" class="edge">
<title>ProductDescriptionComponent&#45;&gt;ProductsModule</title>
<path fill="none" stroke="black" d="M1062,-122.27C1062,-140.56 1062,-166 1062,-166 1062,-166 772.15,-166 772.15,-166"/>
<polygon fill="black" stroke="black" points="772.15,-162.5 762.15,-166 772.15,-169.5 772.15,-162.5"/>
</g>
<!-- ProductPathComponent -->
<g id="node3" class="node">
<title>ProductPathComponent</title>
<polygon fill="#ffffb3" stroke="black" points="948.77,-122 799.23,-122 799.23,-86 948.77,-86 948.77,-122"/>
<text text-anchor="middle" x="874" y="-99.8" font-family="Times,serif" font-size="14.00">ProductPathComponent</text>
</g>
<!-- ProductPathComponent&#45;&gt;ProductsModule -->
<g id="edge3" class="edge">
<title>ProductPathComponent&#45;&gt;ProductsModule</title>
<path fill="none" stroke="black" d="M874,-122.01C874,-138.05 874,-159 874,-159 874,-159 772.35,-159 772.35,-159"/>
<polygon fill="black" stroke="black" points="772.35,-155.5 762.35,-159 772.35,-162.5 772.35,-155.5"/>
</g>
<!-- ProductPayComponent -->
<g id="node4" class="node">
<title>ProductPayComponent</title>
<polygon fill="#ffffb3" stroke="black" points="780.88,-122 635.12,-122 635.12,-86 780.88,-86 780.88,-122"/>
<text text-anchor="middle" x="708" y="-99.8" font-family="Times,serif" font-size="14.00">ProductPayComponent</text>
</g>
<!-- ProductPayComponent&#45;&gt;ProductsModule -->
<g id="edge4" class="edge">
<title>ProductPayComponent&#45;&gt;ProductsModule</title>
<path fill="none" stroke="black" d="M708,-122.11C708,-122.11 708,-140.99 708,-140.99"/>
<polygon fill="black" stroke="black" points="704.5,-140.99 708,-150.99 711.5,-140.99 704.5,-140.99"/>
</g>
<!-- ProductPhotoComponent -->
<g id="node5" class="node">
<title>ProductPhotoComponent</title>
<polygon fill="#ffffb3" stroke="black" points="616.55,-122 459.45,-122 459.45,-86 616.55,-86 616.55,-122"/>
<text text-anchor="middle" x="538" y="-99.8" font-family="Times,serif" font-size="14.00">ProductPhotoComponent</text>
</g>
<!-- ProductPhotoComponent&#45;&gt;ProductsModule -->
<g id="edge5" class="edge">
<title>ProductPhotoComponent&#45;&gt;ProductsModule</title>
<path fill="none" stroke="black" d="M538,-122.01C538,-138.05 538,-159 538,-159 538,-159 643.74,-159 643.74,-159"/>
<polygon fill="black" stroke="black" points="643.74,-162.5 653.74,-159 643.74,-155.5 643.74,-162.5"/>
</g>
<!-- ProductsComponent -->
<g id="node6" class="node">
<title>ProductsComponent</title>
<polygon fill="#ffffb3" stroke="black" points="441.33,-122 310.67,-122 310.67,-86 441.33,-86 441.33,-122"/>
<text text-anchor="middle" x="376" y="-99.8" font-family="Times,serif" font-size="14.00">ProductsComponent</text>
</g>
<!-- ProductsComponent&#45;&gt;ProductsModule -->
<g id="edge6" class="edge">
<title>ProductsComponent&#45;&gt;ProductsModule</title>
<path fill="none" stroke="black" d="M376,-122.27C376,-140.56 376,-166 376,-166 376,-166 643.92,-166 643.92,-166"/>
<polygon fill="black" stroke="black" points="643.92,-169.5 653.92,-166 643.92,-162.5 643.92,-169.5"/>
</g>
<!-- ServiciosComponent -->
<g id="node7" class="node">
<title>ServiciosComponent</title>
<polygon fill="#ffffb3" stroke="black" points="292.93,-122 159.07,-122 159.07,-86 292.93,-86 292.93,-122"/>
<text text-anchor="middle" x="226" y="-99.8" font-family="Times,serif" font-size="14.00">ServiciosComponent</text>
</g>
<!-- ServiciosComponent&#45;&gt;ProductsModule -->
<g id="edge7" class="edge">
<title>ServiciosComponent&#45;&gt;ProductsModule</title>
<path fill="none" stroke="black" d="M226,-122.13C226,-142.57 226,-173 226,-173 226,-173 643.65,-173 643.65,-173"/>
<polygon fill="black" stroke="black" points="643.65,-176.5 653.65,-173 643.65,-169.5 643.65,-176.5"/>
</g>
<!-- SteperComponent -->
<g id="node8" class="node">
<title>SteperComponent</title>
<polygon fill="#ffffb3" stroke="black" points="141.6,-122 24.4,-122 24.4,-86 141.6,-86 141.6,-122"/>
<text text-anchor="middle" x="83" y="-99.8" font-family="Times,serif" font-size="14.00">SteperComponent</text>
</g>
<!-- SteperComponent&#45;&gt;ProductsModule -->
<g id="edge8" class="edge">
<title>SteperComponent&#45;&gt;ProductsModule</title>
<path fill="none" stroke="black" d="M83,-122.01C83,-144.49 83,-180 83,-180 83,-180 643.9,-180 643.9,-180"/>
<polygon fill="black" stroke="black" points="643.9,-183.5 653.9,-180 643.9,-176.5 643.9,-183.5"/>
</g>
<!-- ProductRoutingModule -->
<g id="node10" class="node">
<title>ProductRoutingModule</title>
<polygon fill="#8dd3c7" stroke="black" points="1437.22,-122 1434.22,-126 1413.22,-126 1410.22,-122 1288.78,-122 1288.78,-86 1437.22,-86 1437.22,-122"/>
<text text-anchor="middle" x="1363" y="-99.8" font-family="Times,serif" font-size="14.00">ProductRoutingModule</text>
</g>
<!-- ProductRoutingModule&#45;&gt;ProductsModule -->
<g id="edge9" class="edge">
<title>ProductRoutingModule&#45;&gt;ProductsModule</title>
<path fill="none" stroke="black" d="M1363,-122.01C1363,-144.49 1363,-180 1363,-180 1363,-180 772.16,-180 772.16,-180"/>
<polygon fill="black" stroke="black" points="772.16,-176.5 762.16,-180 772.16,-183.5 772.16,-176.5"/>
</g>
</g>
</svg>
