<svg width="42" height="42" viewBox="0 0 42 42" fill="none" xmlns="http://www.w3.org/2000/svg">
<path d="M41.1542 41.2228V25.3177C41.1542 23.0203 39.2841 21.147 36.9906 21.147H5.1989C2.8701 21.1116 1 22.9849 1 25.3177V41.1875" stroke="black" stroke-miterlimit="10" stroke-linecap="round"/>
<path d="M1 15.9862V5.20603C1 2.87328 2.8701 1 5.1989 1H36.9906C39.2841 1 41.1542 2.87328 41.1542 5.17069V15.9862" stroke="black" stroke-miterlimit="10" stroke-linecap="round"/>
<path d="M14.9387 16.0209H7.21128C6.57615 16.0209 6.04688 15.4907 6.04688 14.8545V12.1683C6.04688 11.5321 6.57615 11.002 7.21128 11.002H14.9387C15.5738 11.002 16.1031 11.5321 16.1031 12.1683V14.8545C16.1031 15.5261 15.5738 16.0209 14.9387 16.0209Z" stroke="black" stroke-miterlimit="10" stroke-linecap="round"/>
<path d="M34.9445 16.0209H27.2171C26.582 16.0209 26.0527 15.4907 26.0527 14.8545V12.1683C26.0527 11.5321 26.582 11.002 27.2171 11.002H34.9445C35.5797 11.002 36.1089 11.5321 36.1089 12.1683V14.8545C36.1089 15.5261 35.5797 16.0209 34.9445 16.0209Z" stroke="black" stroke-miterlimit="10" stroke-linecap="round"/>
<path d="M16.1016 36.1328H26.0519" stroke="black" stroke-miterlimit="10" stroke-linecap="round"/>
<path d="M1.06934 36.1328H11.055" stroke="black" stroke-miterlimit="10" stroke-linecap="round"/>
<path d="M31.0967 36.1328H41.0823" stroke="black" stroke-miterlimit="10" stroke-linecap="round"/>
<path d="M1 26.1299H41.1542" stroke="black" stroke-miterlimit="10" stroke-linecap="round"/>
</svg>
