<svg width="72" height="73" viewBox="0 0 72 73" fill="none" xmlns="http://www.w3.org/2000/svg">
<path d="M35.9595 36.572C37.8799 34.6516 36.1465 29.8047 32.088 25.7461C28.0294 21.6876 23.1825 19.9542 21.2621 21.8746C19.3417 23.795 21.075 28.642 25.1336 32.7005C29.1922 36.7591 34.0391 38.4924 35.9595 36.572Z" stroke="black" stroke-miterlimit="10" stroke-linecap="round"/>
<path d="M46.8971 32.716C50.9556 28.6574 52.689 23.8105 50.7686 21.8901C48.8482 19.9697 44.0013 21.7031 39.9427 25.7616C35.8841 29.8202 34.1508 34.6671 36.0712 36.5875C37.9916 38.5079 42.8385 36.7746 46.8971 32.716Z" stroke="black" stroke-miterlimit="10" stroke-linecap="round"/>
<path d="M50.7814 51.487C52.7018 49.5666 50.9684 44.7197 46.9099 40.6611C42.8513 36.6026 38.0044 34.8692 36.084 36.7896C34.1636 38.71 35.8969 43.5569 39.9555 47.6155C44.0141 51.6741 48.861 53.4074 50.7814 51.487Z" stroke="black" stroke-miterlimit="10" stroke-linecap="round"/>
<path d="M32.0997 47.6001C36.1583 43.5415 37.8916 38.6946 35.9712 36.7742C34.0508 34.8538 29.2039 36.5872 25.1453 40.6457C21.0868 44.7043 19.3534 49.5512 21.2738 51.4716C23.1942 53.392 28.0411 51.6587 32.0997 47.6001Z" stroke="black" stroke-miterlimit="10" stroke-linecap="round"/>
<path d="M39.422 2.40682L70.0932 33.078C71.9689 34.9538 71.9689 37.9955 70.0932 39.922L39.422 70.5932C37.5462 72.4689 34.5045 72.4689 32.578 70.5932L1.90682 39.922C0.0310603 38.0462 0.0310603 35.0045 1.90682 33.078L32.578 2.40682C34.4538 0.53106 37.4955 0.53106 39.422 2.40682Z" stroke="black" stroke-miterlimit="10" stroke-linecap="round"/>
<path d="M28.6237 20.9109L33.7947 15.7399C34.9607 14.5739 36.8365 14.5739 37.9518 15.7399L43.0721 20.8602" stroke="black" stroke-miterlimit="10" stroke-linecap="round"/>
<path d="M43.1223 52.0384L37.9513 57.2601C36.7852 58.4261 34.9095 58.4261 33.7942 57.2601L28.6739 52.1398" stroke="black" stroke-miterlimit="10" stroke-linecap="round"/>
<path d="M51.4363 29.2251L56.658 34.3961C57.824 35.5621 57.824 37.4379 56.658 38.5532L51.5377 43.6735" stroke="black" stroke-miterlimit="10" stroke-linecap="round"/>
<path d="M20.2602 43.7242L15.0892 38.5532C13.9231 37.3872 13.9231 35.5114 15.0892 34.3961L20.2095 29.2758" stroke="black" stroke-miterlimit="10" stroke-linecap="round"/>
</svg>
