<svg width="54" height="63" viewBox="0 0 54 63" fill="none" xmlns="http://www.w3.org/2000/svg">
<path d="M20.3008 62H33.2079" stroke="black" stroke-miterlimit="10" stroke-linecap="round"/>
<path d="M26.754 29.7775C37.4215 29.7775 46.0693 28.3329 46.0693 26.5507C46.0693 24.7686 37.4215 23.324 26.754 23.324C16.0864 23.324 7.43869 24.7686 7.43869 26.5507C7.43869 28.3329 16.0864 29.7775 26.754 29.7775Z" stroke="black" stroke-miterlimit="10" stroke-linecap="round"/>
<path d="M1.03073 23.324V41.2304C1.03073 50.0018 6.02998 58.046 13.8924 61.9546" stroke="black" stroke-miterlimit="10" stroke-linecap="round"/>
<path d="M52.523 23.324V41.2304C52.523 50.0018 47.5238 58.046 39.6613 61.9546" stroke="black" stroke-miterlimit="10" stroke-linecap="round"/>
<path d="M16.8013 1.1L10.5295 7.50813" stroke="black" stroke-miterlimit="10" stroke-linecap="round"/>
<path d="M29.8444 1.1L23.5726 7.50813" stroke="black" stroke-miterlimit="10" stroke-linecap="round"/>
<path d="M42.9335 1.1L36.6162 7.50813" stroke="black" stroke-miterlimit="10" stroke-linecap="round"/>
<path d="M1.03073 40.0942C5.30282 40.0942 5.30282 45.2298 9.62036 45.2298C13.8924 45.2298 13.8924 40.0942 18.21 40.0942C22.4821 40.0942 22.4821 45.2298 26.7996 45.2298C31.0717 45.2298 31.0717 40.0942 35.3892 40.0942C39.6613 40.0942 39.6613 45.2298 43.9789 45.2298C48.2964 45.2298 48.251 40.0942 52.5685 40.0942" stroke="black" stroke-miterlimit="10" stroke-linecap="round"/>
</svg>
