<svg width="41" height="43" viewBox="0 0 41 43" fill="none" xmlns="http://www.w3.org/2000/svg">
<path d="M13.1267 1.3667L8.44922 6.0667" stroke="black" stroke-miterlimit="10" stroke-linecap="round"/>
<path d="M22.7844 1.3667L18.1406 6.0667" stroke="black" stroke-miterlimit="10" stroke-linecap="round"/>
<path d="M32.4416 1.3667L27.7979 6.0667" stroke="black" stroke-miterlimit="10" stroke-linecap="round"/>
<path d="M25.3741 41.6333H15.75" stroke="black" stroke-miterlimit="10" stroke-linecap="round"/>
<path d="M10.7383 41.6332H3.33516C2.32564 41.6332 1.48438 40.7999 1.48438 39.7999V19.7332C1.48438 18.7332 2.32564 17.8999 3.33516 17.8999H37.7935C38.803 17.8999 39.6443 18.7332 39.6443 19.7332V39.7666C39.6443 40.7666 38.803 41.5999 37.7935 41.5999H30.2221" stroke="black" stroke-miterlimit="10" stroke-linecap="round"/>
<path d="M34.7979 22.7666V36.8666" stroke="black" stroke-miterlimit="10" stroke-linecap="round"/>
<path d="M30.0186 22.7666V36.8666" stroke="black" stroke-miterlimit="10" stroke-linecap="round"/>
<path d="M25.2402 22.7666V36.8666" stroke="black" stroke-miterlimit="10" stroke-linecap="round"/>
<path d="M20.5293 22.7666V36.8666" stroke="black" stroke-miterlimit="10" stroke-linecap="round"/>
<path d="M15.6162 22.7666V36.8666" stroke="black" stroke-miterlimit="10" stroke-linecap="round"/>
<path d="M6.19434 22.7666V36.8666" stroke="black" stroke-miterlimit="10" stroke-linecap="round"/>
<path d="M10.9053 22.7666V36.8666" stroke="black" stroke-miterlimit="10" stroke-linecap="round"/>
</svg>
