<svg width="40" height="42" viewBox="0 0 40 42" fill="none" xmlns="http://www.w3.org/2000/svg">
<path d="M12.6423 1L7.96484 5.7" stroke="black" stroke-miterlimit="10" stroke-linecap="round"/>
<path d="M22.3 1L17.6562 5.7" stroke="black" stroke-miterlimit="10" stroke-linecap="round"/>
<path d="M31.9573 1L27.3135 5.7" stroke="black" stroke-miterlimit="10" stroke-linecap="round"/>
<path d="M24.8897 41.2666H15.2656" stroke="black" stroke-miterlimit="10" stroke-linecap="round"/>
<path d="M10.2539 41.2665H2.85079C1.84127 41.2665 1 40.4332 1 39.4332V19.3665C1 18.3665 1.84127 17.5332 2.85079 17.5332H37.3091C38.3186 17.5332 39.1599 18.3665 39.1599 19.3665V39.3999C39.1599 40.3999 38.3186 41.2332 37.3091 41.2332H29.7377" stroke="black" stroke-miterlimit="10" stroke-linecap="round"/>
<path d="M34.3135 22.4004V36.5004" stroke="black" stroke-miterlimit="10" stroke-linecap="round"/>
<path d="M29.5342 22.4004V36.5004" stroke="black" stroke-miterlimit="10" stroke-linecap="round"/>
<path d="M24.7559 22.4004V36.5004" stroke="black" stroke-miterlimit="10" stroke-linecap="round"/>
<path d="M20.0449 22.4004V36.5004" stroke="black" stroke-miterlimit="10" stroke-linecap="round"/>
<path d="M15.1318 22.4004V36.5004" stroke="black" stroke-miterlimit="10" stroke-linecap="round"/>
<path d="M5.70996 22.4004V36.5004" stroke="black" stroke-miterlimit="10" stroke-linecap="round"/>
<path d="M10.4209 22.4004V36.5004" stroke="black" stroke-miterlimit="10" stroke-linecap="round"/>
</svg>
