<svg width="74" height="62" viewBox="0 0 74 62" fill="none" xmlns="http://www.w3.org/2000/svg">
<g clip-path="url(#clip0)">
<path d="M73.3854 17.8728C73.0166 17.3797 72.402 17.0099 71.7874 17.0099H52.8572L51.9967 3.82107C51.7509 1.72565 50.0299 0 47.9402 0H24.5847C22.495 0 20.6512 1.72565 20.5283 3.82107L19.5449 17.0099H2.4585C1.59803 17.0099 0.86049 17.3797 0.491719 17.996C2.45422e-05 18.6123 -0.122899 19.2286 2.45236e-05 19.9682L9.34222 60.2744C9.58806 61.3837 10.5715 62.1233 11.6778 62.1233H62.3223C63.4286 62.1233 64.412 61.3837 64.6578 60.2744L74 19.9682C74.1229 19.2286 73.8771 18.4891 73.3854 17.8728ZM21.6346 3.94433C21.7575 2.34195 22.9867 1.2326 24.4618 1.2326H47.8173C49.2924 1.2326 50.5216 2.34195 50.6445 3.94433L51.6279 17.0099H49.1695L48.4319 5.66998C48.309 4.56064 47.3256 3.69781 46.3422 3.69781H26.0598C24.9535 3.69781 24.093 4.56064 23.9701 5.66998L23.2326 17.0099H20.6512L21.6346 3.94433ZM47.9402 18.2425L46.9568 31.5547H25.4452L24.4618 18.2425H47.9402ZM24.4618 17.0099L25.1994 5.66998C25.1994 5.17694 25.5681 4.80716 26.0598 4.80716H46.2193C46.711 4.80716 47.0798 5.17694 47.0798 5.54672L47.8173 16.8867H24.4618V17.0099ZM1.22926 19.5984C1.10634 19.2286 1.22926 18.9821 1.47511 18.7356C1.72095 18.4891 2.08973 18.2425 2.4585 18.2425H23.2326L24.216 31.5547H4.0565L1.22926 19.5984ZM4.30235 32.9105H24.216L25.1994 46.2227H7.37544L4.30235 32.9105ZM11.6778 60.7674C11.1861 60.7674 10.6944 60.3976 10.5715 59.9046L7.62129 47.4553H25.3223L26.3057 60.7674H11.6778ZM44.9901 60.7674H27.2891H27.412L26.4286 47.4553H45.8505L44.9901 60.7674ZM26.4286 46.2227L25.4452 32.9105H46.8339L45.9734 46.2227H26.4286ZM63.4286 59.9046C63.3057 60.3976 62.814 60.7674 62.3223 60.7674H46.2193L47.2027 47.4553H66.3788L63.4286 59.9046ZM66.6246 46.2227H47.2027L48.0631 32.9105H69.5748L66.6246 46.2227ZM72.6479 19.5984L69.8206 31.5547H48.1861L49.1695 18.2425H71.7874C72.0332 18.2425 72.2791 18.3658 72.5249 18.6123C72.6479 18.9821 72.7708 19.3519 72.6479 19.5984Z" fill="#BC955C"/>
</g>
<defs>
<clipPath id="clip0">
<rect width="74" height="62" fill="white"/>
</clipPath>
</defs>
</svg>
