<svg width="57" height="57" viewBox="0 0 57 57" fill="none" xmlns="http://www.w3.org/2000/svg">
<path d="M28.3515 13.7411C31.8291 13.7411 34.6482 10.922 34.6482 7.44436C34.6482 3.96675 31.8291 1.14758 28.3515 1.14758C24.8739 1.14758 22.0547 3.96675 22.0547 7.44436C22.0547 10.922 24.8739 13.7411 28.3515 13.7411Z" stroke="black" stroke-miterlimit="10" stroke-linecap="round"/>
<path d="M49.3083 1L29.5325 20.825C28.893 21.4645 27.9091 21.4645 27.3188 20.825L7.54297 1" stroke="black" stroke-miterlimit="10" stroke-linecap="round"/>
<path d="M28.4989 55.7524C31.9765 55.7524 34.7957 52.9333 34.7957 49.4556C34.7957 45.978 31.9765 43.1589 28.4989 43.1589C25.0213 43.1589 22.2021 45.978 22.2021 49.4556C22.2021 52.9333 25.0213 55.7524 28.4989 55.7524Z" stroke="black" stroke-miterlimit="10" stroke-linecap="round"/>
<path d="M7.54297 55.9L27.3188 36.1242C27.9583 35.4847 28.9422 35.4847 29.5325 36.1242L49.3083 55.9" stroke="black" stroke-miterlimit="10" stroke-linecap="round"/>
<path d="M49.1601 35.4355C52.6377 35.4355 55.4568 32.6164 55.4568 29.1388C55.4568 25.6611 52.6377 22.842 49.1601 22.842C45.6824 22.842 42.8633 25.6611 42.8633 29.1388C42.8633 32.6164 45.6824 35.4355 49.1601 35.4355Z" stroke="black" stroke-miterlimit="10" stroke-linecap="round"/>
<path d="M55.6051 50.1444L35.8292 30.3194C35.1897 29.6798 35.1897 28.696 35.8292 28.1057L55.6051 8.32983" stroke="black" stroke-miterlimit="10" stroke-linecap="round"/>
<path d="M7.44424 35.6322C10.9219 35.6322 13.741 32.8131 13.741 29.3355C13.741 25.8579 10.9219 23.0387 7.44424 23.0387C3.96662 23.0387 1.14746 25.8579 1.14746 29.3355C1.14746 32.8131 3.96662 35.6322 7.44424 35.6322Z" stroke="black" stroke-miterlimit="10" stroke-linecap="round"/>
<path d="M1 8.32983L20.7758 28.1057C21.4153 28.7452 21.4153 29.729 20.7758 30.3194L1 50.1444" stroke="black" stroke-miterlimit="10" stroke-linecap="round"/>
</svg>
