<svg width="31" height="41" viewBox="0 0 31 41" fill="none" xmlns="http://www.w3.org/2000/svg">
<path d="M4.27148 24.4304L7.65887 20.8422C7.89159 20.5957 8.22774 20.6231 8.46046 20.8422L11.6151 24.403" stroke="black" stroke-miterlimit="10" stroke-linecap="round"/>
<path d="M26.2772 20.6787L22.8899 24.2668C22.6571 24.5133 22.321 24.486 22.0883 24.2668L18.9336 20.6787" stroke="black" stroke-miterlimit="10" stroke-linecap="round"/>
<path d="M1.71127 1.2583H29.1723C29.6895 1.2583 30.1032 1.64176 30.1032 2.13479V15.9121C30.1032 16.4051 29.6895 16.7886 29.1723 16.7886H1.71127C1.19411 16.7886 0.780383 16.4051 0.780383 15.9121V2.16218C0.754525 1.66915 1.19411 1.2583 1.71127 1.2583Z" stroke="black" stroke-miterlimit="10" stroke-linecap="round"/>
<path d="M0.755859 40.0979V29.3062C0.755859 28.8132 1.16959 28.4297 1.68674 28.4297H29.1737C29.6908 28.4297 30.1046 28.8132 30.1046 29.3062V40.0979" stroke="black" stroke-miterlimit="10" stroke-linecap="round"/>
<path d="M15.495 12.9817C17.5515 12.9817 19.2186 11.2158 19.2186 9.03746C19.2186 6.85914 17.5515 5.09326 15.495 5.09326C13.4386 5.09326 11.7715 6.85914 11.7715 9.03746C11.7715 11.2158 13.4386 12.9817 15.495 12.9817Z" stroke="black" stroke-miterlimit="10" stroke-linecap="round"/>
<path d="M4.50479 1.2583C4.50479 3.44952 2.82402 5.2025 0.78125 5.2025" stroke="black" stroke-miterlimit="10" stroke-linecap="round"/>
<path d="M26.3809 1.2583C26.3809 3.44952 28.0616 5.2025 30.1044 5.2025" stroke="black" stroke-miterlimit="10" stroke-linecap="round"/>
<path d="M26.3809 16.7884C26.3809 14.5972 28.0616 12.8442 30.1044 12.8442" stroke="black" stroke-miterlimit="10" stroke-linecap="round"/>
<path d="M4.50479 16.7879C4.50479 14.5967 2.82402 12.8438 0.78125 12.8438" stroke="black" stroke-miterlimit="10" stroke-linecap="round"/>
<path d="M13.4004 28.4297V35.469C13.4004 35.8798 13.7107 36.2359 14.1244 36.2359H16.3999C16.7878 36.2359 17.1239 35.9072 17.1239 35.469V28.4297" stroke="black" stroke-miterlimit="10" stroke-linecap="round"/>
</svg>
