<svg width="55" height="67" viewBox="0 0 55 67" fill="none" xmlns="http://www.w3.org/2000/svg">
<path d="M7.4861 26.4811C7.4861 26.4811 1.13899 39.407 1 52.3792C1 52.6572 1.23165 52.8425 1.46329 52.7961C4.61368 52.3792 22.4041 48.9971 33.6158 26.4811" stroke="black" stroke-miterlimit="10" stroke-linecap="round"/>
<path d="M7.48572 66C7.48572 66 46.7266 66 53.7687 26.4811" stroke="black" stroke-miterlimit="10" stroke-linecap="round"/>
<path d="M33.5695 49.5531C39.3607 44.3179 44.4106 36.9052 46.866 26.4811" stroke="black" stroke-miterlimit="10" stroke-linecap="round"/>
<path d="M26.7585 46.7733C32.1327 42.0478 37.4142 35.5153 40.1476 26.4811" stroke="black" stroke-miterlimit="10" stroke-linecap="round"/>
<path d="M27.2687 19.995C29.7507 19.995 31.7627 15.7428 31.7627 10.4975C31.7627 5.25218 29.7507 1 27.2687 1C24.7868 1 22.7748 5.25218 22.7748 10.4975C22.7748 15.7428 24.7868 19.995 27.2687 19.995Z" stroke="black" stroke-miterlimit="10" stroke-linecap="round"/>
<path d="M43.45 16.827C47.159 13.118 48.743 8.68862 46.988 6.93364C45.233 5.17867 40.8036 6.76269 37.0947 10.4717C33.3857 14.1806 31.8017 18.61 33.5566 20.365C35.3116 22.12 39.741 20.536 43.45 16.827Z" stroke="black" stroke-miterlimit="10" stroke-linecap="round"/>
<path d="M20.9951 20.3582C22.7501 18.6032 21.166 14.1738 17.4571 10.4649C13.7481 6.75588 9.31869 5.17186 7.56371 6.92683C5.80874 8.68181 7.39276 13.1112 11.1017 16.8202C14.8107 20.5292 19.2401 22.1132 20.9951 20.3582Z" stroke="black" stroke-miterlimit="10" stroke-linecap="round"/>
</svg>
