<svg width="53" height="53" viewBox="0 0 53 53" fill="none" xmlns="http://www.w3.org/2000/svg">
<path d="M45.287 23.6445C45.7679 25.4881 46.0084 27.4119 46.0084 29.3757C46.0084 41.8001 35.9487 51.8599 23.5242 51.8599C11.0998 51.8599 1 41.8001 1 29.3757C1 16.9513 11.0598 6.89157 23.4842 6.89157C27.5321 6.89157 31.3797 7.9737 34.6661 9.8574" stroke="black" stroke-miterlimit="10" stroke-linecap="round"/>
<path d="M45.5267 6.89157C33.3027 7.13204 23.4434 17.1116 23.4434 29.3757" stroke="black" stroke-miterlimit="10" stroke-linecap="round"/>
<path d="M17.6725 7.65308C17.6725 7.65308 5.04775 30.538 17.6725 51.1385" stroke="black" stroke-miterlimit="10" stroke-linecap="round"/>
<path d="M34.4655 29.4559C34.6659 36.2292 33.3433 43.8041 28.8945 51.1385" stroke="black" stroke-miterlimit="10" stroke-linecap="round"/>
<path d="M23.4434 35.1471V51.9" stroke="black" stroke-miterlimit="10" stroke-linecap="round"/>
<path d="M46.0088 1L51.2591 6.25031C51.6198 6.61102 51.5797 7.13205 51.2591 7.49275L46.0489 12.3824" stroke="black" stroke-miterlimit="10" stroke-linecap="round"/>
</svg>
