<svg width="50" height="62" viewBox="0 0 50 62" fill="none" xmlns="http://www.w3.org/2000/svg">
<path d="M24.9686 7.0237C34.856 7.0237 42.8712 5.68468 42.8712 4.03291C42.8712 2.38115 34.856 1.04213 24.9686 1.04213C15.0813 1.04213 7.06604 2.38115 7.06604 4.03291C7.06604 5.68468 15.0813 7.0237 24.9686 7.0237Z" stroke="black" stroke-miterlimit="10" stroke-linecap="round"/>
<path d="M15.7434 15.9961L9.93036 21.9355" stroke="black" stroke-miterlimit="10" stroke-linecap="round"/>
<path d="M27.875 15.9961L22.0198 21.9355" stroke="black" stroke-miterlimit="10" stroke-linecap="round"/>
<path d="M39.9649 15.9961L34.1519 21.9355" stroke="black" stroke-miterlimit="10" stroke-linecap="round"/>
<path d="M1 30.95V57.7407C1 59.3835 2.34796 60.7315 3.99079 60.6894H7.0237" stroke="black" stroke-miterlimit="10" stroke-linecap="round"/>
<path d="M1 1V6.98158C1 8.6244 2.34796 9.93024 3.94866 9.93024H4.24353C5.88636 9.93024 7.19219 11.2782 7.19219 12.8789C7.19219 14.5217 5.84423 15.8276 4.24353 15.8276H3.99079C2.34796 15.8276 1.04212 17.1755 1.04212 18.7762V30.8658" stroke="black" stroke-miterlimit="10" stroke-linecap="round"/>
<path d="M31.1609 30.95C31.1609 29.3072 32.5089 27.9592 34.1517 28.0013H45.7779C47.4207 28.0013 48.7687 29.3072 48.7687 30.95V57.7407C48.7687 59.3835 47.4207 60.7315 45.7779 60.6894H34.1517C32.5089 60.6894 31.1609 59.3835 31.1609 57.7407V30.95Z" stroke="black" stroke-miterlimit="10" stroke-linecap="round"/>
<path d="M48.7689 1V6.98158C48.7689 8.6244 47.4209 9.93024 45.8202 9.93024H45.5253C43.8825 9.93024 42.5767 11.2782 42.5767 12.8789C42.5767 14.5217 43.9246 15.8276 45.5253 15.8276H45.8202C47.463 15.8276 48.7689 17.1755 48.7689 18.7762V24.7999" stroke="black" stroke-miterlimit="10" stroke-linecap="round"/>
<path d="M34.1519 30.95L39.3331 36.3418C39.6279 36.6367 40.1334 36.6367 40.4283 36.3418L45.6516 30.95" stroke="black" stroke-miterlimit="10" stroke-linecap="round"/>
<path d="M18.8599 60.9C22.1867 60.9 24.8836 58.2031 24.8836 54.8763C24.8836 51.5495 22.1867 48.8526 18.8599 48.8526C15.5331 48.8526 12.8362 51.5495 12.8362 54.8763C12.8362 58.2031 15.5331 60.9 18.8599 60.9Z" stroke="black" stroke-miterlimit="10" stroke-linecap="round"/>
</svg>
