<svg width="70" height="48" viewBox="0 0 70 48" fill="none" xmlns="http://www.w3.org/2000/svg">
<path d="M24.2805 40.0013L17.3818 47" stroke="black" stroke-miterlimit="10" stroke-linecap="round"/>
<path d="M38.6782 40.0013L31.7295 47" stroke="black" stroke-miterlimit="10" stroke-linecap="round"/>
<path d="M53.0256 40.0013L46.127 47" stroke="black" stroke-miterlimit="10" stroke-linecap="round"/>
<path d="M27.8802 8.1574C27.8802 4.05818 31.2795 0.808796 35.3787 1.00876C39.0281 1.15873 42.0275 4.15816 42.2274 7.85745C42.3774 11.6067 39.6779 14.7561 36.1286 15.306C35.5287 15.406 35.0788 15.9059 35.0788 16.5058V20.1051C35.0788 21.4049 34.5289 22.7046 33.6291 23.6544L1.28524 41.851C0.685356 42.4509 1.08528 43.5007 1.98511 43.5007H13.8329" stroke="black" stroke-miterlimit="10" stroke-linecap="round"/>
<path d="M37.9785 24.4543L68.7727 41.851C69.3725 42.4509 68.9726 43.5007 68.0728 43.5007H56.225" stroke="black" stroke-miterlimit="10" stroke-linecap="round"/>
</svg>
