<svg width="44" height="44" viewBox="0 0 44 44" fill="none" xmlns="http://www.w3.org/2000/svg">
<path d="M15.5098 16.6661H2.15632C1.52222 16.6661 1 16.1439 1 15.5098V2.15631C1 1.5222 1.52222 1 2.15632 1H15.5098C16.1439 1 16.6661 1.5222 16.6661 2.15631V15.5098C16.6661 16.1439 16.1439 16.6661 15.5098 16.6661Z" stroke="black" stroke-miterlimit="10" stroke-linecap="round"/>
<path d="M41.8438 16.6661H28.4903C27.8562 16.6661 27.334 16.1439 27.334 15.5098V2.15631C27.334 1.5222 27.8562 1 28.4903 1H41.8438C42.4779 1 43.0001 1.5222 43.0001 2.15631V15.5098C43.0001 16.1439 42.4779 16.6661 41.8438 16.6661Z" stroke="black" stroke-miterlimit="10" stroke-linecap="round"/>
<path d="M15.5098 43.0372H2.15632C1.52222 43.0372 1 42.515 1 41.8809V28.5274C1 27.8933 1.52222 27.3711 2.15632 27.3711H15.5098C16.1439 27.3711 16.6661 27.8933 16.6661 28.5274V41.8809C16.6661 42.515 16.1439 43.0372 15.5098 43.0372Z" stroke="black" stroke-miterlimit="10" stroke-linecap="round"/>
<path d="M42.9991 35.2041V41.8809C42.9991 42.515 42.4769 43.0372 41.8428 43.0372H35.166" stroke="black" stroke-miterlimit="10" stroke-linecap="round"/>
<path d="M27.334 35.2042V28.5274C27.334 27.8933 27.8562 27.3711 28.4903 27.3711H35.167" stroke="black" stroke-miterlimit="10" stroke-linecap="round"/>
<path d="M10.2517 11.4812H7.26765C6.63355 11.4812 6.11133 10.959 6.11133 10.3249V7.34088C6.11133 6.70677 6.63355 6.18457 7.26765 6.18457H10.2517C10.8858 6.18457 11.408 6.70677 11.408 7.34088V10.3249C11.408 10.959 10.8858 11.4812 10.2517 11.4812Z" stroke="black" stroke-miterlimit="10" stroke-linecap="round"/>
<path d="M23.4548 24.6858H20.4708C19.8367 24.6858 19.3145 24.1636 19.3145 23.5295V20.5455C19.3145 19.9114 19.8367 19.3892 20.4708 19.3892H23.4548C24.0889 19.3892 24.6111 19.9114 24.6111 20.5455V23.5295C24.6111 24.1636 24.0889 24.6858 23.4548 24.6858Z" stroke="black" stroke-miterlimit="10" stroke-linecap="round"/>
<path d="M36.5856 11.4812H33.6016C32.9675 11.4812 32.4453 10.959 32.4453 10.3249V7.34088C32.4453 6.70677 32.9675 6.18457 33.6016 6.18457H36.5856C37.2197 6.18457 37.7419 6.70677 37.7419 7.34088V10.3249C37.7419 10.959 37.2197 11.4812 36.5856 11.4812Z" stroke="black" stroke-miterlimit="10" stroke-linecap="round"/>
<path d="M10.2517 37.8152H7.26765C6.63355 37.8152 6.11133 37.293 6.11133 36.6589V33.6749C6.11133 33.0408 6.63355 32.5186 7.26765 32.5186H10.2517C10.8858 32.5186 11.408 33.0408 11.408 33.6749V36.6589C11.408 37.293 10.8858 37.8152 10.2517 37.8152Z" stroke="black" stroke-miterlimit="10" stroke-linecap="round"/>
<path d="M36.5856 37.8152H33.6016C32.9675 37.8152 32.4453 37.293 32.4453 36.6589V33.6749C32.4453 33.0408 32.9675 32.5186 33.6016 32.5186H36.5856C37.2197 32.5186 37.7419 33.0408 37.7419 33.6749V36.6589C37.7419 37.293 37.2197 37.8152 36.5856 37.8152Z" stroke="black" stroke-miterlimit="10" stroke-linecap="round"/>
<path d="M22.0371 8.87008V3.53613" stroke="black" stroke-miterlimit="10" stroke-linecap="round"/>
<path d="M22.0371 40.6128V35.2788" stroke="black" stroke-miterlimit="10" stroke-linecap="round"/>
<path d="M8.79488 22.0747H3.46094" stroke="black" stroke-miterlimit="10" stroke-linecap="round"/>
<path d="M40.5 22.0747H35.166" stroke="black" stroke-miterlimit="10" stroke-linecap="round"/>
</svg>
