<svg width="48" height="37" viewBox="0 0 48 37" fill="none" xmlns="http://www.w3.org/2000/svg">
<path d="M2.45903 1H45.5004C46.311 1 46.9595 1.5674 46.9595 2.29692V22.6828C46.9595 23.4123 46.311 23.9797 45.5004 23.9797H2.45903C1.64846 23.9797 1 23.4123 1 22.6828V2.29692C1 1.5674 1.68899 1 2.45903 1Z" stroke="black" stroke-miterlimit="10" stroke-linecap="round"/>
<path d="M47 28.4785C47 29.208 46.3515 29.7754 45.541 29.7754H2.45903C1.64846 29.7754 1 29.208 1 28.4785" stroke="black" stroke-miterlimit="10" stroke-linecap="round"/>
<path d="M47 34.2739C47 35.0034 46.3515 35.5708 45.541 35.5708H2.45903C1.64846 35.5708 1 35.0034 1 34.2739" stroke="black" stroke-miterlimit="10" stroke-linecap="round"/>
<path d="M24.1017 18.3461C27.325 18.3461 29.9379 15.7332 29.9379 12.5099C29.9379 9.28675 27.325 6.67383 24.1017 6.67383C20.8785 6.67383 18.2656 9.28675 18.2656 12.5099C18.2656 15.7332 20.8785 18.3461 24.1017 18.3461Z" stroke="black" stroke-miterlimit="10" stroke-linecap="round"/>
<path d="M6.87714 1C6.87714 4.24229 4.24278 6.83612 1.04102 6.83612" stroke="black" stroke-miterlimit="10" stroke-linecap="round"/>
<path d="M41.123 1C41.123 4.24229 43.7574 6.83612 46.9592 6.83612" stroke="black" stroke-miterlimit="10" stroke-linecap="round"/>
<path d="M41.123 23.9797C41.123 20.7374 43.7574 18.1436 46.9592 18.1436" stroke="black" stroke-miterlimit="10" stroke-linecap="round"/>
<path d="M6.87714 23.9797C6.87714 20.7374 4.24278 18.1436 1.04102 18.1436" stroke="black" stroke-miterlimit="10" stroke-linecap="round"/>
</svg>
