<svg width="55" height="29" viewBox="0 0 55 29" fill="none" xmlns="http://www.w3.org/2000/svg">
<path d="M20.7832 1.12305H52.3218C53.2549 1.12305 54.0014 1.77622 54.0014 2.616V26.0834C54.0014 26.9231 53.2549 27.5763 52.3218 27.5763H20.7832" stroke="black" stroke-miterlimit="10" stroke-linecap="round"/>
<path d="M47.2363 1.12305C47.2363 4.85543 50.2689 7.84134 53.9546 7.84134" stroke="black" stroke-miterlimit="10" stroke-linecap="round"/>
<path d="M47.2363 27.5762C47.2363 23.8438 50.2689 20.8579 53.9546 20.8579" stroke="black" stroke-miterlimit="10" stroke-linecap="round"/>
<path d="M27.4993 21.3243C31.2355 21.3243 34.2643 18.2956 34.2643 14.5594C34.2643 10.8232 31.2355 7.79443 27.4993 7.79443C23.7631 7.79443 20.7344 10.8232 20.7344 14.5594C20.7344 18.2956 23.7631 21.3243 27.4993 21.3243Z" stroke="black" stroke-miterlimit="10" stroke-linecap="round"/>
<path d="M1 1.12305H14.0167" stroke="black" stroke-miterlimit="10" stroke-linecap="round"/>
<path d="M7.5332 7.88818H14.0182" stroke="black" stroke-miterlimit="10" stroke-linecap="round"/>
<path d="M7.5332 21.231H14.0182" stroke="black" stroke-miterlimit="10" stroke-linecap="round"/>
<path d="M1 14.373H14.0167" stroke="black" stroke-miterlimit="10" stroke-linecap="round"/>
<path d="M1 27.5762H14.0167" stroke="black" stroke-miterlimit="10" stroke-linecap="round"/>
</svg>
