<svg width="27" height="43" viewBox="0 0 27 43" fill="none" xmlns="http://www.w3.org/2000/svg">
<path d="M20.2793 42C21.0295 42 21.6354 41.3941 21.6354 40.6439V33.748" stroke="black" stroke-miterlimit="10" stroke-linecap="round"/>
<path d="M9.3457 42H17.5399" stroke="black" stroke-miterlimit="10" stroke-linecap="round"/>
<path d="M5.30664 33.7192V40.6151C5.30664 41.3653 5.91255 41.9712 6.66272 41.9712" stroke="black" stroke-miterlimit="10" stroke-linecap="round"/>
<path d="M13.4431 33.7192H24.8399C25.3593 33.7192 25.7632 33.2575 25.7632 32.6805V2.03871C25.7632 1.46165 25.3593 1 24.8399 1H2.16158C1.64223 1 1.23828 1.46165 1.23828 2.03871V32.6805C1.23828 33.2575 1.64223 33.7192 2.16158 33.7192H13.4431Z" stroke="black" stroke-miterlimit="10" stroke-linecap="round"/>
<path d="M20.7718 17.2729H6.17223C5.68173 17.2729 5.30664 16.869 5.30664 16.4073V6.07799C5.30664 5.58749 5.71058 5.2124 6.17223 5.2124H20.7718C21.2623 5.2124 21.6374 5.61634 21.6374 6.07799V16.3785C21.6662 16.869 21.2623 17.2729 20.7718 17.2729Z" stroke="black" stroke-miterlimit="10" stroke-linecap="round"/>
<path d="M9.3457 33.7192V37.8741" stroke="black" stroke-miterlimit="10" stroke-linecap="round"/>
<path d="M5.30664 21.4565H9.34605" stroke="black" stroke-miterlimit="10" stroke-linecap="round"/>
<path d="M11.4238 21.4565H15.4632" stroke="black" stroke-miterlimit="10" stroke-linecap="round"/>
<path d="M17.5977 21.4565H21.6371" stroke="black" stroke-miterlimit="10" stroke-linecap="round"/>
<path d="M5.30664 25.6113H9.34605" stroke="black" stroke-miterlimit="10" stroke-linecap="round"/>
<path d="M11.4238 25.6113H15.4632" stroke="black" stroke-miterlimit="10" stroke-linecap="round"/>
<path d="M17.5977 25.6113H21.6371" stroke="black" stroke-miterlimit="10" stroke-linecap="round"/>
<path d="M5.30664 29.7949H9.34605" stroke="black" stroke-miterlimit="10" stroke-linecap="round"/>
<path d="M11.4238 29.7949H15.4632" stroke="black" stroke-miterlimit="10" stroke-linecap="round"/>
<path d="M17.5977 29.7949H21.6371" stroke="black" stroke-miterlimit="10" stroke-linecap="round"/>
</svg>
