<svg width="33" height="34" viewBox="0 0 33 34" fill="none" xmlns="http://www.w3.org/2000/svg">
<path d="M8.48044 26.4537H1.39499C1.08693 26.4537 0.85588 26.1841 0.932895 25.8761L6.24698 1.38508C6.28549 1.15403 6.47803 1 6.70907 1H18.9161C22.6898 1 25.732 4.04213 25.732 7.8159C25.732 13.207 21.3421 17.5969 15.951 17.5969H11.176C10.9449 17.5969 10.7524 17.7509 10.7139 17.982L8.94253 26.0686C8.90402 26.2997 8.71149 26.4537 8.48044 26.4537Z" stroke="black" stroke-miterlimit="10" stroke-linecap="round"/>
<path d="M15.1425 33.0001H8.0571C7.74904 33.0001 7.51799 32.7305 7.595 32.4225L12.9091 7.93147C12.9476 7.70042 13.1401 7.54639 13.3712 7.54639H25.5782C29.3519 7.54639 32.3941 10.5885 32.3941 14.3623C32.3941 19.7534 28.0042 24.1433 22.6131 24.1433H17.8381C17.607 24.1433 17.4145 24.2973 17.376 24.5284L15.6046 32.615C15.5661 32.8461 15.3736 33.0001 15.1425 33.0001Z" stroke="black" stroke-miterlimit="10" stroke-linecap="round"/>
</svg>
