<svg width="133" height="83" viewBox="0 0 133 83" fill="none" xmlns="http://www.w3.org/2000/svg">
<g filter="url(#filter0_d)">
<circle cx="67" cy="30" r="20" fill="white"/>
<g clip-path="url(#clip0)">
<path d="M76.2004 38H57.8004C57.5604 38 57.4004 37.84 57.4004 37.6V25.6C57.4004 25.36 57.5604 25.2 57.8004 25.2H76.2004C76.4404 25.2 76.6004 25.36 76.6004 25.6V37.6C76.6004 37.84 76.4404 38 76.2004 38ZM58.2004 37.2H75.8004V26H58.2004V37.2Z" fill="#3F4552"/>
<path d="M64.2008 38C63.9608 38 63.8008 37.84 63.8008 37.6V25.6C63.8008 25.36 63.9608 25.2 64.2008 25.2C64.4408 25.2 64.6008 25.36 64.6008 25.6V37.6C64.6008 37.84 64.4408 38 64.2008 38Z" fill="#3F4552"/>
<path d="M63.4012 26H58.6012C58.3612 26 58.2012 25.84 58.2012 25.6V23.2C58.2012 22.96 58.3612 22.8 58.6012 22.8H63.4012C63.6412 22.8 63.8012 22.96 63.8012 23.2V25.6C63.8012 25.84 63.6412 26 63.4012 26ZM59.0012 25.2H63.0012V23.6H59.0012V25.2Z" fill="#3F4552"/>
<path d="M68.2008 32.4C67.9608 32.4 67.8008 32.24 67.8008 32V30.8C67.8008 30.72 67.8808 30.56 67.8808 30.48L69.0808 29.28C69.1608 29.28 69.3208 29.2 69.4008 29.2H70.6008C70.8408 29.2 71.0008 29.36 71.0008 29.6C71.0008 29.84 70.8408 30 70.6008 30H69.5608L68.6008 30.96V32C68.6008 32.24 68.4408 32.4 68.2008 32.4Z" fill="#3F4552"/>
<path d="M71.8012 35.6001H68.6012C68.5212 35.6001 68.3612 35.5201 68.2812 35.5201L66.2812 33.5201C66.2812 33.4401 66.2012 33.2801 66.2012 33.2001V30.0001C66.2012 29.9201 66.2812 29.7601 66.2812 29.6801L68.2812 27.6801C68.3612 27.6801 68.5212 27.6001 68.6012 27.6001H71.8012C71.8812 27.6001 72.0412 27.6801 72.1212 27.6801L74.1212 29.6801C74.1212 29.7601 74.2012 29.9201 74.2012 30.0001V33.2001C74.2012 33.2801 74.1212 33.4401 74.1212 33.5201L72.1212 35.5201C72.0412 35.5201 71.8812 35.6001 71.8012 35.6001ZM68.7612 34.8001H71.6412L73.4012 33.0401V30.1601L71.6412 28.4001H68.7612L67.0012 30.1601V33.0401L68.7612 34.8001Z" fill="#3F4552"/>
</g>
<path d="M16.924 69.954C17.012 69.954 17.09 69.988 17.158 70.056L17.794 70.746C17.442 71.182 17.008 71.516 16.492 71.748C15.98 71.98 15.364 72.096 14.644 72.096C14 72.096 13.42 71.986 12.904 71.766C12.392 71.546 11.954 71.24 11.59 70.848C11.226 70.456 10.946 69.988 10.75 69.444C10.558 68.9 10.462 68.306 10.462 67.662C10.462 67.01 10.566 66.414 10.774 65.874C10.982 65.33 11.274 64.862 11.65 64.47C12.03 64.078 12.482 63.774 13.006 63.558C13.53 63.338 14.11 63.228 14.746 63.228C15.378 63.228 15.938 63.332 16.426 63.54C16.918 63.748 17.336 64.02 17.68 64.356L17.14 65.106C17.108 65.154 17.066 65.196 17.014 65.232C16.966 65.268 16.898 65.286 16.81 65.286C16.75 65.286 16.688 65.27 16.624 65.238C16.56 65.202 16.49 65.16 16.414 65.112C16.338 65.06 16.25 65.004 16.15 64.944C16.05 64.884 15.934 64.83 15.802 64.782C15.67 64.73 15.516 64.688 15.34 64.656C15.168 64.62 14.968 64.602 14.74 64.602C14.352 64.602 13.996 64.672 13.672 64.812C13.352 64.948 13.076 65.148 12.844 65.412C12.612 65.672 12.432 65.992 12.304 66.372C12.176 66.748 12.112 67.178 12.112 67.662C12.112 68.15 12.18 68.584 12.316 68.964C12.456 69.344 12.644 69.664 12.88 69.924C13.116 70.184 13.394 70.384 13.714 70.524C14.034 70.66 14.378 70.728 14.746 70.728C14.966 70.728 15.164 70.716 15.34 70.692C15.52 70.668 15.684 70.63 15.832 70.578C15.984 70.526 16.126 70.46 16.258 70.38C16.394 70.296 16.528 70.194 16.66 70.074C16.7 70.038 16.742 70.01 16.786 69.99C16.83 69.966 16.876 69.954 16.924 69.954ZM24.0836 68.724L23.0276 65.838C22.9756 65.71 22.9216 65.558 22.8656 65.382C22.8096 65.206 22.7536 65.016 22.6976 64.812C22.6456 65.016 22.5916 65.208 22.5356 65.388C22.4796 65.564 22.4256 65.718 22.3736 65.85L21.3236 68.724H24.0836ZM26.9336 72H25.6856C25.5456 72 25.4316 71.966 25.3436 71.898C25.2556 71.826 25.1896 71.738 25.1456 71.634L24.4976 69.864H20.9036L20.2556 71.634C20.2236 71.726 20.1616 71.81 20.0696 71.886C19.9776 71.962 19.8636 72 19.7276 72H18.4676L21.8816 63.324H23.5256L26.9336 72ZM37.8396 63.324V72H36.4176V66.396C36.4176 66.172 36.4296 65.93 36.4536 65.67L33.8316 70.596C33.7076 70.832 33.5176 70.95 33.2616 70.95H33.0336C32.7776 70.95 32.5876 70.832 32.4636 70.596L29.8116 65.652C29.8236 65.784 29.8336 65.914 29.8416 66.042C29.8496 66.17 29.8536 66.288 29.8536 66.396V72H28.4316V63.324H29.6496C29.7216 63.324 29.7836 63.326 29.8356 63.33C29.8876 63.334 29.9336 63.344 29.9736 63.36C30.0176 63.376 30.0556 63.402 30.0876 63.438C30.1236 63.474 30.1576 63.522 30.1896 63.582L32.7876 68.4C32.8556 68.528 32.9176 68.66 32.9736 68.796C33.0336 68.932 33.0916 69.072 33.1476 69.216C33.2036 69.068 33.2616 68.926 33.3216 68.79C33.3816 68.65 33.4456 68.516 33.5136 68.388L36.0756 63.582C36.1076 63.522 36.1416 63.474 36.1776 63.438C36.2136 63.402 36.2516 63.376 36.2916 63.36C36.3356 63.344 36.3836 63.334 36.4356 63.33C36.4876 63.326 36.5496 63.324 36.6216 63.324H37.8396ZM43.6214 70.74C43.9214 70.74 44.1734 70.704 44.3774 70.632C44.5814 70.56 44.7434 70.464 44.8634 70.344C44.9874 70.224 45.0754 70.084 45.1274 69.924C45.1834 69.764 45.2114 69.594 45.2114 69.414C45.2114 69.226 45.1814 69.058 45.1214 68.91C45.0614 68.758 44.9674 68.63 44.8394 68.526C44.7114 68.418 44.5454 68.336 44.3414 68.28C44.1414 68.224 43.8994 68.196 43.6154 68.196H41.9894V70.74H43.6214ZM41.9894 64.572V67.08H43.2734C43.8254 67.08 44.2414 66.98 44.5214 66.78C44.8054 66.58 44.9474 66.262 44.9474 65.826C44.9474 65.374 44.8194 65.052 44.5634 64.86C44.3074 64.668 43.9074 64.572 43.3634 64.572H41.9894ZM43.3634 63.324C43.9314 63.324 44.4174 63.378 44.8214 63.486C45.2254 63.594 45.5554 63.748 45.8114 63.948C46.0714 64.148 46.2614 64.39 46.3814 64.674C46.5014 64.958 46.5614 65.278 46.5614 65.634C46.5614 65.838 46.5314 66.034 46.4714 66.222C46.4114 66.406 46.3174 66.58 46.1894 66.744C46.0654 66.904 45.9054 67.05 45.7094 67.182C45.5174 67.314 45.2874 67.426 45.0194 67.518C46.2114 67.786 46.8074 68.43 46.8074 69.45C46.8074 69.818 46.7374 70.158 46.5974 70.47C46.4574 70.782 46.2534 71.052 45.9854 71.28C45.7174 71.504 45.3874 71.68 44.9954 71.808C44.6034 71.936 44.1554 72 43.6514 72H40.3754V63.324H43.3634ZM50.4938 72H48.8738V63.324H50.4938V72ZM57.6203 68.724L56.5643 65.838C56.5123 65.71 56.4583 65.558 56.4023 65.382C56.3463 65.206 56.2903 65.016 56.2343 64.812C56.1823 65.016 56.1283 65.208 56.0723 65.388C56.0163 65.564 55.9623 65.718 55.9103 65.85L54.8603 68.724H57.6203ZM60.4703 72H59.2223C59.0823 72 58.9683 71.966 58.8803 71.898C58.7923 71.826 58.7263 71.738 58.6823 71.634L58.0343 69.864H54.4403L53.7923 71.634C53.7603 71.726 53.6983 71.81 53.6063 71.886C53.5143 71.962 53.4003 72 53.2643 72H52.0043L55.4183 63.324H57.0623L60.4703 72ZM64.5903 67.452C64.8943 67.452 65.1583 67.414 65.3823 67.338C65.6103 67.262 65.7963 67.158 65.9403 67.026C66.0883 66.89 66.1983 66.73 66.2703 66.546C66.3423 66.362 66.3783 66.16 66.3783 65.94C66.3783 65.5 66.2323 65.162 65.9403 64.926C65.6523 64.69 65.2103 64.572 64.6143 64.572H63.5823V67.452H64.5903ZM68.7423 72H67.2843C67.0083 72 66.8083 71.892 66.6843 71.676L64.8603 68.898C64.7923 68.794 64.7163 68.72 64.6323 68.676C64.5523 68.632 64.4323 68.61 64.2723 68.61H63.5823V72H61.9683V63.324H64.6143C65.2023 63.324 65.7063 63.386 66.1263 63.51C66.5503 63.63 66.8963 63.8 67.1643 64.02C67.4363 64.24 67.6363 64.504 67.7643 64.812C67.8923 65.116 67.9563 65.452 67.9563 65.82C67.9563 66.112 67.9123 66.388 67.8243 66.648C67.7403 66.908 67.6163 67.144 67.4523 67.356C67.2923 67.568 67.0923 67.754 66.8523 67.914C66.6163 68.074 66.3463 68.2 66.0423 68.292C66.1463 68.352 66.2423 68.424 66.3303 68.508C66.4183 68.588 66.4983 68.684 66.5703 68.796L68.7423 72ZM75.4172 72H73.7972V63.324H75.4172V72ZM87.3678 63.324V72H85.9458V66.396C85.9458 66.172 85.9578 65.93 85.9818 65.67L83.3598 70.596C83.2358 70.832 83.0458 70.95 82.7898 70.95H82.5618C82.3058 70.95 82.1158 70.832 81.9918 70.596L79.3398 65.652C79.3518 65.784 79.3618 65.914 79.3698 66.042C79.3778 66.17 79.3818 66.288 79.3818 66.396V72H77.9598V63.324H79.1778C79.2498 63.324 79.3118 63.326 79.3638 63.33C79.4158 63.334 79.4618 63.344 79.5018 63.36C79.5458 63.376 79.5838 63.402 79.6158 63.438C79.6518 63.474 79.6858 63.522 79.7178 63.582L82.3158 68.4C82.3838 68.528 82.4458 68.66 82.5018 68.796C82.5618 68.932 82.6198 69.072 82.6758 69.216C82.7318 69.068 82.7898 68.926 82.8498 68.79C82.9098 68.65 82.9738 68.516 83.0418 68.388L85.6038 63.582C85.6358 63.522 85.6698 63.474 85.7058 63.438C85.7418 63.402 85.7798 63.376 85.8198 63.36C85.8638 63.344 85.9118 63.334 85.9638 63.33C86.0158 63.326 86.0778 63.324 86.1498 63.324H87.3678ZM94.4875 68.724L93.4315 65.838C93.3795 65.71 93.3255 65.558 93.2695 65.382C93.2135 65.206 93.1575 65.016 93.1015 64.812C93.0495 65.016 92.9955 65.208 92.9395 65.388C92.8835 65.564 92.8295 65.718 92.7775 65.85L91.7275 68.724H94.4875ZM97.3375 72H96.0895C95.9495 72 95.8355 71.966 95.7475 71.898C95.6595 71.826 95.5935 71.738 95.5495 71.634L94.9015 69.864H91.3075L90.6595 71.634C90.6275 71.726 90.5655 71.81 90.4735 71.886C90.3815 71.962 90.2675 72 90.1315 72H88.8715L92.2855 63.324H93.9295L97.3375 72ZM105.73 67.65V71.16C105.29 71.484 104.82 71.722 104.32 71.874C103.824 72.022 103.292 72.096 102.724 72.096C102.016 72.096 101.374 71.986 100.798 71.766C100.226 71.546 99.7357 71.24 99.3277 70.848C98.9237 70.456 98.6117 69.988 98.3917 69.444C98.1717 68.9 98.0617 68.306 98.0617 67.662C98.0617 67.01 98.1677 66.412 98.3797 65.868C98.5917 65.324 98.8917 64.856 99.2797 64.464C99.6717 64.072 100.146 63.768 100.702 63.552C101.258 63.336 101.882 63.228 102.574 63.228C102.926 63.228 103.254 63.256 103.558 63.312C103.866 63.368 104.15 63.446 104.41 63.546C104.674 63.642 104.914 63.76 105.13 63.9C105.346 64.04 105.544 64.194 105.724 64.362L105.262 65.094C105.19 65.21 105.096 65.282 104.98 65.31C104.864 65.334 104.738 65.304 104.602 65.22C104.47 65.144 104.338 65.068 104.206 64.992C104.074 64.916 103.926 64.85 103.762 64.794C103.602 64.738 103.42 64.692 103.216 64.656C103.016 64.62 102.784 64.602 102.52 64.602C102.092 64.602 101.704 64.674 101.356 64.818C101.012 64.962 100.718 65.168 100.474 65.436C100.23 65.704 100.042 66.026 99.9097 66.402C99.7777 66.778 99.7117 67.198 99.7117 67.662C99.7117 68.158 99.7817 68.602 99.9217 68.994C100.066 69.382 100.266 69.712 100.522 69.984C100.782 70.252 101.094 70.458 101.458 70.602C101.822 70.742 102.228 70.812 102.676 70.812C102.996 70.812 103.282 70.778 103.534 70.71C103.786 70.642 104.032 70.55 104.272 70.434V68.862H103.18C103.076 68.862 102.994 68.834 102.934 68.778C102.878 68.718 102.85 68.646 102.85 68.562V67.65H105.73ZM109.505 64.608V67.014H112.541V68.256H109.505V70.71H113.357V72H107.885V63.324H113.357V64.608H109.505ZM122.701 63.324V72H121.873C121.745 72 121.637 71.98 121.549 71.94C121.465 71.896 121.383 71.824 121.303 71.724L116.773 65.94C116.797 66.204 116.809 66.448 116.809 66.672V72H115.387V63.324H116.233C116.301 63.324 116.359 63.328 116.407 63.336C116.459 63.34 116.503 63.352 116.539 63.372C116.579 63.388 116.617 63.414 116.653 63.45C116.689 63.482 116.729 63.526 116.773 63.582L121.321 69.39C121.309 69.25 121.299 69.112 121.291 68.976C121.283 68.84 121.279 68.714 121.279 68.598V63.324H122.701Z" fill="white"/>
</g>
<defs>
<filter id="filter0_d" x="0.462891" y="0" width="132.239" height="82.096" filterUnits="userSpaceOnUse" color-interpolation-filters="sRGB">
<feFlood flood-opacity="0" result="BackgroundImageFix"/>
<feColorMatrix in="SourceAlpha" type="matrix" values="0 0 0 0 0 0 0 0 0 0 0 0 0 0 0 0 0 0 127 0"/>
<feOffset/>
<feGaussianBlur stdDeviation="5"/>
<feColorMatrix type="matrix" values="0 0 0 0 0 0 0 0 0 0 0 0 0 0 0 0 0 0 0.25 0"/>
<feBlend mode="normal" in2="BackgroundImageFix" result="effect1_dropShadow"/>
<feBlend mode="normal" in="SourceGraphic" in2="effect1_dropShadow" result="shape"/>
</filter>
<clipPath id="clip0">
<rect width="19.2" height="15.2" fill="white" transform="translate(57.4004 22.8)"/>
</clipPath>
</defs>
</svg>
