<svg width="82" height="82" viewBox="0 0 82 82" fill="none" xmlns="http://www.w3.org/2000/svg">
<g clip-path="url(#clip0)">
<path d="M78.4348 35.378C77.2007 34.1439 75.8294 32.9097 75.5552 31.6756C75.1438 30.4415 75.6923 28.5218 76.2408 26.8763C76.9264 24.5452 77.4749 22.2141 76.5151 20.4315C75.4181 18.6489 73.087 17.9633 70.7559 17.4148C68.9732 17.0034 67.1906 16.592 66.2308 15.6321C65.2709 14.6723 64.8595 12.8897 64.4482 11.1071C63.8997 8.77596 63.2141 6.44486 61.4314 5.34787C59.9231 4.388 57.3177 4.93649 54.9866 5.62211C53.204 6.17061 51.2843 6.58198 50.1873 6.30773C48.9532 6.03348 47.7191 4.66225 46.485 3.42813C44.8395 1.64552 43.0569 -0.137085 41 -0.137085C38.9431 -0.137085 37.1605 1.64552 35.5151 3.42813C34.2809 4.79937 32.9097 6.03348 31.6756 6.44485C30.4415 6.7191 28.6589 6.30773 26.8763 5.75924C24.5452 5.07362 22.0769 4.52512 20.4314 5.48499C18.6488 6.58198 17.9632 8.91308 17.4147 11.2442C17.0033 13.0268 16.592 14.8094 15.6321 15.7693C14.6722 16.7291 12.8896 17.1405 11.107 17.5519C8.77592 18.1004 6.44482 18.786 5.34783 20.5686C4.38796 22.3512 4.93645 24.6823 5.62207 27.0134C6.17057 28.796 6.58194 30.5786 6.30769 31.8127C6.03344 32.9097 4.79933 34.281 3.56522 35.378C1.78261 37.0235 0 38.8061 0 40.8629C0 42.9198 1.78261 44.7024 3.56522 46.3479C4.79933 47.582 6.17057 48.8161 6.44482 50.0502C6.85619 51.2843 6.30769 53.2041 5.7592 54.8495C5.07358 57.1806 4.52508 59.5117 5.48495 61.2944C6.58194 63.077 8.91304 63.7626 11.2441 64.3111C13.0268 64.7225 14.8094 65.1338 15.7692 66.0937C16.7291 67.0536 17.1405 68.8362 17.5518 70.6188C18.1003 72.9499 18.786 75.281 20.5686 76.378C22.0769 77.3378 24.6823 76.7893 27.0134 76.1037C28.796 75.5552 30.7157 75.1439 31.8127 75.4181C33.0468 75.6923 34.2809 77.0636 35.5151 78.2977C37.1605 80.0803 38.9431 81.8629 41 81.8629C43.0569 81.8629 44.8395 80.0803 46.485 78.2977C47.7191 77.0636 48.9532 75.6923 50.1873 75.4181C51.4214 75.1439 53.204 75.5552 54.9866 76.1037C57.3177 76.7893 59.786 77.3378 61.4314 76.378C63.2141 75.281 63.8997 72.9499 64.4482 70.6188C64.8595 68.8362 65.2709 67.0536 66.2308 66.0937C67.1906 65.1338 68.9732 64.7225 70.7559 64.3111C73.087 63.7626 75.4181 63.077 76.5151 61.2944C77.4749 59.5117 76.9264 57.1806 76.2408 54.8495C75.6923 53.0669 75.2809 51.2843 75.5552 50.0502C75.8294 48.8161 77.2007 47.582 78.4348 46.3479C80.2174 44.7024 82 42.9198 82 40.8629C82 38.8061 80.2174 37.1606 78.4348 35.378ZM77.4749 45.5251C76.1037 46.8964 74.5953 48.2676 74.1839 49.9131C73.7726 51.5586 74.3211 53.6154 74.8696 55.5352C75.4181 57.592 75.9666 59.6489 75.2809 60.883C74.5953 62.2542 72.4013 62.6656 70.3445 63.2141C68.4248 63.7626 66.505 64.174 65.2709 65.4081C64.0368 66.6422 63.6254 68.5619 63.0769 70.4816C62.5284 72.5385 61.9799 74.5954 60.7458 75.4181C59.6488 76.1037 57.4549 75.5552 55.398 75.0067C53.4783 74.4582 51.4214 73.9097 49.7759 74.3211C48.1304 74.7325 46.7592 76.2408 45.388 77.6121C43.8796 79.1204 42.3712 80.7659 40.8629 80.7659C39.3545 80.7659 37.709 79.1204 36.3378 77.6121C34.9666 76.2408 33.5953 74.7325 31.9498 74.3211C31.5385 74.184 31.1271 74.184 30.5786 74.184C29.2074 74.184 27.699 74.5954 26.3278 75.0067C24.2709 75.5552 22.0769 76.1037 20.9799 75.4181C19.6087 74.7325 19.1973 72.5385 18.6488 70.4816C18.1003 68.5619 17.689 66.6422 16.4548 65.4081C15.2207 64.174 13.301 63.7626 11.3813 63.2141C9.32442 62.6656 7.26756 62.1171 6.44482 60.883C5.7592 59.6489 6.30769 57.592 6.85619 55.5352C7.40468 53.6154 7.95318 51.6957 7.54181 49.9131C7.13043 48.2676 5.62207 46.8964 4.25084 45.5251C3.01672 44.0168 1.37124 42.5084 1.37124 41C1.37124 39.4917 3.01672 37.8462 4.52508 36.475C5.89632 35.1037 7.40468 33.7325 7.81605 32.087C8.22742 30.4415 7.67893 28.3847 7.13043 26.4649C6.58194 24.4081 6.03345 22.3512 6.71906 21.1171C7.40468 19.7459 9.59866 19.3345 11.6555 18.786C13.5753 18.2375 15.495 17.8261 16.7291 16.592C17.9632 15.3579 18.3746 13.4382 18.9231 11.5184C19.4716 9.46158 20.0201 7.40472 21.2542 6.58198C22.3512 5.89636 24.5452 6.44485 26.602 6.99335C28.5217 7.54184 30.5786 8.09034 32.2241 7.67897C33.8696 7.2676 35.2408 5.75924 36.612 4.388C37.8462 3.01676 39.4916 1.37128 41 1.37128C42.5084 1.37128 44.1539 3.01676 45.5251 4.52512C46.8963 5.89636 48.2676 7.40472 49.913 7.81609C51.4214 8.22746 53.4783 7.67897 55.5351 7.13047C57.592 6.58198 59.786 6.03348 60.8829 6.7191C62.2542 7.40472 62.6656 9.5987 63.214 11.6556C63.7625 13.5753 64.1739 15.495 65.408 16.7291C66.6421 17.9633 68.5619 18.3746 70.4816 18.9231C72.5385 19.4716 74.5953 20.0201 75.4181 21.2542C76.1037 22.4883 75.5552 24.5452 75.0067 26.602C74.4582 28.5218 73.9097 30.4415 74.3211 32.2241C74.7324 33.8696 76.2408 35.2408 77.612 36.6121C79.1204 38.1204 80.7659 39.6288 80.7659 41.1372C80.7659 42.6455 78.9833 44.0168 77.4749 45.5251Z" fill="#BC955C"/>
<path d="M28.6589 37.1606L26.3278 37.7091C26.0535 37.7091 26.0535 37.9833 26.0535 38.1204L27.5619 44.9766L18.1003 39.3545L17.5518 39.4917C17.4147 39.4917 17.2776 39.7659 17.2776 39.903L20.2943 52.9298C20.2943 53.0669 20.5686 53.204 20.7057 53.204L23.0368 52.6555C23.311 52.6555 23.311 52.3813 23.311 52.2442L21.6655 44.9766L31.1271 50.8729H31.4013L31.6756 50.7358C31.8127 50.7358 31.9498 50.4616 31.9498 50.3244L28.9331 37.2977C29.0702 37.1606 28.796 37.0234 28.6589 37.1606Z" fill="#BC955C"/>
<path d="M44.1538 44.8395L38.806 46.0736L38.2575 43.4683L42.6455 42.5084C42.7826 42.5084 42.9197 42.2341 42.9197 42.097L42.3712 40.0402C42.3712 39.903 42.097 39.7659 41.9599 39.7659L37.5719 40.7258L37.0234 38.3947L42.3712 37.1606C42.6455 37.1606 42.6455 36.8863 42.6455 36.7492L42.097 34.6923C42.097 34.5552 41.8227 34.4181 41.6856 34.4181L33.7324 36.2007C33.4582 36.2007 33.4582 36.4749 33.4582 36.6121L36.3378 49.3646C36.3378 49.5017 36.612 49.6388 36.7492 49.6388L44.7023 47.8562C44.9766 47.8562 44.9766 47.582 44.9766 47.4448L44.4281 45.388C44.5652 44.9766 44.291 44.8395 44.1538 44.8395Z" fill="#BC955C"/>
<path d="M60.4716 29.893L58.2776 30.4415C58.1405 30.4415 58.0033 30.7158 58.0033 30.8529L57.8662 37.8462H57.7291L53.0669 31.5385C53.0669 31.4014 52.9298 31.4014 52.6555 31.4014L52.3813 31.5385C52.2441 31.5385 52.107 31.6756 52.107 31.8128L50.7358 39.3546H50.5987L47.4448 33.184C47.3077 32.9098 47.1706 32.9098 47.0334 32.9098L44.7023 33.4582C44.4281 33.4582 44.291 33.7325 44.4281 34.0067L51.01 46.2108C51.1472 46.3479 51.2843 46.485 51.4214 46.3479L51.6957 46.2108C51.8328 46.2108 51.9699 46.0736 51.9699 45.9365L53.6154 37.1606L58.9632 44.291C59.1003 44.4281 59.2375 44.4281 59.3746 44.4281L59.6488 44.291C59.786 44.291 59.9231 44.1539 59.9231 43.8797L60.8829 30.1673C60.8829 29.893 60.7458 29.7559 60.4716 29.893Z" fill="#BC955C"/>
</g>
<defs>
<clipPath id="clip0">
<rect width="82" height="82" fill="white"/>
</clipPath>
</defs>
</svg>
