<svg width="54" height="54" viewBox="0 0 54 54" fill="none" xmlns="http://www.w3.org/2000/svg">
<path d="M29.8637 30.0913L23.5811 36.5105" stroke="black" stroke-miterlimit="10" stroke-linecap="round"/>
<path d="M26.9044 52.9C30.5251 52.9 33.4602 49.9649 33.4602 46.3442C33.4602 42.7235 30.5251 39.7884 26.9044 39.7884C23.2838 39.7884 20.3486 42.7235 20.3486 46.3442C20.3486 49.9649 23.2838 52.9 26.9044 52.9Z" stroke="black" stroke-miterlimit="10" stroke-linecap="round"/>
<path d="M14.1119 50.214C16.2491 50.214 17.9817 48.4814 17.9817 46.3442C17.9817 44.207 16.2491 42.4745 14.1119 42.4745C11.9747 42.4745 10.2422 44.207 10.2422 46.3442C10.2422 48.4814 11.9747 50.214 14.1119 50.214Z" stroke="black" stroke-miterlimit="10" stroke-linecap="round"/>
<path d="M39.8795 50.2139C42.0167 50.2139 43.7492 48.4814 43.7492 46.3442C43.7492 44.207 42.0167 42.4745 39.8795 42.4745C37.7423 42.4745 36.0098 44.207 36.0098 46.3442C36.0098 48.4814 37.7423 50.2139 39.8795 50.2139Z" stroke="black" stroke-miterlimit="10" stroke-linecap="round"/>
<path d="M20.3942 33.2782C9.69553 33.2782 1 24.6282 1 13.9295V1" stroke="black" stroke-miterlimit="10" stroke-linecap="round"/>
<path d="M33.415 33.2782C44.1137 33.2782 52.7637 24.6282 52.7637 13.9295V1" stroke="black" stroke-miterlimit="10" stroke-linecap="round"/>
</svg>
