<svg width="42" height="43" viewBox="0 0 42 43" fill="none" xmlns="http://www.w3.org/2000/svg">
<path d="M41.3554 41.611V25.7058C41.3554 23.4084 39.4853 21.5352 37.1917 21.5352H5.40007C3.07127 21.4998 1.20117 23.3731 1.20117 25.7058V41.5757" stroke="black" stroke-miterlimit="10" stroke-linecap="round"/>
<path d="M1.20117 16.3749V5.59471C1.20117 3.26195 3.07127 1.38867 5.40007 1.38867H37.1917C39.4853 1.38867 41.3554 3.26195 41.3554 5.55936V16.3749" stroke="black" stroke-miterlimit="10" stroke-linecap="round"/>
<path d="M15.1398 16.4101H7.41245C6.77732 16.4101 6.24805 15.8799 6.24805 15.2437V12.5575C6.24805 11.9213 6.77732 11.3911 7.41245 11.3911H15.1398C15.775 11.3911 16.3042 11.9213 16.3042 12.5575V15.2437C16.3042 15.9152 15.775 16.4101 15.1398 16.4101Z" stroke="black" stroke-miterlimit="10" stroke-linecap="round"/>
<path d="M35.1457 16.4101H27.4183C26.7832 16.4101 26.2539 15.8799 26.2539 15.2437V12.5575C26.2539 11.9213 26.7832 11.3911 27.4183 11.3911H35.1457C35.7808 11.3911 36.3101 11.9213 36.3101 12.5575V15.2437C36.3101 15.9152 35.7808 16.4101 35.1457 16.4101Z" stroke="black" stroke-miterlimit="10" stroke-linecap="round"/>
<path d="M16.3027 36.5215H26.2531" stroke="black" stroke-miterlimit="10" stroke-linecap="round"/>
<path d="M1.27051 36.5215H11.2561" stroke="black" stroke-miterlimit="10" stroke-linecap="round"/>
<path d="M31.2979 36.5215H41.2835" stroke="black" stroke-miterlimit="10" stroke-linecap="round"/>
<path d="M1.20117 26.519H41.3554" stroke="black" stroke-miterlimit="10" stroke-linecap="round"/>
</svg>
