<svg width="52" height="64" viewBox="0 0 52 64" fill="none" xmlns="http://www.w3.org/2000/svg">
<path d="M16.1746 22.5923L10.1396 28.7147" stroke="black" stroke-miterlimit="10" stroke-linecap="round"/>
<path d="M28.7691 22.5923L22.6904 28.7147" stroke="black" stroke-miterlimit="10" stroke-linecap="round"/>
<path d="M41.3201 22.5923L35.2852 28.7147" stroke="black" stroke-miterlimit="10" stroke-linecap="round"/>
<path d="M19.5425 63H31.9622" stroke="black" stroke-miterlimit="10" stroke-linecap="round"/>
<path d="M13.4197 63H5.06701C2.79298 63 1 61.1633 1 58.933V31.9508" stroke="black" stroke-miterlimit="10" stroke-linecap="round"/>
<path d="M38.0403 63H46.4367C48.7107 63 50.5037 61.1633 50.5037 58.933V31.9508" stroke="black" stroke-miterlimit="10" stroke-linecap="round"/>
<path d="M1.21838 19.3562L25.6204 1.0328C25.6642 0.989067 25.7079 0.989067 25.7516 1.0328L50.1537 19.3562" stroke="black" stroke-miterlimit="10" stroke-linecap="round"/>
<path d="M29.6005 38.2044C27.7201 38.2044 26.2332 39.6475 25.7522 41.0906C25.2711 39.6475 23.828 38.2044 21.9476 38.2044C18.2304 38.2044 17.6182 45.2451 25.7522 50.5803C33.9299 45.2451 33.3177 38.2044 29.6005 38.2044Z" stroke="black" stroke-miterlimit="10" stroke-linecap="round"/>
</svg>
