<svg width="26" height="26" viewBox="0 0 26 26" fill="none" xmlns="http://www.w3.org/2000/svg">
<rect width="25.6522" height="25.6522" rx="12.8261" fill="#E5E5E5"/>
<path d="M15.07 7.90942H9.72581C8.25005 7.90942 7.05371 9.10576 7.05371 10.5815V15.9257C7.05371 17.4015 8.25005 18.5978 9.72581 18.5978H15.07C16.5458 18.5978 17.7421 17.4015 17.7421 15.9257V10.5815C17.7421 9.10576 16.5458 7.90942 15.07 7.90942Z" stroke="white" stroke-width="2" stroke-linecap="round" stroke-linejoin="round"/>
<path d="M14.5364 12.9169C14.6024 13.3617 14.5264 13.8159 14.3193 14.215C14.1122 14.6141 13.7846 14.9378 13.3829 15.1399C12.9813 15.3421 12.5262 15.4124 12.0822 15.341C11.6383 15.2696 11.2282 15.06 10.9103 14.742C10.5924 14.4241 10.3828 14.014 10.3113 13.5701C10.2399 13.1261 10.3103 12.671 10.5124 12.2694C10.7146 11.8677 11.0382 11.5401 11.4373 11.333C11.8364 11.1259 12.2907 11.0499 12.7354 11.1159C13.1891 11.1832 13.6091 11.3946 13.9334 11.7189C14.2577 12.0432 14.4691 12.4632 14.5364 12.9169Z" stroke="white" stroke-width="2" stroke-linecap="round" stroke-linejoin="round"/>
<path d="M15.3379 10.3143H15.3432" stroke="white" stroke-width="2" stroke-linecap="round" stroke-linejoin="round"/>
</svg>
