<svg width="15" height="15" viewBox="0 0 15 15" fill="none" xmlns="http://www.w3.org/2000/svg">
<path d="M6.25 8.12504C6.51841 8.48387 6.86085 8.78078 7.25409 8.99563C7.64734 9.21048 8.08219 9.33824 8.52916 9.37025C8.97612 9.40226 9.42474 9.33777 9.84459 9.18115C10.2644 9.02454 10.6457 8.77946 10.9625 8.46254L12.8375 6.58754C13.4067 5.99816 13.7217 5.20878 13.7146 4.38941C13.7075 3.57005 13.3788 2.78626 12.7994 2.20686C12.22 1.62746 11.4362 1.2988 10.6169 1.29168C9.79751 1.28456 9.00813 1.59955 8.41875 2.16879L7.34375 3.23754" stroke="black" stroke-width="0.5" stroke-linecap="round" stroke-linejoin="round"/>
<path d="M8.74988 6.87502C8.48147 6.51619 8.13903 6.21928 7.74579 6.00443C7.35254 5.78958 6.91769 5.66182 6.47072 5.62981C6.02376 5.5978 5.57514 5.66229 5.15529 5.81891C4.73544 5.97552 4.35418 6.2206 4.03738 6.53752L2.16238 8.41252C1.59314 9.0019 1.27815 9.79128 1.28527 10.6106C1.29239 11.43 1.62105 12.2138 2.20045 12.7932C2.77985 13.3726 3.56364 13.7013 4.383 13.7084C5.20237 13.7155 5.99175 13.4005 6.58113 12.8313L7.64988 11.7625" stroke="black" stroke-width="0.5" stroke-linecap="round" stroke-linejoin="round"/>
</svg>
