<svg width="51" height="63" viewBox="0 0 51 63" fill="none" xmlns="http://www.w3.org/2000/svg">
<path d="M16.2141 10.1973L10.2831 16.2572" stroke="black" stroke-miterlimit="10" stroke-linecap="round"/>
<path d="M28.5489 10.1973L22.6179 16.2572" stroke="black" stroke-miterlimit="10" stroke-linecap="round"/>
<path d="M40.9267 10.1973L34.9527 16.2572" stroke="black" stroke-miterlimit="10" stroke-linecap="round"/>
<path d="M16.2141 46.7287L10.2831 52.7886" stroke="black" stroke-miterlimit="10" stroke-linecap="round"/>
<path d="M28.5489 46.7287L22.6179 52.7886" stroke="black" stroke-miterlimit="10" stroke-linecap="round"/>
<path d="M40.9267 46.7287L34.9527 52.7886" stroke="black" stroke-miterlimit="10" stroke-linecap="round"/>
<path d="M13.2488 61.9H2.11743C1.60169 61.9 1.30085 61.3843 1.51574 60.9115L6.02844 52.144C6.75907 50.7687 6.63013 49.0925 5.77057 47.8032C3.92251 45.1815 1 39.6803 1 31.4715C1 23.3056 3.87953 17.8044 5.77057 15.0968C6.67311 13.8075 6.75907 12.1313 6.02844 10.756L1.51574 1.9885C1.30085 1.55872 1.60169 1 2.11743 1H13.2058" stroke="black" stroke-miterlimit="10" stroke-linecap="round"/>
<path d="M37.7035 61.9H48.7918C49.3076 61.9 49.6084 61.3843 49.3935 60.9115L44.8808 52.144C44.1502 50.7687 44.2791 49.0925 45.1387 47.8032C46.9868 45.0956 49.9093 39.5944 49.9093 31.4285V31.4715C49.9093 23.3056 47.0297 17.8044 45.1387 15.0968C44.2362 13.8075 44.1502 12.1313 44.8808 10.756L49.3935 1.9885C49.6084 1.55872 49.3076 1 48.7918 1H37.7035" stroke="black" stroke-miterlimit="10" stroke-linecap="round"/>
<path d="M19.3517 61.9H31.5146" stroke="black" stroke-miterlimit="10" stroke-linecap="round"/>
<path d="M19.3517 1H31.5146" stroke="black" stroke-miterlimit="10" stroke-linecap="round"/>
</svg>
