<svg width="181" height="92" viewBox="0 0 181 92" fill="none" xmlns="http://www.w3.org/2000/svg">
<path d="M11.118 43.5518V45.9815H1.00656V32.916H10.8435V35.3457H3.98052V38.1881H10.0657V40.5261H4.02628V43.5518H11.118Z" fill="#BC955C"/>
<path d="M16.1051 45.3396C15.0528 44.7436 14.1835 43.9643 13.5887 42.9099C12.9939 41.9013 12.6736 40.7094 12.6736 39.4258C12.6736 38.1421 12.9939 36.9502 13.5887 35.9416C14.1835 34.9331 15.0528 34.1079 16.1051 33.5119C17.1575 32.9159 18.3928 32.6409 19.7197 32.6409C20.8635 32.6409 21.8701 32.8242 22.7851 33.2368C23.7002 33.6494 24.478 34.1996 25.0728 34.9331L23.1511 36.721C22.2818 35.7124 21.1838 35.2081 19.8569 35.2081C19.0334 35.2081 18.3471 35.3915 17.7065 35.7583C17.066 36.125 16.5627 36.6293 16.2424 37.2253C15.8764 37.8671 15.6934 38.6006 15.6934 39.3799C15.6934 40.2051 15.8764 40.8928 16.2424 41.5346C16.6084 42.1764 17.1117 42.6807 17.7065 43.0016C18.3471 43.3683 19.0791 43.5517 19.8569 43.5517C21.138 43.5517 22.2361 43.0474 23.1511 41.993L25.0728 43.7809C24.4322 44.5603 23.7002 45.1104 22.7851 45.523C21.8701 45.9356 20.8635 46.119 19.7197 46.119C18.3928 46.2106 17.2032 45.8897 16.1051 45.3396Z" fill="#BC955C"/>
<path d="M29.5108 45.3396C28.4128 44.7436 27.5892 43.9643 26.9487 42.9099C26.3539 41.9013 26.0336 40.7094 26.0336 39.4258C26.0336 38.1421 26.3539 36.996 26.9487 35.9416C27.5435 34.9331 28.4128 34.1079 29.5108 33.5119C30.6089 32.9159 31.7985 32.6409 33.1711 32.6409C34.5437 32.6409 35.7333 32.9159 36.8314 33.5119C37.9295 34.1079 38.753 34.8872 39.3936 35.9416C40.0341 36.9502 40.3086 38.1421 40.3086 39.4258C40.3086 40.7094 39.9883 41.8555 39.3936 42.9099C38.753 43.9185 37.9295 44.7436 36.8314 45.3396C35.7333 45.9356 34.5437 46.2106 33.1711 46.2106C31.7985 46.2106 30.6089 45.8897 29.5108 45.3396ZM35.2758 43.0933C35.9163 42.7265 36.3738 42.2222 36.7399 41.6263C37.1059 40.9845 37.2889 40.2509 37.2889 39.4716C37.2889 38.6464 37.1059 37.9588 36.7399 37.3169C36.3738 36.6751 35.9163 36.1708 35.2758 35.8499C34.6352 35.4832 33.9489 35.2998 33.1711 35.2998C32.3933 35.2998 31.707 35.4832 31.0665 35.8499C30.4259 36.2167 29.9684 36.721 29.6024 37.3169C29.2363 37.9588 29.0533 38.6923 29.0533 39.4716C29.0533 40.2968 29.2363 40.9845 29.6024 41.6263C29.9684 42.2681 30.4259 42.7724 31.0665 43.0933C31.707 43.46 32.3933 43.6434 33.1711 43.6434C33.9489 43.6434 34.6352 43.46 35.2758 43.0933Z" fill="#BC955C"/>
<path d="M54.5379 32.916V45.9815H52.0672L45.5703 38.0505V45.9815H42.5963V32.916H45.1127L51.6097 40.847V32.916H54.5379Z" fill="#BC955C"/>
<path d="M60.3028 45.3396C59.2047 44.7436 58.3812 43.9643 57.7406 42.9099C57.1458 41.9013 56.8256 40.7094 56.8256 39.4258C56.8256 38.1421 57.1458 36.996 57.7406 35.9416C58.3354 34.9331 59.2047 34.1079 60.3028 33.5119C61.4009 32.9159 62.5905 32.6409 63.9631 32.6409C65.3357 32.6409 66.5253 32.9159 67.6233 33.5119C68.7214 34.1079 69.545 34.8872 70.1855 35.9416C70.8261 36.9502 71.1006 38.1421 71.1006 39.4258C71.1006 40.7094 70.7803 41.8555 70.1855 42.9099C69.545 43.9185 68.7214 44.7436 67.6233 45.3396C66.5253 45.9356 65.3357 46.2106 63.9631 46.2106C62.5905 46.2106 61.3551 45.8897 60.3028 45.3396ZM66.022 43.0933C66.6625 42.7265 67.1201 42.2222 67.4861 41.6263C67.8521 40.9845 68.0351 40.2509 68.0351 39.4716C68.0351 38.6464 67.8521 37.9588 67.4861 37.3169C67.1201 36.6751 66.6625 36.1708 66.022 35.8499C65.3814 35.4832 64.6951 35.2998 63.9173 35.2998C63.1395 35.2998 62.4532 35.4832 61.8127 35.8499C61.1721 36.2167 60.7146 36.721 60.3486 37.3169C59.9825 37.9588 59.7995 38.6923 59.7995 39.4716C59.7995 40.2968 59.9825 40.9845 60.3486 41.6263C60.7146 42.2681 61.1721 42.7724 61.8127 43.0933C62.4532 43.46 63.1395 43.6434 63.9173 43.6434C64.6951 43.6434 65.4272 43.46 66.022 43.0933Z" fill="#BC955C"/>
<path d="M85.1926 45.9815V38.1422L81.3494 44.6062H79.9768L76.1792 38.3256V45.9815H73.3425V32.916H75.859L80.7546 41.0304L85.5587 32.916H88.0293L88.0751 45.9815H85.1926Z" fill="#BC955C"/>
<path d="M93.474 29.1567H96.5852L93.1994 31.8615H90.9118L93.474 29.1567ZM91.1405 32.9159H94.1603V45.9814H91.1405V32.9159Z" fill="#BC955C"/>
<path d="M105.827 43.185H99.7879L98.6441 45.9815H95.5329L101.344 32.916H104.318L110.128 45.9815H106.971L105.827 43.185ZM104.867 40.8928L102.808 35.8959L100.749 40.8928H104.867Z" fill="#BC955C"/>
<path d="M2.33342 68.1699C1.3726 67.8949 0.594793 67.5281 0 67.0697L1.00657 64.7775C1.55561 65.1901 2.24191 65.511 3.01972 65.7861C3.79752 66.0611 4.57533 66.1528 5.30738 66.1528C6.17669 66.1528 6.81724 66.0153 7.22902 65.7861C7.6408 65.511 7.82381 65.1901 7.82381 64.7775C7.82381 64.4566 7.68655 64.2274 7.45779 63.9981C7.22902 63.8148 6.90875 63.6314 6.54272 63.4939C6.17669 63.3563 5.67341 63.2188 4.98711 63.0813C3.98054 62.852 3.20273 62.6228 2.56218 62.3936C1.92164 62.1644 1.3726 61.7976 0.915066 61.2475C0.457533 60.7432 0.228766 60.0097 0.228766 59.1387C0.228766 58.3594 0.41178 57.6717 0.823559 57.0757C1.23534 56.4798 1.83013 55.9755 2.69944 55.6087C3.523 55.242 4.52958 55.0586 5.71916 55.0586C6.54272 55.0586 7.36628 55.1503 8.14408 55.3795C8.92189 55.5629 9.65394 55.8838 10.2487 56.2505L9.33367 58.5427C8.14408 57.8551 6.90875 57.5342 5.71916 57.5342C4.8956 57.5342 4.25506 57.6717 3.84328 57.9468C3.4315 58.2218 3.24848 58.5886 3.24848 59.047C3.24848 59.5054 3.47725 59.8264 3.93478 60.0556C4.39232 60.2848 5.12437 60.4682 6.08519 60.6974C7.09176 60.9266 7.86957 61.1558 8.51011 61.385C9.15066 61.6143 9.6997 61.981 10.1572 62.4853C10.6148 62.9896 10.8435 63.6772 10.8435 64.5483C10.8435 65.2818 10.6148 65.9694 10.203 66.6112C9.7912 67.2072 9.15066 67.7115 8.3271 68.0782C7.50354 68.445 6.49697 68.6284 5.30738 68.6284C4.25506 68.5825 3.29424 68.445 2.33342 68.1699Z" fill="#BC955C"/>
<path d="M15.5561 67.7114C14.458 67.1155 13.6345 66.3361 12.9939 65.2817C12.3991 64.2732 12.0789 63.0812 12.0789 61.7976C12.0789 60.514 12.3991 59.3679 12.9939 58.3135C13.5887 57.3049 14.458 56.4797 15.5561 55.8837C16.6542 55.2878 17.8438 55.0127 19.2164 55.0127C20.589 55.0127 21.7786 55.2878 22.8766 55.8837C23.9747 56.4797 24.7983 57.259 25.4388 58.3135C26.0794 59.322 26.3539 60.514 26.3539 61.7976C26.3539 63.0812 26.0336 64.2273 25.4388 65.2817C24.7983 66.2903 23.9747 67.1155 22.8766 67.7114C21.7786 68.3074 20.589 68.5825 19.2164 68.5825C17.8895 68.5825 16.6542 68.3074 15.5561 67.7114ZM21.321 65.4651C21.9616 65.0983 22.4191 64.5941 22.7851 63.9981C23.1512 63.3563 23.3342 62.6228 23.3342 61.8434C23.3342 61.0182 23.1512 60.3306 22.7851 59.6888C22.4191 59.047 21.9616 58.5427 21.321 58.2218C20.6805 57.855 19.9942 57.6716 19.2164 57.6716C18.4386 57.6716 17.7523 57.855 17.1117 58.2218C16.4712 58.5885 16.0136 59.0928 15.6476 59.6888C15.2816 60.2847 15.0986 61.0641 15.0986 61.8434C15.0986 62.6686 15.2816 63.3563 15.6476 63.9981C16.0136 64.6399 16.4712 65.1442 17.1117 65.4651C17.7523 65.8318 18.4386 66.0152 19.2164 66.0152C19.9942 66.0152 20.6805 65.8318 21.321 65.4651Z" fill="#BC955C"/>
<path d="M31.2495 67.7114C30.1972 67.1155 29.3279 66.3361 28.7331 65.2817C28.1383 64.2731 27.818 63.0812 27.818 61.7976C27.818 60.514 28.1383 59.322 28.7331 58.3134C29.3279 57.3049 30.1972 56.4797 31.2495 55.8837C32.3018 55.2878 33.5372 55.0127 34.864 55.0127C36.0078 55.0127 37.0144 55.1961 37.9295 55.6087C38.8445 56.0213 39.6223 56.5714 40.2171 57.3049L38.2955 59.0928C37.4262 58.0842 36.3281 57.5799 35.0013 57.5799C34.1777 57.5799 33.4914 57.7633 32.8509 58.1301C32.2103 58.4968 31.707 59.0011 31.3868 59.5971C31.0665 60.193 30.8377 60.9724 30.8377 61.7517C30.8377 62.5769 31.0207 63.2646 31.3868 63.9064C31.7528 64.5482 32.2561 65.0525 32.8509 65.3734C33.4914 65.7402 34.2235 65.9235 35.0013 65.9235C36.2824 65.9235 37.3804 65.4192 38.2955 64.3648L40.2171 66.1527C39.5766 66.9321 38.8445 67.4822 37.9295 67.8948C37.0144 68.3074 36.0078 68.4908 34.864 68.4908C33.5372 68.5825 32.3476 68.3074 31.2495 67.7114Z" fill="#BC955C"/>
<path d="M42.276 55.2876H45.2957V68.3531H42.276V55.2876Z" fill="#BC955C"/>
<path d="M56.9628 65.5566H50.9234L49.7796 68.3531H46.6683L52.479 55.2876H55.453L61.2636 68.3531H58.1067L56.9628 65.5566ZM56.002 63.2644L53.9431 58.2674L51.8842 63.2644H56.002Z" fill="#BC955C"/>
<path d="M62.6362 55.2876H65.656V65.8775H72.1987V68.3531H62.6362V55.2876Z" fill="#BC955C"/>
<path d="M85.4214 63.7229V68.3531H82.4017V63.7229L77.3688 55.3335H80.5716L84.0488 61.1557L87.5261 55.3335H90.5L85.4214 63.7229Z" fill="#BC955C"/>
<path d="M2.33342 90.5874C1.3726 90.3123 0.594793 89.9456 0 89.4872L1.00657 87.195C1.55561 87.6076 2.24191 87.9285 3.01972 88.2035C3.79752 88.4327 4.57533 88.5703 5.30738 88.5703C6.17669 88.5703 6.81724 88.4327 7.22902 88.2035C7.6408 87.9743 7.82381 87.6076 7.82381 87.195C7.82381 86.8741 7.68655 86.6448 7.45779 86.4156C7.22902 86.2322 6.90875 86.0489 6.54272 85.9113C6.17669 85.7738 5.67341 85.6363 4.98711 85.4987C3.98054 85.2695 3.20273 85.0403 2.56218 84.8111C1.92164 84.5819 1.3726 84.2151 0.915066 83.665C0.457533 83.1607 0.228766 82.4272 0.228766 81.5562C0.228766 80.7768 0.41178 80.0892 0.823559 79.4932C1.23534 78.8972 1.83013 78.3929 2.69944 78.0262C3.523 77.6594 4.52958 77.4761 5.71916 77.4761C6.54272 77.4761 7.36628 77.5678 8.14408 77.797C8.92189 77.9804 9.65394 78.3013 10.2487 78.668L9.33367 80.9602C8.14408 80.2725 6.90875 79.9516 5.71916 79.9516C4.8956 79.9516 4.25506 80.0892 3.84328 80.3642C3.4315 80.6393 3.24848 81.006 3.24848 81.4645C3.24848 81.9229 3.47725 82.2438 3.93478 82.473C4.39232 82.7023 5.12437 82.8856 6.08519 83.1149C7.09176 83.3441 7.86957 83.5733 8.51011 83.8025C9.15066 84.0317 9.6997 84.3985 10.1572 84.9028C10.6148 85.4071 10.8435 86.0947 10.8435 86.9657C10.8435 87.6992 10.6148 88.3869 10.203 89.0287C9.7912 89.6705 9.15066 90.129 8.3271 90.4957C7.50354 90.8625 6.49697 91.0458 5.30738 91.0458C4.25506 91 3.29424 90.8625 2.33342 90.5874Z" fill="#BC955C"/>
<path d="M15.5561 90.1289C14.458 89.5329 13.6345 88.7536 12.9939 87.6992C12.3991 86.6906 12.0789 85.4987 12.0789 84.2151C12.0789 82.9314 12.3991 81.7853 12.9939 80.7309C13.5887 79.7224 14.458 78.8972 15.5561 78.3012C16.6542 77.7052 17.8438 77.4302 19.2164 77.4302C20.589 77.4302 21.7786 77.7052 22.8766 78.3012C23.9747 78.8972 24.7983 79.6765 25.4388 80.7309C26.0794 81.7395 26.3539 82.9314 26.3539 84.2151C26.3539 85.4987 26.0336 86.6448 25.4388 87.6992C24.7983 88.7078 23.9747 89.5329 22.8766 90.1289C21.7786 90.7249 20.589 90.9999 19.2164 90.9999C17.8895 90.9999 16.6542 90.679 15.5561 90.1289ZM21.321 87.8826C21.9616 87.5158 22.4191 87.0115 22.7851 86.4156C23.1512 85.7738 23.3342 85.0403 23.3342 84.2609C23.3342 83.4357 23.1512 82.7481 22.7851 82.1062C22.4191 81.4644 21.9616 80.9601 21.321 80.6392C20.6805 80.2725 19.9942 80.0891 19.2164 80.0891C18.4386 80.0891 17.7523 80.2725 17.1117 80.6392C16.4712 81.006 16.0136 81.5103 15.6476 82.1062C15.2816 82.7481 15.0986 83.4816 15.0986 84.2609C15.0986 85.0861 15.2816 85.7738 15.6476 86.4156C16.0136 87.0574 16.4712 87.5617 17.1117 87.8826C17.7523 88.2493 18.4386 88.4327 19.2164 88.4327C19.9942 88.4327 20.6805 88.2493 21.321 87.8826Z" fill="#BC955C"/>
<path d="M28.6416 77.7053H31.6613V88.2952H38.204V90.7708H28.6416V77.7053Z" fill="#BC955C"/>
<path d="M39.8969 77.7053H42.9166V90.7708H39.8969V77.7053Z" fill="#BC955C"/>
<path d="M45.9821 77.7053H51.8842C53.3026 77.7053 54.5379 77.9804 55.636 78.5305C56.7341 79.0806 57.5576 79.8141 58.1524 80.8227C58.7472 81.8313 59.0675 82.9315 59.0675 84.261C59.0675 85.5905 58.7472 86.6907 58.1524 87.6993C57.5576 88.662 56.6883 89.4413 55.636 89.9915C54.5379 90.5416 53.3026 90.8167 51.8842 90.8167H45.9821V77.7053ZM51.747 88.2952C53.0281 88.2952 54.0804 87.9285 54.8582 87.195C55.636 86.4615 56.002 85.4988 56.002 84.2151C56.002 82.9315 55.636 81.9688 54.8582 81.2353C54.0804 80.5018 53.0281 80.135 51.747 80.135H49.0018V88.2494H51.747V88.2952Z" fill="#BC955C"/>
<path d="M69.7738 87.9743H63.7343L62.5905 90.7708H59.4793L65.2899 77.7053H68.2639L74.0746 90.7708H70.9176L69.7738 87.9743ZM68.8129 85.6821L66.754 80.6852L64.6952 85.6821H68.8129Z" fill="#BC955C"/>
<path d="M83.7743 90.7708L81.2578 87.1492H81.1206H78.5126V90.7708H75.4929V77.7053H81.1206C82.2644 77.7053 83.271 77.8887 84.1403 78.3013C85.0096 78.668 85.6501 79.2182 86.1077 79.9517C86.5652 80.6393 86.794 81.5104 86.794 82.4731C86.794 83.4358 86.5652 84.261 86.1077 84.9945C85.6501 85.6821 84.9638 86.2323 84.1403 86.599L87.0685 90.8167H83.7743V90.7708ZM82.9965 80.731C82.5389 80.3184 81.8526 80.135 80.9376 80.135H78.4669V84.6736H80.9376C81.8526 84.6736 82.5389 84.4902 82.9965 84.0776C83.454 83.665 83.6828 83.1149 83.6828 82.3814C83.6828 81.6937 83.454 81.1436 82.9965 80.731Z" fill="#BC955C"/>
<path d="M89.1274 77.7053H92.1471V90.7708H89.1274V77.7053Z" fill="#BC955C"/>
<path d="M103.814 87.9743H97.7748L96.6309 90.7708H93.5197L99.3304 77.7053H102.304L108.115 90.7708H104.958L103.814 87.9743ZM102.899 85.6821L100.84 80.6852L98.7813 85.6821H102.899Z" fill="#BC955C"/>
<path d="M129.162 37.7753L124.952 39.7008L122.756 37.5003L140.234 29.936L142.201 31.9073L134.423 49.2363L132.181 46.9899L134.149 42.8182L135.247 40.5718L137.306 36.1708C137.763 35.2081 138.312 34.1537 138.77 33.2826L138.678 33.1909C137.809 33.6494 136.711 34.1995 135.75 34.6579L131.358 36.6751L129.162 37.7753Z" fill="#D8834A"/>
<path d="M144.946 53.2247L146.868 57.4423L144.672 59.6428L137.123 42.1305L139.09 40.1592L156.385 47.9526L154.143 50.199L149.979 48.2277L147.737 47.1274L143.345 45.0645C142.384 44.606 141.332 44.0559 140.463 43.5975L140.371 43.6892C140.829 44.5602 141.378 45.6604 141.835 46.6232L143.848 51.0242L144.946 53.2247Z" fill="#297C5C"/>
<path d="M159.633 36.9959L163.843 35.0704L166.039 37.2709L148.561 44.8352L146.594 42.8639L154.372 25.5349L156.613 27.7813L154.646 31.953L153.548 34.1994L151.489 38.6004C151.032 39.5631 150.483 40.6175 150.025 41.4886L150.117 41.5803C150.986 41.1218 152.084 40.5717 153.045 40.1133L157.437 38.0961L159.633 36.9959Z" fill="#2898BF"/>
<path d="M143.894 21.5466L141.972 17.3289L144.169 15.1284L151.718 32.6408L149.75 34.612L132.456 26.8186L134.698 24.5722L138.861 26.5435L141.103 27.6438L145.495 29.7068C146.456 30.1652 147.509 30.7153 148.378 31.1738L148.469 31.0821C148.012 30.211 147.463 29.1108 147.005 28.1481L144.992 23.7471L143.894 21.5466Z" fill="#E5C04A"/>
<path d="M116.9 15.587C116.534 15.7245 116.122 15.7245 115.756 15.6328C115.39 15.5411 115.024 15.3578 114.703 15.0827C114.383 14.8076 114.2 14.4409 114.063 14.0741C113.971 13.7074 113.926 13.2948 114.063 12.928C114.154 12.5155 114.383 12.1945 114.658 11.8736C114.887 11.6444 115.115 11.461 115.39 11.3235C115.664 11.186 115.939 11.1401 116.213 11.1401V11.5527C115.71 11.5527 115.298 11.782 114.932 12.1487C114.703 12.4238 114.52 12.6988 114.475 13.0197C114.429 13.3406 114.383 13.6615 114.475 13.9366C114.566 14.2575 114.749 14.5326 114.978 14.7618C115.207 14.991 115.527 15.1744 115.802 15.2202C116.076 15.2661 116.442 15.2661 116.717 15.1744C117.037 15.0827 117.311 14.8993 117.54 14.6243C117.906 14.2575 118.089 13.7991 118.043 13.2948H118.455C118.455 13.5699 118.41 13.8449 118.318 14.12C118.227 14.395 118.043 14.6701 117.815 14.8993C117.586 15.2202 117.266 15.4495 116.9 15.587Z" fill="#BC955C"/>
<path d="M120.926 10.5442L119.05 12.1029L119.416 13.3407L119.05 13.6616L117.815 8.98551L118.181 8.71045L122.527 10.8193L122.161 11.1402L120.926 10.5442ZM120.56 10.3608L118.226 9.21473L118.913 11.7361L120.56 10.3608Z" fill="#BC955C"/>
<path d="M121.338 6.78493L120.057 7.65596L119.828 7.33505L122.802 5.36377L123.031 5.68468L121.749 6.55571L123.946 9.90231L123.58 10.1774L121.338 6.78493Z" fill="#BC955C"/>
<path d="M124.815 2.9799L125.364 2.70483L124.815 3.85093L124.403 4.0343L124.815 2.9799ZM127.514 6.50987L125.318 7.61012L125.364 8.89375L124.952 9.12297L124.723 4.26352L125.135 4.0343L128.933 7.06L128.475 7.28922L127.514 6.50987ZM127.148 6.28065L125.135 4.67612L125.272 7.28922L127.148 6.28065Z" fill="#BC955C"/>
<path d="M127.972 2.79641L128.429 2.61304L129.802 6.37223L132.135 5.5012L132.273 5.86795L129.528 6.87651L127.972 2.79641Z" fill="#BC955C"/>
<path d="M133.462 5.31797C133.051 5.22628 132.73 4.99707 132.456 4.722C132.181 4.44694 131.998 4.08019 131.907 3.66759C131.815 3.255 131.815 2.84241 131.952 2.47566C132.09 2.1089 132.273 1.788 132.593 1.51293C132.913 1.23787 133.279 1.0545 133.691 0.962809C134.103 0.871121 134.515 0.871121 134.926 0.962809C135.292 1.0545 135.659 1.28372 135.933 1.55878C136.208 1.83384 136.391 2.20059 136.482 2.61319C136.574 3.02578 136.574 3.43838 136.436 3.80513C136.299 4.17188 136.116 4.49278 135.796 4.76785C135.521 5.04291 135.155 5.22628 134.698 5.31797C134.24 5.40966 133.828 5.40966 133.462 5.31797ZM135.43 4.49278C135.659 4.26356 135.842 4.03435 135.933 3.71344C136.025 3.39253 136.025 3.07162 135.933 2.75072C135.842 2.42981 135.704 2.1089 135.475 1.87969C135.247 1.65047 134.972 1.46709 134.698 1.3754C134.377 1.28372 134.057 1.28372 133.737 1.3754C133.417 1.46709 133.096 1.60462 132.868 1.83384C132.639 2.06306 132.456 2.33812 132.364 2.61319C132.273 2.93409 132.273 3.255 132.319 3.57591C132.41 3.89681 132.547 4.21772 132.776 4.44694C133.005 4.67616 133.279 4.85953 133.554 4.95122C133.828 5.04291 134.194 5.04291 134.515 4.95122C134.835 4.85953 135.201 4.67616 135.43 4.49278Z" fill="#BC955C"/>
<path d="M140.691 2.20048L141.149 2.15463L141.286 3.85085C141.103 4.03423 140.874 4.21761 140.6 4.30929C140.325 4.44682 140.051 4.49267 139.731 4.53851C139.273 4.58436 138.907 4.49267 138.541 4.35514C138.175 4.21761 137.855 3.94254 137.626 3.62164C137.397 3.30073 137.26 2.93398 137.214 2.52138C137.168 2.10879 137.26 1.69619 137.397 1.32944C137.58 0.962693 137.809 0.68763 138.175 0.458411C138.495 0.229192 138.907 0.0916606 139.319 0.0458168C139.639 -2.70437e-05 139.959 0.0458168 140.234 0.137504C140.508 0.229192 140.783 0.366724 140.966 0.550099L140.691 0.871006C140.325 0.550099 139.868 0.412567 139.319 0.458411C138.953 0.504255 138.632 0.595943 138.358 0.779318C138.083 0.962693 137.9 1.19191 137.717 1.51282C137.58 1.78788 137.534 2.10879 137.534 2.47554C137.534 2.84229 137.672 3.11735 137.855 3.39242C138.038 3.66748 138.266 3.85085 138.587 3.98839C138.907 4.12592 139.227 4.17176 139.548 4.12592C140.005 4.08007 140.371 3.94254 140.646 3.66748L140.691 2.20048Z" fill="#BC955C"/>
<path d="M143.254 4.12594C142.933 3.89673 142.659 3.62166 142.476 3.25491C142.293 2.88816 142.201 2.52141 142.247 2.10882C142.293 1.69622 142.384 1.32947 142.613 0.96272C142.842 0.641814 143.116 0.366751 143.482 0.229219C143.848 0.0458438 144.26 0 144.672 0C145.129 0.0458438 145.495 0.137531 145.816 0.366751C146.136 0.59597 146.411 0.871033 146.594 1.23778C146.777 1.60453 146.868 1.97128 146.822 2.38388C146.777 2.79647 146.685 3.16322 146.456 3.52997C146.228 3.89673 145.953 4.12594 145.587 4.26348C145.221 4.44685 144.809 4.4927 144.397 4.4927C143.986 4.44685 143.62 4.35516 143.254 4.12594ZM145.404 3.89673C145.678 3.75919 145.907 3.52997 146.09 3.30076C146.273 3.02569 146.365 2.70479 146.365 2.38388C146.365 2.01713 146.319 1.74207 146.182 1.42116C146.044 1.1461 145.816 0.916877 145.541 0.733501C145.267 0.550126 144.946 0.458438 144.626 0.458438C144.26 0.458438 143.94 0.504282 143.665 0.641814C143.391 0.779345 143.162 1.00856 142.979 1.23778C142.796 1.51285 142.704 1.83375 142.704 2.15466C142.704 2.52141 142.75 2.79647 142.888 3.11738C143.025 3.43829 143.254 3.62166 143.528 3.80504C143.803 3.98841 144.123 4.0801 144.443 4.0801C144.809 4.0801 145.129 4.03426 145.404 3.89673Z" fill="#BC955C"/>
<path d="M150.3 0.733398L152.038 1.19184C152.496 1.32937 152.862 1.51274 153.182 1.78781C153.502 2.06287 153.685 2.38378 153.777 2.75053C153.868 3.11728 153.868 3.52987 153.777 3.94247C153.685 4.35506 153.456 4.72181 153.228 4.99687C152.999 5.27194 152.633 5.45531 152.221 5.547C151.809 5.63869 151.398 5.63869 150.94 5.50116L149.201 5.04272L150.3 0.733398ZM150.986 5.04272C151.352 5.13441 151.718 5.13441 152.038 5.08856C152.358 4.99687 152.633 4.85934 152.862 4.63012C153.09 4.4009 153.228 4.12584 153.319 3.80494C153.411 3.48403 153.411 3.16312 153.319 2.84221C153.228 2.52131 153.09 2.29209 152.816 2.06287C152.587 1.83365 152.267 1.69612 151.901 1.60443L150.62 1.28352L149.705 4.76766L150.986 5.04272Z" fill="#BC955C"/>
<path d="M157.071 7.19753L156.934 7.56428L154.051 6.37234L155.698 2.29224L158.489 3.43833L158.352 3.80508L155.973 2.84236L155.378 4.30936L157.483 5.1804L157.346 5.54715L155.241 4.67612L154.6 6.18896L157.071 7.19753Z" fill="#BC955C"/>
<path d="M159.496 8.80211C159.313 8.57289 159.176 8.29783 159.13 8.06861L159.45 7.83939C159.496 8.06861 159.633 8.29783 159.77 8.4812C159.953 8.71042 160.137 8.8938 160.411 9.03133C160.731 9.26055 161.052 9.35223 161.28 9.30639C161.509 9.26055 161.692 9.16886 161.829 8.98548C161.921 8.84795 161.967 8.66458 161.921 8.52705C161.875 8.38952 161.829 8.25198 161.692 8.11445C161.601 7.97692 161.418 7.83939 161.235 7.61017C161.006 7.38095 160.823 7.15173 160.686 6.96836C160.548 6.78498 160.457 6.60161 160.457 6.41823C160.411 6.18901 160.457 6.00564 160.594 5.77642C160.731 5.59304 160.869 5.45551 161.052 5.36382C161.235 5.27214 161.463 5.22629 161.738 5.27214C162.012 5.31798 162.287 5.40967 162.607 5.59304C162.836 5.73057 163.019 5.8681 163.202 6.05148C163.385 6.23486 163.522 6.41823 163.568 6.60161L163.248 6.83082C163.156 6.64745 163.019 6.46407 162.882 6.2807C162.744 6.09732 162.561 6.00564 162.424 5.8681C162.104 5.68473 161.829 5.59304 161.555 5.59304C161.326 5.63889 161.143 5.73057 161.006 5.91395C160.914 6.05148 160.869 6.23486 160.914 6.37239C160.96 6.50992 161.006 6.64745 161.143 6.78498C161.235 6.92251 161.418 7.10589 161.601 7.28926C161.829 7.51848 162.012 7.7477 162.15 7.88523C162.287 8.06861 162.378 8.25198 162.378 8.43536C162.424 8.66458 162.378 8.84795 162.241 9.07717C162.104 9.26055 161.967 9.39808 161.784 9.48977C161.601 9.58145 161.372 9.6273 161.097 9.58145C160.823 9.53561 160.548 9.44392 160.228 9.26055C159.953 9.26055 159.679 9.07717 159.496 8.80211Z" fill="#BC955C"/>
<path d="M165.078 12.3777L164.849 12.6986L162.378 10.7732L165.078 7.28906L167.457 9.16866L167.228 9.48957L165.215 7.93088L164.254 9.16866L166.039 10.5898L165.81 10.9107L164.026 9.48957L163.019 10.7732L165.078 12.3777Z" fill="#BC955C"/>
<path d="M167.64 15.4953L167.915 13.7991C167.823 13.7074 167.732 13.6615 167.64 13.5699L166.816 12.7447L165.81 13.7532L165.49 13.4323L168.601 10.3149L169.745 11.5069C170.156 11.9195 170.34 12.3321 170.385 12.7447C170.431 13.1573 170.248 13.524 169.928 13.8449C169.699 14.0741 169.424 14.2117 169.104 14.2575C168.83 14.3034 168.509 14.2575 168.235 14.0741L167.915 15.9079L167.64 15.4953ZM168.875 13.7532C169.196 13.7991 169.47 13.6615 169.699 13.4323C169.973 13.2031 170.065 12.8822 170.019 12.6071C169.973 12.2862 169.836 12.0112 169.516 11.6903L168.692 10.8651L167.137 12.4238L167.96 13.2489C168.281 13.5699 168.555 13.7074 168.875 13.7532Z" fill="#BC955C"/>
<path d="M174.32 16.7788L169.653 17.9249L169.379 17.5582L171.666 13.2947L171.987 13.7073L169.973 17.3748L174.045 16.3662L174.32 16.7788Z" fill="#BC955C"/>
<path d="M174.778 17.5581L175.006 17.9707L171.3 20.3546L171.072 19.942L174.778 17.5581Z" fill="#BC955C"/>
<path d="M172.581 22.005C172.581 21.5924 172.719 21.2257 172.902 20.9047C173.13 20.5838 173.405 20.3088 173.771 20.1254C174.137 19.942 174.549 19.8503 174.915 19.8503C175.327 19.8503 175.693 19.9879 176.013 20.2171C176.333 20.4463 176.608 20.7672 176.836 21.134C176.974 21.409 177.065 21.7299 177.111 22.005C177.157 22.2801 177.111 22.601 177.019 22.8302L176.608 22.6927C176.745 22.2342 176.699 21.7758 176.47 21.2715C176.287 20.9506 176.104 20.7214 175.83 20.538C175.555 20.3546 175.281 20.2629 174.961 20.2629C174.64 20.2629 174.32 20.3088 174 20.4922C173.679 20.6297 173.451 20.8589 173.268 21.134C173.085 21.409 172.993 21.6841 172.993 22.0508C172.993 22.4176 173.039 22.6927 173.222 23.0136C173.451 23.472 173.817 23.7929 174.274 23.9304L174.137 24.343C173.862 24.2513 173.588 24.1138 173.405 23.9304C173.176 23.7471 172.993 23.472 172.856 23.1969C172.673 22.7843 172.581 22.4176 172.581 22.005Z" fill="#BC955C"/>
<path d="M178.026 23.793L178.209 24.2056L174.137 25.8559L173.954 25.4433L178.026 23.793Z" fill="#BC955C"/>
<path d="M175.098 27.7355C175.189 27.3229 175.372 27.002 175.647 26.727C175.921 26.4519 176.242 26.2227 176.653 26.131C177.065 25.9935 177.477 25.9935 177.843 26.0851C178.209 26.1768 178.575 26.3602 178.85 26.6811C179.124 26.9562 179.353 27.3229 179.444 27.7355C179.582 28.1481 179.582 28.5607 179.49 28.9733C179.399 29.3859 179.216 29.7068 178.941 29.9819C178.667 30.2569 178.346 30.4861 177.935 30.5778C177.523 30.6695 177.111 30.7154 176.745 30.6237C176.379 30.532 176.013 30.3486 175.738 30.0736C175.464 29.7985 175.235 29.4317 175.144 29.0191C175.006 28.5607 175.006 28.1481 175.098 27.7355ZM176.059 29.7068C176.287 29.936 176.562 30.0736 176.882 30.1652C177.202 30.2569 177.523 30.2111 177.843 30.1194C178.163 30.0277 178.438 29.8443 178.667 29.6151C178.895 29.3859 179.033 29.1108 179.124 28.7899C179.216 28.469 179.17 28.1481 179.078 27.8272C178.987 27.5063 178.804 27.2312 178.575 27.002C178.346 26.7728 178.072 26.6353 177.752 26.5436C177.431 26.4519 177.111 26.4977 176.791 26.5894C176.47 26.6811 176.196 26.8645 175.967 27.0937C175.738 27.3229 175.601 27.598 175.51 27.9189C175.418 28.2398 175.464 28.5607 175.555 28.8816C175.647 29.2025 175.784 29.4776 176.059 29.7068Z" fill="#BC955C"/>
<path d="M176.104 32.32C176.15 31.999 176.242 31.7698 176.425 31.5865L176.791 31.724C176.653 31.9074 176.562 32.1366 176.516 32.4116C176.47 32.6867 176.47 32.9618 176.516 33.2368C176.562 33.6494 176.699 33.9245 176.882 34.062C177.065 34.2454 177.248 34.2912 177.477 34.2912C177.66 34.2454 177.797 34.1996 177.889 34.062C177.98 33.9245 178.026 33.787 178.072 33.6494C178.118 33.466 178.118 33.2827 178.163 32.9618C178.209 32.6409 178.255 32.3658 178.301 32.1366C178.346 31.9074 178.438 31.724 178.575 31.5865C178.712 31.4031 178.895 31.3114 179.17 31.2655C179.399 31.2197 179.582 31.2655 179.81 31.3572C179.993 31.4489 180.176 31.5865 180.314 31.8157C180.451 32.0449 180.542 32.32 180.634 32.6867C180.68 32.9159 180.68 33.191 180.634 33.4202C180.588 33.6494 180.542 33.8786 180.451 34.062L180.039 33.9703C180.131 33.787 180.176 33.5577 180.222 33.3285C180.268 33.0993 180.268 32.9159 180.222 32.6867C180.176 32.32 180.039 32.0449 179.856 31.8615C179.673 31.6781 179.49 31.6323 179.261 31.6781C179.078 31.724 178.941 31.7698 178.85 31.9074C178.758 32.0449 178.712 32.1824 178.667 32.3658C178.621 32.5492 178.621 32.7784 178.575 33.0535C178.529 33.3744 178.529 33.6494 178.484 33.8786C178.438 34.1079 178.346 34.2912 178.209 34.4288C178.072 34.6121 177.889 34.7038 177.614 34.7497C177.385 34.7955 177.202 34.7497 176.974 34.658C176.745 34.5663 176.608 34.4288 176.47 34.1995C176.333 33.9703 176.242 33.6953 176.15 33.3285C176.059 32.9618 176.059 32.6409 176.104 32.32Z" fill="#BC955C"/>
<path d="M178.072 38.9215L176.562 38.8757V38.4172L178.072 38.4631L181 36.7668V37.2711L178.484 38.7381L180.954 40.2968V40.7553L178.072 38.9215Z" fill="#BC955C"/>
<path d="M179.765 46.4857C179.444 46.7608 179.033 46.8525 178.575 46.7608C178.118 46.6691 177.797 46.4399 177.569 46.119C177.34 45.7522 177.294 45.2938 177.385 44.7437L177.569 43.5976L176.196 43.3684L176.287 42.9099L180.634 43.6434L180.359 45.2938C180.268 45.7981 180.085 46.2107 179.765 46.4857ZM177.935 45.8439C178.072 46.119 178.346 46.2565 178.667 46.3024C179.033 46.3482 179.307 46.3024 179.536 46.119C179.765 45.9356 179.902 45.6147 179.993 45.2021L180.176 44.056L178.026 43.6893L177.843 44.8354C177.752 45.248 177.752 45.5689 177.935 45.8439Z" fill="#BC955C"/>
<path d="M174.595 50.0156L176.242 49.4655C176.242 49.3738 176.287 49.2363 176.333 49.1446L176.699 47.9985L175.372 47.5859L175.51 47.1274L179.719 48.4111L179.216 49.9698C179.033 50.5199 178.804 50.8866 178.438 51.1158C178.072 51.3451 177.706 51.3909 177.248 51.2534C176.928 51.1617 176.653 50.9783 176.47 50.7491C176.287 50.5199 176.196 50.2448 176.196 49.8781L174.457 50.474L174.595 50.0156ZM176.699 50.2448C176.836 50.5199 177.019 50.7033 177.385 50.7949C177.706 50.8866 178.026 50.8866 178.255 50.7033C178.484 50.5199 178.712 50.2448 178.804 49.8322L179.17 48.732L177.065 48.0902L176.699 49.1904C176.608 49.6488 176.608 49.9698 176.699 50.2448Z" fill="#BC955C"/>
<path d="M174.045 52.0786C174.366 51.8494 174.732 51.7118 175.144 51.666C175.555 51.6201 175.921 51.7118 176.287 51.8952C176.653 52.0786 176.974 52.3078 177.202 52.6745C177.431 53.0413 177.568 53.3622 177.568 53.7748C177.568 54.1874 177.523 54.6 177.34 54.9667C177.157 55.3793 176.882 55.7002 176.562 55.9295C176.242 56.1587 175.876 56.2962 175.464 56.3421C175.052 56.3879 174.686 56.2962 174.274 56.1128C173.908 55.9295 173.588 55.7002 173.359 55.3335C173.13 55.0126 172.993 54.6458 172.993 54.2332C172.947 53.8206 173.039 53.4539 173.222 53.0413C173.451 52.6745 173.725 52.3536 174.045 52.0786ZM173.451 54.1874C173.451 54.5083 173.588 54.7834 173.771 55.0584C173.954 55.3335 174.183 55.5169 174.503 55.6544C174.823 55.7919 175.144 55.8836 175.464 55.8378C175.784 55.7919 176.059 55.7002 176.333 55.5169C176.608 55.3335 176.791 55.0584 176.928 54.7834C177.065 54.4625 177.157 54.1416 177.111 53.8206C177.111 53.4997 176.974 53.2247 176.791 52.9496C176.608 52.6745 176.379 52.4912 176.059 52.3536C175.738 52.2161 175.418 52.1703 175.098 52.1703C174.778 52.2161 174.503 52.3078 174.228 52.4912C173.954 52.6745 173.771 52.9496 173.634 53.2705C173.496 53.5456 173.451 53.8665 173.451 54.1874Z" fill="#BC955C"/>
<path d="M175.555 58.3592L174.549 59.872C174.274 60.2388 174 60.5597 173.634 60.7431C173.268 60.9264 172.902 61.0181 172.536 61.0181C172.17 61.0181 171.758 60.8806 171.438 60.6514C171.072 60.4221 170.797 60.1012 170.66 59.7803C170.477 59.4136 170.431 59.0468 170.477 58.6342C170.523 58.2216 170.66 57.8549 170.934 57.4423L171.941 55.9294L175.555 58.3592ZM171.209 57.6257C170.98 57.9466 170.889 58.2675 170.843 58.5884C170.797 58.9093 170.843 59.2302 170.98 59.5053C171.117 59.7803 171.346 60.0095 171.621 60.2388C171.895 60.468 172.215 60.5597 172.536 60.5597C172.856 60.5597 173.13 60.5138 173.451 60.3305C173.725 60.1929 174 59.9179 174.183 59.597L174.915 58.4967L171.941 56.4796L171.209 57.6257Z" fill="#BC955C"/>
<path d="M169.058 60.6973C169.516 60.6973 169.973 60.8806 170.431 61.2932L172.307 62.9895L171.987 63.3562L170.111 61.66C169.745 61.3391 169.379 61.1557 169.013 61.1557C168.692 61.1557 168.372 61.3391 168.052 61.66C167.777 61.9809 167.64 62.3018 167.64 62.6686C167.64 63.0353 167.869 63.3562 168.281 63.6771L170.156 65.3733L169.836 65.6942L167.96 63.998C167.503 63.5854 167.228 63.127 167.228 62.6686C167.228 62.2101 167.366 61.7517 167.732 61.3391C168.143 60.9265 168.601 60.6973 169.058 60.6973Z" fill="#BC955C"/>
<path d="M165.307 64.273C165.718 64.1814 166.084 64.2272 166.45 64.3647C166.816 64.5023 167.137 64.7315 167.411 65.0524C167.686 65.3733 167.869 65.74 167.915 66.1068C168.006 66.5194 167.96 66.8861 167.823 67.2529C167.686 67.6196 167.457 67.9405 167.091 68.2615C166.862 68.4907 166.588 68.6282 166.313 68.7199C166.039 68.8116 165.764 68.8574 165.444 68.8116L165.49 68.399C165.993 68.4448 166.405 68.3073 166.816 67.9405C167.091 67.7113 167.274 67.4363 167.366 67.1612C167.457 66.8403 167.503 66.5652 167.457 66.2443C167.411 65.9234 167.274 65.6484 167.045 65.3733C166.816 65.0982 166.542 64.9149 166.267 64.8232C165.993 64.7315 165.673 64.6856 165.352 64.7773C165.032 64.8232 164.758 65.0065 164.483 65.1899C164.071 65.5108 163.843 65.9693 163.843 66.4277L163.431 66.3819C163.431 66.1068 163.522 65.8317 163.66 65.5567C163.797 65.2816 163.98 65.0524 164.254 64.8232C164.529 64.5023 164.895 64.3647 165.307 64.273Z" fill="#BC955C"/>
<path d="M163.843 70.141L165.124 69.2699L165.352 69.5909L162.378 71.5621L162.15 71.2412L163.431 70.3702L161.189 67.0236L161.555 66.7485L163.843 70.141Z" fill="#BC955C"/>
<path d="M158.901 68.7656C159.313 68.7656 159.679 68.9032 159.999 69.1324C160.32 69.3616 160.594 69.6367 160.777 70.0034C160.96 70.3702 161.052 70.7828 161.006 71.1495C160.96 71.5621 160.869 71.9289 160.64 72.2498C160.411 72.5707 160.091 72.8457 159.725 73.0291C159.313 73.2125 158.947 73.3042 158.535 73.3042C158.123 73.3042 157.757 73.1666 157.437 72.9374C157.117 72.7082 156.842 72.4331 156.659 72.0664C156.476 71.6996 156.385 71.287 156.43 70.9203C156.476 70.5077 156.568 70.1409 156.797 69.82C157.025 69.4991 157.346 69.2241 157.712 69.0407C158.078 68.8573 158.489 68.7656 158.901 68.7656ZM157.163 70.0493C156.98 70.3243 156.888 70.5994 156.888 70.9203C156.888 71.2412 156.934 71.5621 157.071 71.883C157.208 72.2039 157.437 72.4331 157.712 72.6165C157.986 72.7999 158.261 72.8916 158.581 72.8916C158.901 72.8916 159.221 72.8457 159.542 72.6624C159.862 72.5248 160.091 72.2956 160.274 72.0205C160.457 71.7455 160.548 71.4704 160.594 71.1495C160.594 70.8286 160.548 70.5077 160.411 70.1868C160.274 69.8659 160.045 69.6367 159.77 69.4533C159.496 69.2699 159.221 69.1782 158.901 69.1782C158.581 69.1782 158.261 69.2241 157.94 69.4074C157.574 69.5908 157.346 69.7742 157.163 70.0493Z" fill="#BC955C"/>
<path d="M154.6 70.5996C154.921 70.5996 155.195 70.6455 155.378 70.783L155.332 71.1956C155.149 71.1039 154.875 71.058 154.6 71.058C154.326 71.058 154.051 71.1039 153.777 71.1956C153.411 71.3331 153.136 71.4706 152.999 71.6999C152.862 71.8832 152.816 72.1125 152.907 72.3417C152.953 72.5251 153.045 72.6167 153.182 72.7084C153.319 72.7543 153.457 72.8001 153.64 72.8001C153.823 72.8001 154.051 72.8001 154.326 72.7543C154.646 72.7084 154.921 72.7084 155.149 72.7084C155.378 72.7084 155.561 72.7543 155.744 72.8918C155.927 73.0293 156.064 73.1669 156.156 73.4419C156.247 73.6711 156.247 73.8545 156.202 74.0837C156.156 74.313 156.019 74.4963 155.836 74.6797C155.653 74.8631 155.378 75.0006 155.012 75.1381C154.783 75.2298 154.509 75.2757 154.28 75.2757C154.051 75.2757 153.823 75.2757 153.594 75.2298L153.64 74.8172C153.868 74.8631 154.051 74.9089 154.28 74.8631C154.509 74.8631 154.692 74.8172 154.875 74.7256C155.241 74.588 155.47 74.4505 155.607 74.2213C155.744 74.0379 155.79 73.8087 155.698 73.5795C155.653 73.3961 155.561 73.3044 155.424 73.2127C155.287 73.1669 155.149 73.121 154.966 73.121C154.783 73.121 154.555 73.121 154.28 73.1669C153.96 73.2127 153.685 73.2127 153.457 73.2127C153.228 73.2127 153.045 73.1669 152.862 73.0293C152.679 72.9376 152.541 72.7543 152.45 72.4792C152.358 72.25 152.358 72.0666 152.404 71.8374C152.45 71.6082 152.587 71.4248 152.77 71.2414C152.953 71.058 153.228 70.9205 153.594 70.783C153.96 70.6455 154.28 70.5996 154.6 70.5996Z" fill="#BC955C"/>
</svg>
