<?xml version="1.0" encoding="utf-8"?>
<!-- Generator: Adobe Illustrator 25.2.0, SVG Export Plug-In . SVG Version: 6.00 Build 0)  -->
<svg version="1.1" id="Capa_1" xmlns="http://www.w3.org/2000/svg" xmlns:xlink="http://www.w3.org/1999/xlink" x="0px" y="0px"
	 viewBox="0 0 350 131.9" style="enable-background:new 0 0 350 131.9;" xml:space="preserve">
<style type="text/css">
	.st0{fill:#9F2241;}
	.st1{fill:#235B4E;}
	.st2{fill:#BC955C;}
	.st3{fill:#A12041;}
	.st4{fill:#18A79D;}
	.st5{fill:#F7941D;}
	.st6{fill:#0E74BC;}
</style>
<g>
	<g>
		<g>
			<g>
				<path class="st0" d="M141.5,55.1l0-8.6l-4.2,7h-2l-4.2-6.8v8.4h-4.3V38.8h3.8l5.7,9.4l5.6-9.4h3.8l0,16.3H141.5z"/>
				<path class="st0" d="M162.2,51.5v3.6h-13.1V38.8h12.8v3.6h-8.2v2.7h7.2v3.4h-7.2v3H162.2z"/>
				<path class="st0" d="M175.1,55.1l-3.4-5.1l-3.3,5.1h-5.3l5.9-8.2l-5.7-8.1h5.2l3.3,4.7l3.2-4.7h5l-5.7,7.9l6.1,8.4H175.1z"/>
				<path class="st0" d="M181.6,38.8h4.6v16.3h-4.6V38.8z"/>
				<path class="st0" d="M193.2,54.3c-1.4-0.7-2.4-1.7-3.2-3c-0.8-1.3-1.2-2.7-1.2-4.4c0-1.6,0.4-3.1,1.2-4.4c0.8-1.3,1.8-2.3,3.2-3
					c1.4-0.7,2.9-1.1,4.6-1.1c1.5,0,2.8,0.3,4,0.8c1.2,0.5,2.2,1.3,3,2.3l-2.9,2.7c-1.1-1.3-2.3-1.9-3.8-1.9c-0.9,0-1.7,0.2-2.4,0.6
					c-0.7,0.4-1.2,0.9-1.6,1.6c-0.4,0.7-0.6,1.5-0.6,2.4c0,0.9,0.2,1.7,0.6,2.4c0.4,0.7,0.9,1.3,1.6,1.6c0.7,0.4,1.5,0.6,2.4,0.6
					c1.5,0,2.8-0.6,3.8-1.9l2.9,2.7c-0.8,1-1.8,1.8-3,2.3c-1.2,0.5-2.5,0.8-4,0.8C196.1,55.4,194.5,55.1,193.2,54.3z"/>
				<path class="st0" d="M210.2,54.3c-1.4-0.7-2.5-1.7-3.2-3c-0.8-1.3-1.2-2.7-1.2-4.4c0-1.6,0.4-3.1,1.2-4.4c0.8-1.3,1.9-2.3,3.2-3
					c1.4-0.7,2.9-1.1,4.6-1.1c1.7,0,3.3,0.4,4.6,1.1c1.4,0.7,2.5,1.7,3.2,3c0.8,1.3,1.2,2.7,1.2,4.4c0,1.6-0.4,3.1-1.2,4.4
					c-0.8,1.3-1.9,2.3-3.2,3c-1.4,0.7-2.9,1.1-4.6,1.1C213.2,55.4,211.6,55.1,210.2,54.3z M217.1,51c0.7-0.4,1.2-0.9,1.6-1.6
					c0.4-0.7,0.6-1.5,0.6-2.4c0-0.9-0.2-1.7-0.6-2.4c-0.4-0.7-0.9-1.3-1.6-1.6c-0.7-0.4-1.4-0.6-2.2-0.6c-0.8,0-1.6,0.2-2.2,0.6
					c-0.7,0.4-1.2,0.9-1.6,1.6c-0.4,0.7-0.6,1.5-0.6,2.4c0,0.9,0.2,1.7,0.6,2.4c0.4,0.7,0.9,1.3,1.6,1.6c0.7,0.4,1.4,0.6,2.2,0.6
					C215.7,51.6,216.4,51.4,217.1,51z"/>
			</g>
		</g>
		<polygon class="st0" points="155,34.6 155.6,37.3 157.9,31.5 152.2,34.1 		"/>
	</g>
	<path class="st1" d="M79.9,67.8h-15v9.6h10.7v6.4H64.9v9.6h15v6.4H58.5V61.4h21.4V67.8z"/>
	<path class="st1" d="M100.6,70.3c-0.8-1.7-2.9-2.9-5.5-2.9c-3.2,0-5.8,1.9-5.8,4.3c0,2.4,2.5,4.2,5.8,4.7c3.8,0.6,5.5,1,7.3,1.8
		c2.9,1.2,6,3.9,6,10.4s-6.8,11.8-13.3,11.8s-13.3-4.6-13.3-9.6l6.4-2.1c0,3,4,5.4,6.9,5.4c3.1,0,6.9-2.4,6.9-5.4
		c0-3.8-3.8-5-6.9-5.8c-4.1-1.1-7.3-1.4-9.3-3.4c-2.5-2.6-2.9-4.9-2.9-7.7c0-5.9,6.3-10.7,12.2-10.7c5.1,0,10.5,3.3,11.9,6.9
		L100.6,70.3z"/>
	<path class="st2" d="M180,100h-6.4V61.4h13.4c8,0,14.5,6.5,14.5,14.4c0,5.6-3.2,10.5-7.8,12.9l6.7,11.3h-8.6l-5.7-9.6h-6V100z
		 M186.9,67.8H180v16.1h6.9c4.5,0,8.1-3.6,8.1-8.1C195,71.4,191.4,67.8,186.9,67.8z"/>
	<path class="st2" d="M150.3,100h-6.4V61.4h13.4c8,0,14.5,6.5,14.5,14.4c0,5.6-3.2,10.5-7.8,12.9l6.7,11.3h-8.6l-5.7-9.6h-6V100z
		 M157.2,67.8h-6.9v16.1h6.9c4.5,0,8.1-3.6,8.1-8.1C165.3,71.4,161.7,67.8,157.2,67.8z"/>
	<path class="st2" d="M249.5,61.4v32.1h15v6.4h-21.4V61.4H249.5z"/>
	<path class="st2" d="M273.3,61.4v32.1h15v6.4h-21.4V61.4H273.3z"/>
	<path class="st2" d="M324.9,100h-7.5l-2.6-6.4h-14.1l-2.6,6.4h-7.5l17.1-38.6L324.9,100z M303.4,87.1h8.7l-4.4-10.7L303.4,87.1z"/>
	<path class="st2" d="M142,100h-7.5l-2.6-6.4h-14.1l-2.6,6.4h-7.5l17.1-38.6L142,100z M120.5,87.1h8.7l-4.4-10.7L120.5,87.1z"/>
	<path class="st2" d="M36.6,61.5l-11.5-0.1v1.4v5.2v25.7v6.3l11,0.1c10.5,0,19.1-8.5,19.3-19C55.5,70.5,47.1,61.8,36.6,61.5z
		 M36.1,93.7l-5.1,0V67.9l5.4,0c7,0.2,12.5,6,12.4,13C48.8,88,43.1,93.6,36.1,93.7z"/>
	<path class="st3" d="M236.6,81.4c-0.2-0.3-0.2-0.7,0.1-0.9c0.1-0.1,0.3-0.2,0.4-0.2h4.2c-0.3-10.2-8.5-18.3-18.6-18.6v3.8
		c1.4-0.8,3.2-0.5,4.4,0.7c0.7,0.7,1.1,1.6,1.1,2.6s-0.4,1.9-1.1,2.6c-1.2,1.2-3,1.4-4.4,0.7v8.3h8.8c0.1,0,0.2,0.1,0.3,0.2
		c0.2,0.2,0.3,0.6,0.1,0.9l0,0c-0.9,1.2-0.9,2.9,0.2,4c1.2,1.2,3.1,1.2,4.3,0C237.4,84.4,237.5,82.7,236.6,81.4L236.6,81.4z"/>
	<path class="st4" d="M221.4,95.5c0.3-0.2,0.7-0.2,0.9,0.1c0.1,0.1,0.2,0.3,0.2,0.4v4.2c10.2-0.3,18.3-8.5,18.6-18.6h-3.8
		c0.8,1.4,0.5,3.2-0.7,4.4c-0.7,0.7-1.6,1.1-2.6,1.1c-1,0-1.9-0.4-2.6-1.1c-1.2-1.2-1.4-3-0.7-4.4h-8.3v8.8c0,0.1-0.1,0.2-0.2,0.3
		c-0.2,0.2-0.6,0.3-0.9,0.1l0,0c-1.2-0.9-2.9-0.9-4,0.2c-1.2,1.2-1.2,3.1,0,4.3C218.5,96.4,220.2,96.5,221.4,95.5L221.4,95.5z"/>
	<path class="st5" d="M207.3,80.4c0.2,0.3,0.2,0.7-0.1,0.9c-0.1,0.1-0.3,0.2-0.4,0.2h-4.2c0.3,10.2,8.5,18.3,18.6,18.6v-3.8
		c-1.4,0.8-3.2,0.5-4.4-0.7c-0.7-0.7-1.1-1.6-1.1-2.6s0.4-1.9,1.1-2.6c1.2-1.2,3-1.4,4.4-0.7v-8.3h-8.8c-0.1,0-0.2-0.1-0.3-0.2
		c-0.2-0.2-0.3-0.6-0.1-0.9l0,0c0.9-1.2,0.9-2.9-0.2-4c-1.2-1.2-3.1-1.2-4.3,0C206.5,77.5,206.4,79.2,207.3,80.4L207.3,80.4z"/>
	<path class="st6" d="M222.4,66.3c-0.3,0.2-0.7,0.2-0.9-0.1c-0.1-0.1-0.2-0.3-0.2-0.4v-4.2c-10.2,0.3-18.3,8.5-18.6,18.6h3.8
		c-0.8-1.4-0.5-3.2,0.7-4.4c0.7-0.7,1.6-1.1,2.6-1.1c1,0,1.9,0.4,2.6,1.1c1.2,1.2,1.4,3,0.7,4.4h8.3v-8.8c0-0.1,0.1-0.2,0.2-0.3
		c0.2-0.2,0.6-0.3,0.9-0.1l0,0c1.2,0.9,2.9,0.9,4-0.2c1.2-1.2,1.2-3.1,0-4.3C225.4,65.5,223.7,65.4,222.4,66.3L222.4,66.3z"/>
</g>
</svg>
