<svg width="50" height="69" viewBox="0 0 50 69" fill="none" xmlns="http://www.w3.org/2000/svg">
<path d="M41.4021 31.3226L34.833 38.0346" stroke="black" stroke-miterlimit="10" stroke-linecap="round"/>
<path d="M7.89062 31.3226L14.4597 38.0346" stroke="black" stroke-miterlimit="10" stroke-linecap="round"/>
<path d="M18.0654 28.3618C19.8686 26.5586 18.241 22.0075 14.4302 18.1966C10.6193 14.3857 6.06817 12.7582 4.26498 14.5614C2.46178 16.3646 4.08933 20.9157 7.90021 24.7266C11.7111 28.5374 16.2622 30.165 18.0654 28.3618Z" stroke="black" stroke-miterlimit="10" stroke-linecap="round"/>
<path d="M24.4084 20.5169C26.9586 20.5169 29.0259 16.1479 29.0259 10.7585C29.0259 5.36901 26.9586 1 24.4084 1C21.8583 1 19.791 5.36901 19.791 10.7585C19.791 16.1479 21.8583 20.5169 24.4084 20.5169Z" stroke="black" stroke-miterlimit="10" stroke-linecap="round"/>
<path d="M41.4194 24.7244C45.2303 20.9135 46.8578 16.3624 45.0547 14.5592C43.2515 12.756 38.7003 14.3835 34.8895 18.1944C31.0786 22.0053 29.451 26.5564 31.2542 28.3596C33.0574 30.1628 37.6085 28.5352 41.4194 24.7244Z" stroke="black" stroke-miterlimit="10" stroke-linecap="round"/>
<path d="M18.0664 54.9232C19.8696 53.12 18.242 48.5689 14.4311 44.758C10.6203 40.9471 6.06915 39.3196 4.26595 41.1227C2.46276 42.9259 4.09031 47.4771 7.90118 51.2879C11.7121 55.0988 16.2632 56.7264 18.0664 54.9232Z" stroke="black" stroke-miterlimit="10" stroke-linecap="round"/>
<path d="M41.4204 51.2857C45.2313 47.4748 46.8588 42.9237 45.0556 41.1205C43.2524 39.3173 38.7013 40.9449 34.8904 44.7558C31.0796 48.5666 29.452 53.1178 31.2552 54.921C33.0584 56.7242 37.6095 55.0966 41.4204 51.2857Z" stroke="black" stroke-miterlimit="10" stroke-linecap="round"/>
<path d="M24.5039 27.8953V68.5" stroke="black" stroke-miterlimit="10" stroke-linecap="round"/>
</svg>
