<svg width="48" height="69" viewBox="0 0 48 69" fill="none" xmlns="http://www.w3.org/2000/svg">
<path d="M40.4021 31.3226L33.833 38.0346" stroke="black" stroke-miterlimit="10" stroke-linecap="round"/>
<path d="M6.89062 31.3226L13.4597 38.0346" stroke="black" stroke-miterlimit="10" stroke-linecap="round"/>
<path d="M17.0654 28.3618C18.8686 26.5586 17.241 22.0075 13.4302 18.1966C9.61928 14.3857 5.06817 12.7582 3.26498 14.5614C1.46178 16.3646 3.08933 20.9157 6.90021 24.7266C10.7111 28.5374 15.2622 30.165 17.0654 28.3618Z" stroke="black" stroke-miterlimit="10" stroke-linecap="round"/>
<path d="M23.4084 20.5169C25.9586 20.5169 28.0259 16.1479 28.0259 10.7585C28.0259 5.36901 25.9586 1 23.4084 1C20.8583 1 18.791 5.36901 18.791 10.7585C18.791 16.1479 20.8583 20.5169 23.4084 20.5169Z" stroke="black" stroke-miterlimit="10" stroke-linecap="round"/>
<path d="M40.4194 24.7244C44.2303 20.9135 45.8578 16.3624 44.0547 14.5592C42.2515 12.756 37.7003 14.3835 33.8895 18.1944C30.0786 22.0053 28.451 26.5564 30.2542 28.3596C32.0574 30.1628 36.6085 28.5352 40.4194 24.7244Z" stroke="black" stroke-miterlimit="10" stroke-linecap="round"/>
<path d="M17.0664 54.9232C18.8696 53.12 17.242 48.5689 13.4311 44.758C9.62026 40.9471 5.06915 39.3196 3.26595 41.1227C1.46276 42.9259 3.09031 47.4771 6.90118 51.2879C10.7121 55.0988 15.2632 56.7264 17.0664 54.9232Z" stroke="black" stroke-miterlimit="10" stroke-linecap="round"/>
<path d="M40.4204 51.2857C44.2313 47.4748 45.8588 42.9237 44.0556 41.1205C42.2524 39.3173 37.7013 40.9449 33.8904 44.7558C30.0796 48.5666 28.452 53.1178 30.2552 54.921C32.0584 56.7242 36.6095 55.0966 40.4204 51.2857Z" stroke="black" stroke-miterlimit="10" stroke-linecap="round"/>
<path d="M23.5039 27.8953V68.5" stroke="black" stroke-miterlimit="10" stroke-linecap="round"/>
</svg>
