<svg width="52" height="57" viewBox="0 0 52 57" fill="none" xmlns="http://www.w3.org/2000/svg">
<path d="M16.4762 1L10.2139 7.43521" stroke="black" stroke-miterlimit="10" stroke-linecap="round"/>
<path d="M29.4068 1L23.1895 7.43521" stroke="black" stroke-miterlimit="10" stroke-linecap="round"/>
<path d="M42.3815 1L36.1191 7.43521" stroke="black" stroke-miterlimit="10" stroke-linecap="round"/>
<path d="M29.4068 39.8394L23.1895 46.2747" stroke="black" stroke-miterlimit="10" stroke-linecap="round"/>
<path d="M13.4126 55.9959H10.1238C8.27659 55.9959 6.60963 54.9462 5.75362 53.3032L1.56369 45.3162C0.842842 43.9014 0.797789 42.2127 1.51864 40.7522L6.74479 29.9813C7.0151 29.4336 7.37553 28.9772 7.78101 28.5664L18.3234 18.48C19.2695 17.6129 20.486 17.1108 21.7474 17.1108L30.6679 17.1565C31.9745 17.1565 33.1909 17.7042 34.137 18.617L45.4904 30.1182" stroke="black" stroke-miterlimit="10" stroke-linecap="round"/>
<path d="M19.8105 55.9959L15.2151 46.229C14.314 44.3121 14.7195 42.0758 16.1612 40.5697L24.9015 31.6243C25.8476 30.6658 27.1091 30.1182 28.4156 30.1182H36.8405C38.102 30.1182 39.3635 30.6202 40.2646 31.533L49.4554 40.4784C51.0322 42.0301 51.4377 44.449 50.4015 46.4116L45.4457 55.9959" stroke="black" stroke-miterlimit="10" stroke-linecap="round"/>
<path d="M26.2979 55.9959H39.0028" stroke="black" stroke-miterlimit="10" stroke-linecap="round"/>
</svg>
