<svg width="43" height="44" viewBox="0 0 43 44" fill="none" xmlns="http://www.w3.org/2000/svg">
<path d="M21.6628 42.5452H16.5883C13.7407 42.5452 11.4043 40.2493 11.4043 37.3702C11.4043 34.5277 13.7042 32.1953 16.5883 32.1953H21.6628" stroke="black" stroke-miterlimit="10" stroke-linecap="round"/>
<path d="M21.6626 39.776H16.9167C15.5659 39.776 14.4707 38.6827 14.4707 37.3343C14.4707 35.9859 15.5659 34.8926 16.9167 34.8926H21.6626" stroke="black" stroke-miterlimit="10" stroke-linecap="round"/>
<path d="M18.1973 37.3711H21.6654" stroke="black" stroke-miterlimit="10" stroke-linecap="round"/>
<path d="M32.1416 32.1953H37.2161C40.0636 32.1953 42.4001 34.4912 42.4001 37.3702C42.4001 40.2128 40.1001 42.5452 37.2161 42.5452H32.1416" stroke="black" stroke-miterlimit="10" stroke-linecap="round"/>
<path d="M32.1416 34.9648H36.8875C38.2383 34.9648 39.3335 36.0581 39.3335 37.4065C39.3335 38.7549 38.2383 39.8482 36.8875 39.8482H32.1416" stroke="black" stroke-miterlimit="10" stroke-linecap="round"/>
<path d="M35.6098 37.3711H32.1416" stroke="black" stroke-miterlimit="10" stroke-linecap="round"/>
<path d="M26.9932 32.123V42.5458" stroke="black" stroke-miterlimit="10" stroke-linecap="round"/>
<path d="M29.5488 32.123V42.5458" stroke="black" stroke-miterlimit="10" stroke-linecap="round"/>
<path d="M24.3281 32.123V42.5458" stroke="black" stroke-miterlimit="10" stroke-linecap="round"/>
<path d="M6.22013 42.4351L2.71546 42.508C1.80278 42.5445 1.03613 41.7792 1.03613 40.8681V18.0911C1.03613 17.18 1.76627 16.4512 2.67895 16.4512H9.76131C10.674 16.4512 11.4041 17.18 11.4041 18.0911V26.8739" stroke="black" stroke-miterlimit="10" stroke-linecap="round"/>
<path d="M1 11.3496H11.4045" stroke="black" stroke-miterlimit="10" stroke-linecap="round"/>
<path d="M3.62891 6.21094H8.77639" stroke="black" stroke-miterlimit="10" stroke-linecap="round"/>
<path d="M42.4365 26.8753L25.0957 1.03711" stroke="black" stroke-miterlimit="10" stroke-linecap="round"/>
<path d="M16.5527 19.0029L28.6 1" stroke="black" stroke-miterlimit="10" stroke-linecap="round"/>
<path d="M30.3892 26.8742L27.1036 22.0273C26.9941 21.8815 26.775 21.8815 26.6655 22.0273L23.3799 26.8742" stroke="black" stroke-miterlimit="10" stroke-linecap="round"/>
</svg>
