<svg width="19" height="19" viewBox="0 0 19 19" fill="none" xmlns="http://www.w3.org/2000/svg">
<path d="M17.9801 12.9294V15.3044C17.981 15.5249 17.9358 15.7431 17.8475 15.9452C17.7592 16.1472 17.6296 16.3285 17.4672 16.4776C17.3047 16.6266 17.1129 16.7401 16.904 16.8107C16.6952 16.8814 16.4739 16.9076 16.2543 16.8878C13.8182 16.6231 11.4782 15.7906 9.42219 14.4573C7.50939 13.2419 5.88767 11.6201 4.67219 9.70734C3.33426 7.64204 2.50164 5.29062 2.24178 2.84359C2.22199 2.62466 2.24801 2.40402 2.31817 2.19571C2.38834 1.98739 2.5011 1.79596 2.6493 1.63362C2.7975 1.47127 2.97787 1.34156 3.17895 1.25275C3.38002 1.16393 3.59738 1.11796 3.81719 1.11775H6.19219C6.5764 1.11397 6.94886 1.25002 7.24017 1.50055C7.53148 1.75108 7.72176 2.09898 7.77553 2.47942C7.87577 3.23947 8.06168 3.98574 8.32969 4.704C8.43621 4.98736 8.45926 5.29531 8.39612 5.59137C8.33298 5.88742 8.18629 6.15917 7.97344 6.37442L6.96803 7.37984C8.09501 9.36181 9.73605 11.0029 11.718 12.1298L12.7234 11.1244C12.9387 10.9116 13.2104 10.7649 13.5065 10.7017C13.8026 10.6386 14.1105 10.6617 14.3939 10.7682C15.1121 11.0362 15.8584 11.2221 16.6184 11.3223C17.003 11.3766 17.3542 11.5703 17.6053 11.8666C17.8563 12.1629 17.9897 12.5412 17.9801 12.9294Z" stroke="black" stroke-width="0.5" stroke-linecap="round" stroke-linejoin="round"/>
</svg>
