<svg width="35" height="43" viewBox="0 0 35 43" fill="none" xmlns="http://www.w3.org/2000/svg">
<path d="M17.6101 23.579C16.4384 23.579 15.501 22.64 15.501 21.4663C15.501 20.2925 16.4384 19.3535 17.6101 19.3535C18.7819 19.3535 19.7193 20.2925 19.7193 21.4663C19.69 22.64 18.7526 23.579 17.6101 23.579Z" stroke="black" stroke-miterlimit="10" stroke-linecap="round"/>
<path d="M26.0179 42.2126L17.8449 38.1632C17.7277 38.1045 17.6105 38.1045 17.4934 38.1632L9.32031 42.2126" stroke="black" stroke-miterlimit="10" stroke-linecap="round"/>
<path d="M5.15975 3.01037L1.58588 1.24974C1.32223 1.10302 1 1.30843 1 1.60187V37.8415C1 37.9882 1.08788 38.1349 1.20506 38.1936L5.15975 40.1596" stroke="black" stroke-miterlimit="10" stroke-linecap="round"/>
<path d="M26.0189 5.09346L17.8752 1.04402C17.758 0.985328 17.6408 0.985328 17.5236 1.04402L9.35059 5.09346" stroke="black" stroke-miterlimit="10" stroke-linecap="round"/>
<path d="M30.0605 40.2182L34.1617 38.1935C34.3082 38.1348 34.3668 37.9881 34.3668 37.8414V1.60178C34.3668 1.30834 34.0738 1.13228 33.8102 1.24966L30.0605 3.09832" stroke="black" stroke-miterlimit="10" stroke-linecap="round"/>
<path d="M23.5289 15.5396C26.7805 18.8261 26.7805 24.1373 23.5289 27.3945L17.6115 33.3219L11.6941 27.3945C8.41317 24.1079 8.41317 18.8261 11.6941 15.5396C14.9457 12.2824 20.248 12.2824 23.5289 15.5396Z" stroke="black" stroke-miterlimit="10" stroke-linecap="round"/>
</svg>
