<svg width="27" height="34" viewBox="0 0 27 34" fill="none" xmlns="http://www.w3.org/2000/svg">
<path d="M13.6804 18.5734C12.7978 18.5734 12.0918 17.8426 12.0918 16.9291C12.0918 16.0157 12.7978 15.2849 13.6804 15.2849C14.563 15.2849 15.269 16.0157 15.269 16.9291C15.2469 17.8426 14.5409 18.5734 13.6804 18.5734Z" stroke="black" stroke-miterlimit="10" stroke-linecap="round"/>
<path d="M20.0139 33.0756L13.8581 29.924C13.7699 29.8784 13.6816 29.8784 13.5933 29.924L7.4375 33.0756" stroke="black" stroke-miterlimit="10" stroke-linecap="round"/>
<path d="M4.30399 2.56444L1.61218 1.19417C1.4136 1.07999 1.1709 1.23985 1.1709 1.46823V29.6729C1.1709 29.7871 1.23709 29.9012 1.32535 29.9469L4.30399 31.4771" stroke="black" stroke-miterlimit="10" stroke-linecap="round"/>
<path d="M20.0144 4.18591L13.8806 1.03426C13.7923 0.988581 13.7041 0.988581 13.6158 1.03426L7.45996 4.18591" stroke="black" stroke-miterlimit="10" stroke-linecap="round"/>
<path d="M23.0586 31.5226L26.1475 29.9468C26.2578 29.9011 26.302 29.7869 26.302 29.6727V1.46795C26.302 1.23957 26.0813 1.10255 25.8828 1.1939L23.0586 2.63268" stroke="black" stroke-miterlimit="10" stroke-linecap="round"/>
<path d="M18.1383 12.316C20.5874 14.8739 20.5874 19.0075 18.1383 21.5425L13.6814 26.1558L9.22447 21.5425C6.7533 18.9847 6.7533 14.8739 9.22447 12.316C11.6736 9.78105 15.6671 9.78105 18.1383 12.316Z" stroke="black" stroke-miterlimit="10" stroke-linecap="round"/>
</svg>
