<svg width="35" height="43" viewBox="0 0 35 43" fill="none" xmlns="http://www.w3.org/2000/svg">
<path d="M17.7068 23.5795C16.5351 23.5795 15.5977 22.6405 15.5977 21.4668C15.5977 20.293 16.5351 19.354 17.7068 19.354C18.8786 19.354 19.816 20.293 19.816 21.4668C19.7867 22.6405 18.8493 23.5795 17.7068 23.5795Z" stroke="black" stroke-miterlimit="10" stroke-linecap="round"/>
<path d="M26.1146 42.2131L17.9416 38.1636C17.8244 38.105 17.7072 38.105 17.59 38.1636L9.41699 42.2131" stroke="black" stroke-miterlimit="10" stroke-linecap="round"/>
<path d="M5.25643 3.00988L1.68256 1.24925C1.41891 1.10254 1.09668 1.30794 1.09668 1.60138V37.841C1.09668 37.9877 1.18456 38.1344 1.30174 38.1931L5.25643 40.1592" stroke="black" stroke-miterlimit="10" stroke-linecap="round"/>
<path d="M26.1156 5.09346L17.9718 1.04402C17.8547 0.985328 17.7375 0.985328 17.6203 1.04402L9.44727 5.09346" stroke="black" stroke-miterlimit="10" stroke-linecap="round"/>
<path d="M30.1572 40.2177L34.2584 38.193C34.4049 38.1343 34.4634 37.9876 34.4634 37.8409V1.60129C34.4634 1.30786 34.1705 1.13179 33.9069 1.24917L30.1572 3.09783" stroke="black" stroke-miterlimit="10" stroke-linecap="round"/>
<path d="M23.6256 15.5396C26.8772 18.8261 26.8772 24.1373 23.6256 27.3945L17.7082 33.3219L11.7908 27.3945C8.50984 24.1079 8.50984 18.8261 11.7908 15.5396C15.0424 12.2824 20.3446 12.2824 23.6256 15.5396Z" stroke="black" stroke-miterlimit="10" stroke-linecap="round"/>
</svg>
