<svg width="43" height="43" viewBox="0 0 43 43" fill="none" xmlns="http://www.w3.org/2000/svg">
<path d="M39.9871 31.824H2.90972C1.86478 31.824 1 30.9577 1 29.911V2.91296C1 1.86625 1.86478 1 2.90972 1H39.9871C41.0321 1 41.8968 1.86625 41.8968 2.91296V29.8749C41.8968 30.9577 41.0321 31.824 39.9871 31.824Z" stroke="black" stroke-miterlimit="10" stroke-linecap="round"/>
<path d="M34.832 26.6985H7.98784C6.9429 26.6985 6.07812 25.8322 6.07812 24.7855V8.11023C6.07812 7.06351 6.9429 6.19727 7.98784 6.19727H34.832C35.877 6.19727 36.7417 7.06351 36.7417 8.11023V24.7855C36.7417 25.8322 35.877 26.6985 34.832 26.6985Z" stroke="black" stroke-miterlimit="10" stroke-linecap="round"/>
<path d="M16.2041 42.0391H26.5094" stroke="black" stroke-miterlimit="10" stroke-linecap="round"/>
<path d="M1 36.9131H41.8968" stroke="black" stroke-miterlimit="10" stroke-linecap="round"/>
</svg>
