<svg width="16" height="22" viewBox="0 0 16 22" fill="none" xmlns="http://www.w3.org/2000/svg">
<path d="M8.11254 21.3215L7.92701 21.4891L8.11254 21.6945L8.29806 21.4891L8.11254 21.3215ZM8.11271 5.57228V5.32228V5.57228ZM8.11254 0.75C4.04225 0.75 0.75 4.04225 0.75 8.11254H1.25C1.25 4.31839 4.31839 1.25 8.11254 1.25V0.75ZM0.75 8.11254C0.75 9.49672 1.20997 11.0264 1.88318 12.5291C2.55787 14.0351 3.45524 15.5325 4.34903 16.8573C5.24329 18.1827 6.13707 19.3398 6.80709 20.1653C7.14221 20.5782 7.42163 20.9086 7.61752 21.1359C7.71547 21.2496 7.79255 21.3376 7.84529 21.3973C7.87166 21.4272 7.89194 21.4499 7.9057 21.4653C7.91259 21.4731 7.91784 21.4789 7.92141 21.4829C7.92319 21.4849 7.92456 21.4864 7.92549 21.4874C7.92596 21.4879 7.92632 21.4883 7.92658 21.4886C7.9267 21.4888 7.92681 21.4889 7.92687 21.489C7.92696 21.489 7.92701 21.4891 8.11254 21.3215C8.29806 21.154 8.29806 21.154 8.29804 21.1539C8.29799 21.1539 8.29794 21.1538 8.29785 21.1537C8.29767 21.1535 8.29738 21.1532 8.29699 21.1528C8.2962 21.1519 8.29499 21.1505 8.29335 21.1487C8.29009 21.1451 8.28514 21.1396 8.27856 21.1322C8.26541 21.1175 8.24576 21.0954 8.22003 21.0663C8.16858 21.008 8.09286 20.9216 7.99632 20.8096C7.80324 20.5855 7.527 20.2589 7.19532 19.8502C6.53174 19.0326 5.64738 17.8876 4.76351 16.5776C3.87916 15.2669 2.9984 13.7955 2.33948 12.3247C1.6791 10.8506 1.25 9.39555 1.25 8.11254H0.75ZM8.11254 21.3215C8.29806 21.4891 8.29812 21.489 8.2982 21.489C8.29826 21.4889 8.29837 21.4888 8.2985 21.4886C8.29875 21.4883 8.29911 21.4879 8.29958 21.4874C8.30052 21.4864 8.30188 21.4849 8.30366 21.4829C8.30723 21.4789 8.31249 21.4731 8.31937 21.4653C8.33313 21.4499 8.35342 21.4272 8.37979 21.3973C8.43252 21.3376 8.50961 21.2496 8.60756 21.1359C8.80344 20.9086 9.08286 20.5782 9.41798 20.1653C10.088 19.3398 10.9818 18.1827 11.876 16.8573C12.7698 15.5325 13.6672 14.0351 14.3419 12.5291C15.0151 11.0264 15.4751 9.49672 15.4751 8.11254H14.9751C14.9751 9.39555 14.546 10.8506 13.8856 12.3247C13.2267 13.7955 12.3459 15.2669 11.4616 16.5776C10.5777 17.8876 9.69334 19.0326 9.02976 19.8502C8.69808 20.2589 8.42183 20.5855 8.22875 20.8096C8.13222 20.9216 8.05649 21.008 8.00504 21.0663C7.97932 21.0954 7.95966 21.1175 7.94651 21.1322C7.93994 21.1396 7.93499 21.1451 7.93172 21.1487C7.93009 21.1505 7.92887 21.1519 7.92808 21.1528C7.92769 21.1532 7.9274 21.1535 7.92723 21.1537C7.92714 21.1538 7.92708 21.1539 7.92704 21.1539C7.92701 21.154 7.92701 21.154 8.11254 21.3215ZM15.4751 8.11254C15.4751 4.04225 12.1828 0.75 8.11254 0.75V1.25C11.9067 1.25 14.9751 4.31839 14.9751 8.11254H15.4751ZM8.11271 10.4027C6.84787 10.4027 5.82252 9.37731 5.82252 8.11247H5.32252C5.32252 9.65345 6.57173 10.9027 8.11271 10.9027V10.4027ZM5.82252 8.11247C5.82252 6.84763 6.84787 5.82228 8.11271 5.82228V5.32228C6.57173 5.32228 5.32252 6.57149 5.32252 8.11247H5.82252ZM8.11271 5.82228C9.37755 5.82228 10.4029 6.84763 10.4029 8.11247H10.9029C10.9029 6.57149 9.65369 5.32228 8.11271 5.32228V5.82228ZM10.4029 8.11247C10.4029 9.37731 9.37755 10.4027 8.11271 10.4027V10.9027C9.65369 10.9027 10.9029 9.65345 10.9029 8.11247H10.4029Z" fill="black"/>
</svg>
