<svg width="57" height="44" viewBox="0 0 57 44" fill="none" xmlns="http://www.w3.org/2000/svg">
<path d="M1 12.3153C8.00458 5.34824 17.6236 1 28.2784 1C38.9333 1 48.5522 5.29883 55.5075 12.3153" stroke="black" stroke-miterlimit="10" stroke-linecap="round"/>
<path d="M7.85645 19.1838C13.0852 13.9461 20.2871 10.7344 28.2289 10.7344C36.1708 10.7344 43.3726 13.9461 48.6014 19.1838" stroke="black" stroke-miterlimit="10" stroke-linecap="round"/>
<path d="M14.5156 25.8046C18.0672 22.247 22.9507 20.0234 28.3768 20.0234C33.7536 20.0234 38.637 22.1976 42.1393 25.7058" stroke="black" stroke-miterlimit="10" stroke-linecap="round"/>
<path d="M28.1302 43.0009C26.2064 43.0009 24.6279 41.4197 24.6279 39.4926C24.6279 37.5656 26.2064 35.9844 28.1302 35.9844C30.054 35.9844 31.6325 37.5656 31.6325 39.4926C31.6325 41.4197 30.054 43.0009 28.1302 43.0009Z" stroke="black" stroke-miterlimit="10" stroke-linecap="round"/>
</svg>
