<svg width="43" height="35" viewBox="0 0 43 35" fill="none" xmlns="http://www.w3.org/2000/svg">
<path d="M1 9.86304C6.30967 4.40588 13.6011 1 21.6778 1C29.7545 1 37.0459 4.36718 42.3182 9.86304" stroke="black" stroke-miterlimit="10" stroke-linecap="round"/>
<path d="M6.19824 15.2427C10.1618 11.1401 15.621 8.62439 21.6411 8.62439C27.6613 8.62439 33.1205 11.1401 37.084 15.2427" stroke="black" stroke-miterlimit="10" stroke-linecap="round"/>
<path d="M11.2441 20.4292C13.9364 17.6425 17.6382 15.9008 21.7513 15.9008C25.827 15.9008 29.5289 17.6038 32.1837 20.3518" stroke="black" stroke-miterlimit="10" stroke-linecap="round"/>
<path d="M21.566 33.8981C20.1077 33.8981 18.9111 32.6596 18.9111 31.1501C18.9111 29.6407 20.1077 28.4022 21.566 28.4022C23.0243 28.4022 24.2208 29.6407 24.2208 31.1501C24.2208 32.6596 23.0243 33.8981 21.566 33.8981Z" stroke="black" stroke-miterlimit="10" stroke-linecap="round"/>
</svg>
