<?xml version="1.0" encoding="UTF-8" standalone="no"?>
<!DOCTYPE svg PUBLIC "-//W3C//DTD SVG 1.1//EN"
 "http://www.w3.org/Graphics/SVG/1.1/DTD/svg11.dtd">
<!-- Generated by graphviz version 2.44.1 (20200629.0846)
 -->
<!-- Title: dependencies Pages: 1 -->
<svg width="5543pt" height="436pt"
 viewBox="0.00 0.00 5543.00 436.00" xmlns="http://www.w3.org/2000/svg" xmlns:xlink="http://www.w3.org/1999/xlink">
<g id="graph0" class="graph" transform="scale(1 1) rotate(0) translate(4 432)">
<title>dependencies</title>
<polygon fill="white" stroke="transparent" points="-4,4 -4,-432 5539,-432 5539,4 -4,4"/>
<text text-anchor="start" x="2746.51" y="-42.4" font-family="sans-serif" font-weight="bold" font-size="14.00">Legend</text>
<polygon fill="#ffffb3" stroke="transparent" points="2533.5,-10 2533.5,-30 2553.5,-30 2553.5,-10 2533.5,-10"/>
<text text-anchor="start" x="2557.13" y="-15.4" font-family="sans-serif" font-size="14.00"> &#160;Declarations</text>
<polygon fill="#8dd3c7" stroke="transparent" points="2646.5,-10 2646.5,-30 2666.5,-30 2666.5,-10 2646.5,-10"/>
<text text-anchor="start" x="2670.23" y="-15.4" font-family="sans-serif" font-size="14.00"> &#160;Module</text>
<polygon fill="#80b1d3" stroke="transparent" points="2732.5,-10 2732.5,-30 2752.5,-30 2752.5,-10 2732.5,-10"/>
<text text-anchor="start" x="2756.28" y="-15.4" font-family="sans-serif" font-size="14.00"> &#160;Bootstrap</text>
<polygon fill="#fdb462" stroke="transparent" points="2829.5,-10 2829.5,-30 2849.5,-30 2849.5,-10 2829.5,-10"/>
<text text-anchor="start" x="2853.17" y="-15.4" font-family="sans-serif" font-size="14.00"> &#160;Providers</text>
<polygon fill="#fb8072" stroke="transparent" points="2925.5,-10 2925.5,-30 2945.5,-30 2945.5,-10 2925.5,-10"/>
<text text-anchor="start" x="2949.23" y="-15.4" font-family="sans-serif" font-size="14.00"> &#160;Exports</text>
<g id="clust1" class="cluster">
<title>cluster_AppModule</title>
<polygon fill="none" stroke="black" stroke-dasharray="1,5" points="2125,-222 2125,-420 3049,-420 3049,-222 2125,-222"/>
</g>
<g id="clust2" class="cluster">
<title>cluster_AppModule_declarations</title>
<polygon fill="none" stroke="black" points="2505,-230 2505,-282 3041,-282 3041,-230 2505,-230"/>
</g>
<g id="clust7" class="cluster">
<title>cluster_AppModule_imports</title>
<polygon fill="none" stroke="black" points="2133,-230 2133,-282 2497,-282 2497,-230 2133,-230"/>
</g>
<g id="clust9" class="cluster">
<title>cluster_AppModule_bootstrap</title>
<polygon fill="none" stroke="black" points="2511,-360 2511,-412 2635,-412 2635,-360 2511,-360"/>
</g>
<g id="clust17" class="cluster">
<title>cluster_DashboardModule</title>
<polygon fill="none" stroke="black" stroke-dasharray="1,5" points="4090,-70 4090,-206 5527,-206 5527,-70 4090,-70"/>
</g>
<g id="clust18" class="cluster">
<title>cluster_DashboardModule_declarations</title>
<polygon fill="none" stroke="black" points="4288,-78 4288,-130 5519,-130 5519,-78 4288,-78"/>
</g>
<g id="clust26" class="cluster">
<title>cluster_DashboardModule_imports</title>
<polygon fill="none" stroke="black" points="4098,-78 4098,-130 4280,-130 4280,-78 4098,-78"/>
</g>
<g id="clust36" class="cluster">
<title>cluster_PagesModule</title>
<polygon fill="none" stroke="black" stroke-dasharray="1,5" points="8,-146 8,-214 4082,-214 4082,-146 8,-146"/>
</g>
<g id="clust37" class="cluster">
<title>cluster_PagesModule_declarations</title>
<polygon fill="none" stroke="black" points="1790,-154 1790,-206 4074,-206 4074,-154 1790,-154"/>
</g>
<g id="clust53" class="cluster">
<title>cluster_PagesModule_imports</title>
<polygon fill="none" stroke="black" points="1658,-154 1658,-206 1782,-206 1782,-154 1658,-154"/>
</g>
<g id="clust54" class="cluster">
<title>cluster_PagesModule_exports</title>
<polygon fill="none" stroke="black" points="16,-154 16,-206 1650,-206 1650,-154 16,-154"/>
</g>
<g id="clust63" class="cluster">
<title>cluster_ProductsModule</title>
<polygon fill="none" stroke="black" stroke-dasharray="1,5" points="1018,-70 1018,-138 2463,-138 2463,-70 1018,-70"/>
</g>
<g id="clust64" class="cluster">
<title>cluster_ProductsModule_declarations</title>
<polygon fill="none" stroke="black" points="1198,-78 1198,-130 2455,-130 2455,-78 1198,-78"/>
</g>
<g id="clust73" class="cluster">
<title>cluster_ProductsModule_imports</title>
<polygon fill="none" stroke="black" points="1026,-78 1026,-130 1190,-130 1190,-78 1026,-78"/>
</g>
<!-- AppComponent -->
<g id="node1" class="node">
<title>AppComponent</title>
<polygon fill="#ffffb3" stroke="black" points="3032.94,-274 2927.06,-274 2927.06,-238 3032.94,-238 3032.94,-274"/>
<text text-anchor="middle" x="2980" y="-251.8" font-family="Times,serif" font-size="14.00">AppComponent</text>
</g>
<!-- AppModule -->
<g id="node5" class="node">
<title>AppModule</title>
<polygon fill="#8dd3c7" stroke="black" points="2614.66,-339 2611.66,-343 2590.66,-343 2587.66,-339 2531.34,-339 2531.34,-303 2614.66,-303 2614.66,-339"/>
<text text-anchor="middle" x="2573" y="-316.8" font-family="Times,serif" font-size="14.00">AppModule</text>
</g>
<!-- AppComponent&#45;&gt;AppModule -->
<g id="edge1" class="edge">
<title>AppComponent&#45;&gt;AppModule</title>
<path fill="none" stroke="black" d="M2980,-274.29C2980,-296.21 2980,-330 2980,-330 2980,-330 2625.02,-330 2625.02,-330"/>
<polygon fill="black" stroke="black" points="2625.02,-326.5 2615.02,-330 2625.02,-333.5 2625.02,-326.5"/>
</g>
<!-- FooterComponent -->
<g id="node2" class="node">
<title>FooterComponent</title>
<polygon fill="#ffffb3" stroke="black" points="2908.88,-274 2791.12,-274 2791.12,-238 2908.88,-238 2908.88,-274"/>
<text text-anchor="middle" x="2850" y="-251.8" font-family="Times,serif" font-size="14.00">FooterComponent</text>
</g>
<!-- FooterComponent&#45;&gt;AppModule -->
<g id="edge2" class="edge">
<title>FooterComponent&#45;&gt;AppModule</title>
<path fill="none" stroke="black" d="M2850,-274.11C2850,-293.34 2850,-321 2850,-321 2850,-321 2624.77,-321 2624.77,-321"/>
<polygon fill="black" stroke="black" points="2624.77,-317.5 2614.77,-321 2624.77,-324.5 2624.77,-317.5"/>
</g>
<!-- NavbarComponent -->
<g id="node3" class="node">
<title>NavbarComponent</title>
<polygon fill="#ffffb3" stroke="black" points="2773.03,-274 2650.97,-274 2650.97,-238 2773.03,-238 2773.03,-274"/>
<text text-anchor="middle" x="2712" y="-251.8" font-family="Times,serif" font-size="14.00">NavbarComponent</text>
</g>
<!-- NavbarComponent&#45;&gt;AppModule -->
<g id="edge3" class="edge">
<title>NavbarComponent&#45;&gt;AppModule</title>
<path fill="none" stroke="black" d="M2712,-274.03C2712,-290.4 2712,-312 2712,-312 2712,-312 2624.7,-312 2624.7,-312"/>
<polygon fill="black" stroke="black" points="2624.7,-308.5 2614.7,-312 2624.7,-315.5 2624.7,-308.5"/>
</g>
<!-- SearchComponent -->
<g id="node4" class="node">
<title>SearchComponent</title>
<polygon fill="#ffffb3" stroke="black" points="2632.92,-274 2513.08,-274 2513.08,-238 2632.92,-238 2632.92,-274"/>
<text text-anchor="middle" x="2573" y="-251.8" font-family="Times,serif" font-size="14.00">SearchComponent</text>
</g>
<!-- SearchComponent&#45;&gt;AppModule -->
<g id="edge4" class="edge">
<title>SearchComponent&#45;&gt;AppModule</title>
<path fill="none" stroke="black" d="M2573,-274.11C2573,-274.11 2573,-292.99 2573,-292.99"/>
<polygon fill="black" stroke="black" points="2569.5,-292.99 2573,-302.99 2576.5,-292.99 2569.5,-292.99"/>
</g>
<!-- AppComponent  -->
<g id="node9" class="node">
<title>AppComponent </title>
<polygon fill="#80b1d3" stroke="black" points="2627.44,-404 2518.56,-404 2518.56,-368 2627.44,-368 2627.44,-404"/>
<text text-anchor="middle" x="2573" y="-381.8" font-family="Times,serif" font-size="14.00">AppComponent </text>
</g>
<!-- AppModule&#45;&gt;AppComponent  -->
<g id="edge8" class="edge">
<title>AppModule&#45;&gt;AppComponent </title>
<path fill="none" stroke="black" stroke-dasharray="1,5" d="M2573,-339.11C2573,-339.11 2573,-357.99 2573,-357.99"/>
<polygon fill="black" stroke="black" points="2569.5,-357.99 2573,-367.99 2576.5,-357.99 2569.5,-357.99"/>
</g>
<!-- !environment -->
<g id="node6" class="node">
<title>!environment</title>
<polygon fill="#8dd3c7" stroke="black" points="2488.92,-274 2485.92,-278 2464.92,-278 2461.92,-274 2397.08,-274 2397.08,-238 2488.92,-238 2488.92,-274"/>
<text text-anchor="middle" x="2443" y="-251.8" font-family="Times,serif" font-size="14.00">!environment</text>
</g>
<!-- !environment&#45;&gt;AppModule -->
<g id="edge5" class="edge">
<title>!environment&#45;&gt;AppModule</title>
<path fill="none" stroke="black" d="M2443,-274.03C2443,-290.4 2443,-312 2443,-312 2443,-312 2521.15,-312 2521.15,-312"/>
<polygon fill="black" stroke="black" points="2521.15,-315.5 2531.15,-312 2521.15,-308.5 2521.15,-315.5"/>
</g>
<!-- AppRoutingModule -->
<g id="node7" class="node">
<title>AppRoutingModule</title>
<polygon fill="#8dd3c7" stroke="black" points="2379.27,-274 2376.27,-278 2355.27,-278 2352.27,-274 2250.73,-274 2250.73,-238 2379.27,-238 2379.27,-274"/>
<text text-anchor="middle" x="2315" y="-251.8" font-family="Times,serif" font-size="14.00">AppRoutingModule</text>
</g>
<!-- AppRoutingModule&#45;&gt;AppModule -->
<g id="edge6" class="edge">
<title>AppRoutingModule&#45;&gt;AppModule</title>
<path fill="none" stroke="black" d="M2315,-274.11C2315,-293.34 2315,-321 2315,-321 2315,-321 2521.26,-321 2521.26,-321"/>
<polygon fill="black" stroke="black" points="2521.26,-324.5 2531.26,-321 2521.26,-317.5 2521.26,-324.5"/>
</g>
<!-- PagesModule -->
<g id="node8" class="node">
<title>PagesModule</title>
<polygon fill="#8dd3c7" stroke="black" points="2233.21,-274 2230.21,-278 2209.21,-278 2206.21,-274 2140.79,-274 2140.79,-238 2233.21,-238 2233.21,-274"/>
<text text-anchor="middle" x="2187" y="-251.8" font-family="Times,serif" font-size="14.00">PagesModule</text>
</g>
<!-- PagesModule&#45;&gt;AppModule -->
<g id="edge7" class="edge">
<title>PagesModule&#45;&gt;AppModule</title>
<path fill="none" stroke="black" d="M2187,-274.29C2187,-296.21 2187,-330 2187,-330 2187,-330 2521.32,-330 2521.32,-330"/>
<polygon fill="black" stroke="black" points="2521.32,-333.5 2531.32,-330 2521.32,-326.5 2521.32,-333.5"/>
</g>
<!-- BusinessComponent  -->
<g id="node35" class="node">
<title>BusinessComponent </title>
<polygon fill="#fb8072" stroke="black" points="1642.11,-198 1507.89,-198 1507.89,-162 1642.11,-162 1642.11,-198"/>
<text text-anchor="middle" x="1575" y="-175.8" font-family="Times,serif" font-size="14.00">BusinessComponent </text>
</g>
<!-- PagesModule&#45;&gt;BusinessComponent  -->
<g id="edge34" class="edge">
<title>PagesModule&#45;&gt;BusinessComponent </title>
<path fill="none" stroke="black" stroke-dasharray="5,2" d="M2140.75,-249C1998.18,-249 1575,-249 1575,-249 1575,-249 1575,-208.13 1575,-208.13"/>
<polygon fill="black" stroke="black" points="1578.5,-208.13 1575,-198.13 1571.5,-208.13 1578.5,-208.13"/>
</g>
<!-- DestinationComponent  -->
<g id="node36" class="node">
<title>DestinationComponent </title>
<polygon fill="#fb8072" stroke="black" points="1489.88,-198 1340.12,-198 1340.12,-162 1489.88,-162 1489.88,-198"/>
<text text-anchor="middle" x="1415" y="-175.8" font-family="Times,serif" font-size="14.00">DestinationComponent </text>
</g>
<!-- PagesModule&#45;&gt;DestinationComponent  -->
<g id="edge35" class="edge">
<title>PagesModule&#45;&gt;DestinationComponent </title>
<path fill="none" stroke="black" stroke-dasharray="5,2" d="M2140.73,-251C1974.18,-251 1415,-251 1415,-251 1415,-251 1415,-208.28 1415,-208.28"/>
<polygon fill="black" stroke="black" points="1418.5,-208.28 1415,-198.28 1411.5,-208.28 1418.5,-208.28"/>
</g>
<!-- GoodsAndServicesComponent  -->
<g id="node37" class="node">
<title>GoodsAndServicesComponent </title>
<polygon fill="#fb8072" stroke="black" points="1322.41,-198 1129.59,-198 1129.59,-162 1322.41,-162 1322.41,-198"/>
<text text-anchor="middle" x="1226" y="-175.8" font-family="Times,serif" font-size="14.00">GoodsAndServicesComponent </text>
</g>
<!-- PagesModule&#45;&gt;GoodsAndServicesComponent  -->
<g id="edge36" class="edge">
<title>PagesModule&#45;&gt;GoodsAndServicesComponent </title>
<path fill="none" stroke="black" stroke-dasharray="5,2" d="M2140.65,-254C1948.69,-254 1226,-254 1226,-254 1226,-254 1226,-208.29 1226,-208.29"/>
<polygon fill="black" stroke="black" points="1229.5,-208.29 1226,-198.29 1222.5,-208.29 1229.5,-208.29"/>
</g>
<!-- HomeComponent  -->
<g id="node38" class="node">
<title>HomeComponent </title>
<polygon fill="#fb8072" stroke="black" points="1111.54,-198 992.46,-198 992.46,-162 1111.54,-162 1111.54,-198"/>
<text text-anchor="middle" x="1052" y="-175.8" font-family="Times,serif" font-size="14.00">HomeComponent </text>
</g>
<!-- PagesModule&#45;&gt;HomeComponent  -->
<g id="edge37" class="edge">
<title>PagesModule&#45;&gt;HomeComponent </title>
<path fill="none" stroke="black" stroke-dasharray="5,2" d="M2140.75,-256C1927.79,-256 1052,-256 1052,-256 1052,-256 1052,-208.01 1052,-208.01"/>
<polygon fill="black" stroke="black" points="1055.5,-208.01 1052,-198.01 1048.5,-208.01 1055.5,-208.01"/>
</g>
<!-- InformationComponent  -->
<g id="node39" class="node">
<title>InformationComponent </title>
<polygon fill="#fb8072" stroke="black" points="974.7,-198 823.3,-198 823.3,-162 974.7,-162 974.7,-198"/>
<text text-anchor="middle" x="899" y="-175.8" font-family="Times,serif" font-size="14.00">InformationComponent </text>
</g>
<!-- PagesModule&#45;&gt;InformationComponent  -->
<g id="edge38" class="edge">
<title>PagesModule&#45;&gt;InformationComponent </title>
<path fill="none" stroke="black" stroke-dasharray="5,2" d="M2140.78,-259C1910.6,-259 899,-259 899,-259 899,-259 899,-208.32 899,-208.32"/>
<polygon fill="black" stroke="black" points="902.5,-208.32 899,-198.32 895.5,-208.32 902.5,-208.32"/>
</g>
<!-- ProfileComponent  -->
<g id="node40" class="node">
<title>ProfileComponent </title>
<polygon fill="#fb8072" stroke="black" points="805.43,-198 682.57,-198 682.57,-162 805.43,-162 805.43,-198"/>
<text text-anchor="middle" x="744" y="-175.8" font-family="Times,serif" font-size="14.00">ProfileComponent </text>
</g>
<!-- PagesModule&#45;&gt;ProfileComponent  -->
<g id="edge39" class="edge">
<title>PagesModule&#45;&gt;ProfileComponent </title>
<path fill="none" stroke="black" stroke-dasharray="5,2" d="M2140.62,-262C1893.63,-262 744,-262 744,-262 744,-262 744,-208.2 744,-208.2"/>
<polygon fill="black" stroke="black" points="747.5,-208.2 744,-198.2 740.5,-208.2 747.5,-208.2"/>
</g>
<!-- RegistryComponent  -->
<g id="node41" class="node">
<title>RegistryComponent </title>
<polygon fill="#fb8072" stroke="black" points="664.27,-198 531.73,-198 531.73,-162 664.27,-162 664.27,-198"/>
<text text-anchor="middle" x="598" y="-175.8" font-family="Times,serif" font-size="14.00">RegistryComponent </text>
</g>
<!-- PagesModule&#45;&gt;RegistryComponent  -->
<g id="edge40" class="edge">
<title>PagesModule&#45;&gt;RegistryComponent </title>
<path fill="none" stroke="black" stroke-dasharray="5,2" d="M2140.73,-264C1879.23,-264 598,-264 598,-264 598,-264 598,-208.23 598,-208.23"/>
<polygon fill="black" stroke="black" points="601.5,-208.23 598,-198.23 594.5,-208.23 601.5,-208.23"/>
</g>
<!-- TourismCategoryComponent  -->
<g id="node42" class="node">
<title>TourismCategoryComponent </title>
<polygon fill="#fb8072" stroke="black" points="513.59,-198 330.41,-198 330.41,-162 513.59,-162 513.59,-198"/>
<text text-anchor="middle" x="422" y="-175.8" font-family="Times,serif" font-size="14.00">TourismCategoryComponent </text>
</g>
<!-- PagesModule&#45;&gt;TourismCategoryComponent  -->
<g id="edge41" class="edge">
<title>PagesModule&#45;&gt;TourismCategoryComponent </title>
<path fill="none" stroke="black" stroke-dasharray="5,2" d="M2140.7,-267C1862.22,-267 422,-267 422,-267 422,-267 422,-208.03 422,-208.03"/>
<polygon fill="black" stroke="black" points="425.5,-208.03 422,-198.03 418.5,-208.03 425.5,-208.03"/>
</g>
<!-- TourismComponent  -->
<g id="node43" class="node">
<title>TourismComponent </title>
<polygon fill="#fb8072" stroke="black" points="312.27,-198 179.73,-198 179.73,-162 312.27,-162 312.27,-198"/>
<text text-anchor="middle" x="246" y="-175.8" font-family="Times,serif" font-size="14.00">TourismComponent </text>
</g>
<!-- PagesModule&#45;&gt;TourismComponent  -->
<g id="edge42" class="edge">
<title>PagesModule&#45;&gt;TourismComponent </title>
<path fill="none" stroke="black" stroke-dasharray="5,2" d="M2140.46,-269C1845.28,-269 246,-269 246,-269 246,-269 246,-208.01 246,-208.01"/>
<polygon fill="black" stroke="black" points="249.5,-208.01 246,-198.01 242.5,-208.01 249.5,-208.01"/>
</g>
<!-- WelcomeComponent  -->
<g id="node44" class="node">
<title>WelcomeComponent </title>
<polygon fill="#fb8072" stroke="black" points="162.47,-198 23.53,-198 23.53,-162 162.47,-162 162.47,-198"/>
<text text-anchor="middle" x="93" y="-175.8" font-family="Times,serif" font-size="14.00">WelcomeComponent </text>
</g>
<!-- PagesModule&#45;&gt;WelcomeComponent  -->
<g id="edge43" class="edge">
<title>PagesModule&#45;&gt;WelcomeComponent </title>
<path fill="none" stroke="black" stroke-dasharray="5,2" d="M2140.82,-272C1833.23,-272 93,-272 93,-272 93,-272 93,-208.18 93,-208.18"/>
<polygon fill="black" stroke="black" points="96.5,-208.18 93,-198.18 89.5,-208.18 96.5,-208.18"/>
</g>
<!-- AddressComponent -->
<g id="node10" class="node">
<title>AddressComponent</title>
<polygon fill="#ffffb3" stroke="black" points="5510.7,-122 5383.3,-122 5383.3,-86 5510.7,-86 5510.7,-122"/>
<text text-anchor="middle" x="5447" y="-99.8" font-family="Times,serif" font-size="14.00">AddressComponent</text>
</g>
<!-- DashboardModule -->
<g id="node17" class="node">
<title>DashboardModule</title>
<polygon fill="#8dd3c7" stroke="black" points="4788.19,-198 4785.19,-202 4764.19,-202 4761.19,-198 4667.81,-198 4667.81,-162 4788.19,-162 4788.19,-198"/>
<text text-anchor="middle" x="4728" y="-175.8" font-family="Times,serif" font-size="14.00">DashboardModule</text>
</g>
<!-- AddressComponent&#45;&gt;DashboardModule -->
<g id="edge9" class="edge">
<title>AddressComponent&#45;&gt;DashboardModule</title>
<path fill="none" stroke="black" d="M5447,-122.03C5447,-147.51 5447,-191 5447,-191 5447,-191 4798.37,-191 4798.37,-191"/>
<polygon fill="black" stroke="black" points="4798.37,-187.5 4788.37,-191 4798.37,-194.5 4798.37,-187.5"/>
</g>
<!-- ContactComponent -->
<g id="node11" class="node">
<title>ContactComponent</title>
<polygon fill="#ffffb3" stroke="black" points="5365.38,-122 5240.62,-122 5240.62,-86 5365.38,-86 5365.38,-122"/>
<text text-anchor="middle" x="5303" y="-99.8" font-family="Times,serif" font-size="14.00">ContactComponent</text>
</g>
<!-- ContactComponent&#45;&gt;DashboardModule -->
<g id="edge10" class="edge">
<title>ContactComponent&#45;&gt;DashboardModule</title>
<path fill="none" stroke="black" d="M5303,-122.15C5303,-145.76 5303,-184 5303,-184 5303,-184 4798.18,-184 4798.18,-184"/>
<polygon fill="black" stroke="black" points="4798.18,-180.5 4788.18,-184 4798.18,-187.5 4798.18,-180.5"/>
</g>
<!-- HomeDashboardComponent -->
<g id="node12" class="node">
<title>HomeDashboardComponent</title>
<polygon fill="#ffffb3" stroke="black" points="5222.19,-122 5045.81,-122 5045.81,-86 5222.19,-86 5222.19,-122"/>
<text text-anchor="middle" x="5134" y="-99.8" font-family="Times,serif" font-size="14.00">HomeDashboardComponent</text>
</g>
<!-- HomeDashboardComponent&#45;&gt;DashboardModule -->
<g id="edge11" class="edge">
<title>HomeDashboardComponent&#45;&gt;DashboardModule</title>
<path fill="none" stroke="black" d="M5134,-122.04C5134,-143.66 5134,-177 5134,-177 5134,-177 4798.34,-177 4798.34,-177"/>
<polygon fill="black" stroke="black" points="4798.34,-173.5 4788.34,-177 4798.34,-180.5 4798.34,-173.5"/>
</g>
<!-- ProductsDashboardComponent -->
<g id="node13" class="node">
<title>ProductsDashboardComponent</title>
<polygon fill="#ffffb3" stroke="black" points="5027.47,-122 4836.53,-122 4836.53,-86 5027.47,-86 5027.47,-122"/>
<text text-anchor="middle" x="4932" y="-99.8" font-family="Times,serif" font-size="14.00">ProductsDashboardComponent</text>
</g>
<!-- ProductsDashboardComponent&#45;&gt;DashboardModule -->
<g id="edge12" class="edge">
<title>ProductsDashboardComponent&#45;&gt;DashboardModule</title>
<path fill="none" stroke="black" d="M4932,-122.03C4932,-141.58 4932,-170 4932,-170 4932,-170 4798.1,-170 4798.1,-170"/>
<polygon fill="black" stroke="black" points="4798.1,-166.5 4788.1,-170 4798.1,-173.5 4798.1,-166.5"/>
</g>
<!-- ProfileDashboardComponent -->
<g id="node14" class="node">
<title>ProfileDashboardComponent</title>
<polygon fill="#ffffb3" stroke="black" points="4818.07,-122 4637.93,-122 4637.93,-86 4818.07,-86 4818.07,-122"/>
<text text-anchor="middle" x="4728" y="-99.8" font-family="Times,serif" font-size="14.00">ProfileDashboardComponent</text>
</g>
<!-- ProfileDashboardComponent&#45;&gt;DashboardModule -->
<g id="edge13" class="edge">
<title>ProfileDashboardComponent&#45;&gt;DashboardModule</title>
<path fill="none" stroke="black" d="M4728,-122.01C4728,-122.01 4728,-151.85 4728,-151.85"/>
<polygon fill="black" stroke="black" points="4724.5,-151.85 4728,-161.85 4731.5,-151.85 4724.5,-151.85"/>
</g>
<!-- ServicesDashboardComponent -->
<g id="node15" class="node">
<title>ServicesDashboardComponent</title>
<polygon fill="#ffffb3" stroke="black" points="4619.9,-122 4430.1,-122 4430.1,-86 4619.9,-86 4619.9,-122"/>
<text text-anchor="middle" x="4525" y="-99.8" font-family="Times,serif" font-size="14.00">ServicesDashboardComponent</text>
</g>
<!-- ServicesDashboardComponent&#45;&gt;DashboardModule -->
<g id="edge14" class="edge">
<title>ServicesDashboardComponent&#45;&gt;DashboardModule</title>
<path fill="none" stroke="black" d="M4525,-122.31C4525,-142.15 4525,-171 4525,-171 4525,-171 4657.64,-171 4657.64,-171"/>
<polygon fill="black" stroke="black" points="4657.64,-174.5 4667.64,-171 4657.64,-167.5 4657.64,-174.5"/>
</g>
<!-- StoresComponent -->
<g id="node16" class="node">
<title>StoresComponent</title>
<polygon fill="#ffffb3" stroke="black" points="4412.33,-122 4295.67,-122 4295.67,-86 4412.33,-86 4412.33,-122"/>
<text text-anchor="middle" x="4354" y="-99.8" font-family="Times,serif" font-size="14.00">StoresComponent</text>
</g>
<!-- StoresComponent&#45;&gt;DashboardModule -->
<g id="edge15" class="edge">
<title>StoresComponent&#45;&gt;DashboardModule</title>
<path fill="none" stroke="black" d="M4354,-122.01C4354,-144.49 4354,-180 4354,-180 4354,-180 4657.49,-180 4657.49,-180"/>
<polygon fill="black" stroke="black" points="4657.49,-183.5 4667.49,-180 4657.49,-176.5 4657.49,-183.5"/>
</g>
<!-- DashboardModule&#45;&gt;PagesModule -->
<g id="edge32" class="edge">
<title>DashboardModule&#45;&gt;PagesModule</title>
<path fill="none" stroke="black" d="M4728,-198.03C4728,-214.4 4728,-236 4728,-236 4728,-236 2226.96,-236 2226.96,-236 2226.96,-236 2226.96,-236.18 2226.96,-236.18"/>
<polygon fill="black" stroke="black" points="2223.46,-227.85 2226.96,-237.85 2230.46,-227.85 2223.46,-227.85"/>
</g>
<!-- DashboardRoutingModule -->
<g id="node18" class="node">
<title>DashboardRoutingModule</title>
<polygon fill="#8dd3c7" stroke="black" points="4271.81,-122 4268.81,-126 4247.81,-126 4244.81,-122 4106.19,-122 4106.19,-86 4271.81,-86 4271.81,-122"/>
<text text-anchor="middle" x="4189" y="-99.8" font-family="Times,serif" font-size="14.00">DashboardRoutingModule</text>
</g>
<!-- DashboardRoutingModule&#45;&gt;DashboardModule -->
<g id="edge16" class="edge">
<title>DashboardRoutingModule&#45;&gt;DashboardModule</title>
<path fill="none" stroke="black" d="M4189,-122.03C4189,-146.98 4189,-189 4189,-189 4189,-189 4657.74,-189 4657.74,-189"/>
<polygon fill="black" stroke="black" points="4657.74,-192.5 4667.74,-189 4657.74,-185.5 4657.74,-192.5"/>
</g>
<!-- BusinessComponent -->
<g id="node19" class="node">
<title>BusinessComponent</title>
<polygon fill="#ffffb3" stroke="black" points="4065.61,-198 3934.39,-198 3934.39,-162 4065.61,-162 4065.61,-198"/>
<text text-anchor="middle" x="4000" y="-175.8" font-family="Times,serif" font-size="14.00">BusinessComponent</text>
</g>
<!-- BusinessComponent&#45;&gt;PagesModule -->
<g id="edge17" class="edge">
<title>BusinessComponent&#45;&gt;PagesModule</title>
<path fill="none" stroke="black" d="M4000,-198.24C4000,-213.57 4000,-233 4000,-233 4000,-233 2220.81,-233 2220.81,-233 2220.81,-233 2220.81,-233.49 2220.81,-233.49"/>
<polygon fill="black" stroke="black" points="2217.31,-227.88 2220.81,-237.88 2224.31,-227.88 2217.31,-227.88"/>
</g>
<!-- DestinationComponent -->
<g id="node20" class="node">
<title>DestinationComponent</title>
<polygon fill="#ffffb3" stroke="black" points="3916.88,-198 3771.12,-198 3771.12,-162 3916.88,-162 3916.88,-198"/>
<text text-anchor="middle" x="3844" y="-175.8" font-family="Times,serif" font-size="14.00">DestinationComponent</text>
</g>
<!-- DestinationComponent&#45;&gt;PagesModule -->
<g id="edge18" class="edge">
<title>DestinationComponent&#45;&gt;PagesModule</title>
<path fill="none" stroke="black" d="M3844,-198.05C3844,-212.37 3844,-230 3844,-230 3844,-230 2214.66,-230 2214.66,-230 2214.66,-230 2214.66,-230.79 2214.66,-230.79"/>
<polygon fill="black" stroke="black" points="2211.16,-227.94 2214.66,-237.94 2218.16,-227.94 2211.16,-227.94"/>
</g>
<!-- GoodsAndServicesComponent -->
<g id="node21" class="node">
<title>GoodsAndServicesComponent</title>
<polygon fill="#ffffb3" stroke="black" points="3752.91,-198 3563.09,-198 3563.09,-162 3752.91,-162 3752.91,-198"/>
<text text-anchor="middle" x="3658" y="-175.8" font-family="Times,serif" font-size="14.00">GoodsAndServicesComponent</text>
</g>
<!-- GoodsAndServicesComponent&#45;&gt;PagesModule -->
<g id="edge19" class="edge">
<title>GoodsAndServicesComponent&#45;&gt;PagesModule</title>
<path fill="none" stroke="black" d="M3658,-198.04C3658,-211.29 3658,-227 3658,-227 3658,-227 2208.51,-227 2208.51,-227 2208.51,-227 2208.51,-228.08 2208.51,-228.08"/>
<polygon fill="black" stroke="black" points="2205.01,-227.8 2208.51,-237.8 2212.01,-227.8 2205.01,-227.8"/>
</g>
<!-- HomeComponent -->
<g id="node22" class="node">
<title>HomeComponent</title>
<polygon fill="#ffffb3" stroke="black" points="3545.55,-198 3430.45,-198 3430.45,-162 3545.55,-162 3545.55,-198"/>
<text text-anchor="middle" x="3488" y="-175.8" font-family="Times,serif" font-size="14.00">HomeComponent</text>
</g>
<!-- HomeComponent&#45;&gt;PagesModule -->
<g id="edge20" class="edge">
<title>HomeComponent&#45;&gt;PagesModule</title>
<path fill="none" stroke="black" d="M3488,-198.15C3488,-210.27 3488,-224 3488,-224 3488,-224 2202.37,-224 2202.37,-224 2202.37,-224 2202.37,-227.76 2202.37,-227.76"/>
<polygon fill="black" stroke="black" points="2198.87,-227.76 2202.37,-237.76 2205.87,-227.76 2198.87,-227.76"/>
</g>
<!-- InformationComponent -->
<g id="node23" class="node">
<title>InformationComponent</title>
<polygon fill="#ffffb3" stroke="black" points="3412.2,-198 3263.8,-198 3263.8,-162 3412.2,-162 3412.2,-198"/>
<text text-anchor="middle" x="3338" y="-175.8" font-family="Times,serif" font-size="14.00">InformationComponent</text>
</g>
<!-- InformationComponent&#45;&gt;PagesModule -->
<g id="edge21" class="edge">
<title>InformationComponent&#45;&gt;PagesModule</title>
<path fill="none" stroke="black" d="M3338,-198.1C3338,-209.09 3338,-221 3338,-221 3338,-221 2196.22,-221 2196.22,-221 2196.22,-221 2196.22,-227.68 2196.22,-227.68"/>
<polygon fill="black" stroke="black" points="2192.72,-227.68 2196.22,-237.68 2199.72,-227.68 2192.72,-227.68"/>
</g>
<!-- ModalDialog2 -->
<g id="node24" class="node">
<title>ModalDialog2</title>
<polygon fill="#ffffb3" stroke="black" points="3245.65,-198 3148.35,-198 3148.35,-162 3245.65,-162 3245.65,-198"/>
<text text-anchor="middle" x="3197" y="-175.8" font-family="Times,serif" font-size="14.00">ModalDialog2</text>
</g>
<!-- ModalDialog2&#45;&gt;PagesModule -->
<g id="edge22" class="edge">
<title>ModalDialog2&#45;&gt;PagesModule</title>
<path fill="none" stroke="black" d="M3197,-198.11C3197,-207.9 3197,-218 3197,-218 3197,-218 2190.07,-218 2190.07,-218 2190.07,-218 2190.07,-227.89 2190.07,-227.89"/>
<polygon fill="black" stroke="black" points="2186.57,-227.89 2190.07,-237.89 2193.57,-227.89 2186.57,-227.89"/>
</g>
<!-- ModalDialog3 -->
<g id="node25" class="node">
<title>ModalDialog3</title>
<polygon fill="#ffffb3" stroke="black" points="3129.65,-198 3032.35,-198 3032.35,-162 3129.65,-162 3129.65,-198"/>
<text text-anchor="middle" x="3081" y="-175.8" font-family="Times,serif" font-size="14.00">ModalDialog3</text>
</g>
<!-- ModalDialog3&#45;&gt;PagesModule -->
<g id="edge23" class="edge">
<title>ModalDialog3&#45;&gt;PagesModule</title>
<path fill="none" stroke="black" d="M3081.27,-198.42C3081.27,-207.28 3081.27,-216 3081.27,-216 3081.27,-216 2183.93,-216 2183.93,-216 2183.93,-216 2183.93,-227.87 2183.93,-227.87"/>
<polygon fill="black" stroke="black" points="2180.43,-227.87 2183.93,-237.87 2187.43,-227.87 2180.43,-227.87"/>
</g>
<!-- ModalDialog4 -->
<g id="node26" class="node">
<title>ModalDialog4</title>
<polygon fill="#ffffb3" stroke="black" points="3013.65,-198 2916.35,-198 2916.35,-162 3013.65,-162 3013.65,-198"/>
<text text-anchor="middle" x="2965" y="-175.8" font-family="Times,serif" font-size="14.00">ModalDialog4</text>
</g>
<!-- ModalDialog4&#45;&gt;PagesModule -->
<g id="edge24" class="edge">
<title>ModalDialog4&#45;&gt;PagesModule</title>
<path fill="none" stroke="black" d="M2921.73,-198.04C2921.73,-205.75 2921.73,-213 2921.73,-213 2921.73,-213 2177.78,-213 2177.78,-213 2177.78,-213 2177.78,-227.51 2177.78,-227.51"/>
<polygon fill="black" stroke="black" points="2174.28,-227.51 2177.78,-237.51 2181.28,-227.51 2174.28,-227.51"/>
</g>
<!-- ProductCategoryComponent -->
<g id="node27" class="node">
<title>ProductCategoryComponent</title>
<polygon fill="#ffffb3" stroke="black" points="2898.2,-198 2721.8,-198 2721.8,-162 2898.2,-162 2898.2,-198"/>
<text text-anchor="middle" x="2810" y="-175.8" font-family="Times,serif" font-size="14.00">ProductCategoryComponent</text>
</g>
<!-- ProductCategoryComponent&#45;&gt;PagesModule -->
<g id="edge25" class="edge">
<title>ProductCategoryComponent&#45;&gt;PagesModule</title>
<path fill="none" stroke="black" d="M2747.58,-198.14C2747.58,-204.46 2747.58,-210 2747.58,-210 2747.58,-210 2171.63,-210 2171.63,-210 2171.63,-210 2171.63,-227.82 2171.63,-227.82"/>
<polygon fill="black" stroke="black" points="2168.13,-227.82 2171.63,-237.82 2175.13,-227.82 2168.13,-227.82"/>
</g>
<!-- ProductComponent -->
<g id="node28" class="node">
<title>ProductComponent</title>
<polygon fill="#ffffb3" stroke="black" points="2703.38,-198 2578.62,-198 2578.62,-162 2703.38,-162 2703.38,-198"/>
<text text-anchor="middle" x="2641" y="-175.8" font-family="Times,serif" font-size="14.00">ProductComponent</text>
</g>
<!-- ProductComponent&#45;&gt;PagesModule -->
<g id="edge26" class="edge">
<title>ProductComponent&#45;&gt;PagesModule</title>
<path fill="none" stroke="black" d="M2605.63,-198.16C2605.63,-203.04 2605.63,-207 2605.63,-207 2605.63,-207 2165.49,-207 2165.49,-207 2165.49,-207 2165.49,-227.75 2165.49,-227.75"/>
<polygon fill="black" stroke="black" points="2161.99,-227.75 2165.49,-237.75 2168.99,-227.75 2161.99,-227.75"/>
</g>
<!-- ProfileComponent -->
<g id="node29" class="node">
<title>ProfileComponent</title>
<polygon fill="#ffffb3" stroke="black" points="2560.93,-198 2441.07,-198 2441.07,-162 2560.93,-162 2560.93,-198"/>
<text text-anchor="middle" x="2501" y="-175.8" font-family="Times,serif" font-size="14.00">ProfileComponent</text>
</g>
<!-- ProfileComponent&#45;&gt;PagesModule -->
<g id="edge27" class="edge">
<title>ProfileComponent&#45;&gt;PagesModule</title>
<path fill="none" stroke="black" d="M2465,-198.19C2465,-201.54 2465,-204 2465,-204 2465,-204 2159.34,-204 2159.34,-204 2159.34,-204 2159.34,-227.81 2159.34,-227.81"/>
<polygon fill="black" stroke="black" points="2155.84,-227.81 2159.34,-237.81 2162.84,-227.81 2155.84,-227.81"/>
</g>
<!-- RegistryComponent -->
<g id="node30" class="node">
<title>RegistryComponent</title>
<polygon fill="#ffffb3" stroke="black" points="2423.27,-198 2294.73,-198 2294.73,-162 2423.27,-162 2423.27,-198"/>
<text text-anchor="middle" x="2359" y="-175.8" font-family="Times,serif" font-size="14.00">RegistryComponent</text>
</g>
<!-- RegistryComponent&#45;&gt;PagesModule -->
<g id="edge28" class="edge">
<title>RegistryComponent&#45;&gt;PagesModule</title>
<path fill="none" stroke="black" d="M2337,-198.08C2337,-199.85 2337,-201 2337,-201 2337,-201 2153.19,-201 2153.19,-201 2153.19,-201 2153.19,-227.99 2153.19,-227.99"/>
<polygon fill="black" stroke="black" points="2149.69,-227.99 2153.19,-237.99 2156.69,-227.99 2149.69,-227.99"/>
</g>
<!-- TourismCategoryComponent -->
<g id="node31" class="node">
<title>TourismCategoryComponent</title>
<polygon fill="#ffffb3" stroke="black" points="2277.09,-198 2096.91,-198 2096.91,-162 2277.09,-162 2277.09,-198"/>
<text text-anchor="middle" x="2187" y="-175.8" font-family="Times,serif" font-size="14.00">TourismCategoryComponent</text>
</g>
<!-- TourismCategoryComponent&#45;&gt;PagesModule -->
<g id="edge29" class="edge">
<title>TourismCategoryComponent&#45;&gt;PagesModule</title>
<path fill="none" stroke="black" d="M2147.04,-198.01C2147.04,-198.01 2147.04,-227.85 2147.04,-227.85"/>
<polygon fill="black" stroke="black" points="2143.54,-227.85 2147.04,-237.85 2150.54,-227.85 2143.54,-227.85"/>
</g>
<!-- TourismComponent -->
<g id="node32" class="node">
<title>TourismComponent</title>
<polygon fill="#ffffb3" stroke="black" points="2079.27,-198 1950.73,-198 1950.73,-162 2079.27,-162 2079.27,-198"/>
<text text-anchor="middle" x="2015" y="-175.8" font-family="Times,serif" font-size="14.00">TourismComponent</text>
</g>
<!-- TourismComponent&#45;&gt;PagesModule -->
<g id="edge30" class="edge">
<title>TourismComponent&#45;&gt;PagesModule</title>
<path fill="none" stroke="black" d="M2015,-198.3C2015,-216.27 2015,-241 2015,-241 2015,-241 2130.45,-241 2130.45,-241"/>
<polygon fill="black" stroke="black" points="2130.45,-244.5 2140.45,-241 2130.45,-237.5 2130.45,-244.5"/>
</g>
<!-- WelcomeComponent -->
<g id="node33" class="node">
<title>WelcomeComponent</title>
<polygon fill="#ffffb3" stroke="black" points="1932.47,-198 1797.53,-198 1797.53,-162 1932.47,-162 1932.47,-198"/>
<text text-anchor="middle" x="1865" y="-175.8" font-family="Times,serif" font-size="14.00">WelcomeComponent</text>
</g>
<!-- WelcomeComponent&#45;&gt;PagesModule -->
<g id="edge31" class="edge">
<title>WelcomeComponent&#45;&gt;PagesModule</title>
<path fill="none" stroke="black" d="M1865,-198.17C1865,-217.09 1865,-244 1865,-244 1865,-244 2130.87,-244 2130.87,-244"/>
<polygon fill="black" stroke="black" points="2130.87,-247.5 2140.87,-244 2130.87,-240.5 2130.87,-247.5"/>
</g>
<!-- ProductsModule -->
<g id="node34" class="node">
<title>ProductsModule</title>
<polygon fill="#8dd3c7" stroke="black" points="1774.04,-198 1771.04,-202 1750.04,-202 1747.04,-198 1665.96,-198 1665.96,-162 1774.04,-162 1774.04,-198"/>
<text text-anchor="middle" x="1720" y="-175.8" font-family="Times,serif" font-size="14.00">ProductsModule</text>
</g>
<!-- ProductsModule&#45;&gt;PagesModule -->
<g id="edge33" class="edge">
<title>ProductsModule&#45;&gt;PagesModule</title>
<path fill="none" stroke="black" d="M1720,-198.03C1720,-217.58 1720,-246 1720,-246 1720,-246 2130.51,-246 2130.51,-246"/>
<polygon fill="black" stroke="black" points="2130.51,-249.5 2140.51,-246 2130.51,-242.5 2130.51,-249.5"/>
</g>
<!-- ModalDialog -->
<g id="node45" class="node">
<title>ModalDialog</title>
<polygon fill="#ffffb3" stroke="black" points="2447.15,-122 2356.85,-122 2356.85,-86 2447.15,-86 2447.15,-122"/>
<text text-anchor="middle" x="2402" y="-99.8" font-family="Times,serif" font-size="14.00">ModalDialog</text>
</g>
<!-- ModalDialog&#45;&gt;ProductsModule -->
<g id="edge44" class="edge">
<title>ModalDialog&#45;&gt;ProductsModule</title>
<path fill="none" stroke="black" d="M2390.03,-122.42C2390.03,-131.28 2390.03,-140 2390.03,-140 2390.03,-140 1763.42,-140 1763.42,-140 1763.42,-140 1763.42,-151.87 1763.42,-151.87"/>
<polygon fill="black" stroke="black" points="1759.92,-151.87 1763.42,-161.87 1766.92,-151.87 1759.92,-151.87"/>
</g>
<!-- ProductDescriptionComponent -->
<g id="node46" class="node">
<title>ProductDescriptionComponent</title>
<polygon fill="#ffffb3" stroke="black" points="2339.19,-122 2148.81,-122 2148.81,-86 2339.19,-86 2339.19,-122"/>
<text text-anchor="middle" x="2244" y="-99.8" font-family="Times,serif" font-size="14.00">ProductDescriptionComponent</text>
</g>
<!-- ProductDescriptionComponent&#45;&gt;ProductsModule -->
<g id="edge45" class="edge">
<title>ProductDescriptionComponent&#45;&gt;ProductsModule</title>
<path fill="none" stroke="black" d="M2212.97,-122.24C2212.97,-129.43 2212.97,-136 2212.97,-136 2212.97,-136 1752.56,-136 1752.56,-136 1752.56,-136 1752.56,-151.85 1752.56,-151.85"/>
<polygon fill="black" stroke="black" points="1749.06,-151.85 1752.56,-161.85 1756.06,-151.85 1749.06,-151.85"/>
</g>
<!-- ProductPathComponent -->
<g id="node47" class="node">
<title>ProductPathComponent</title>
<polygon fill="#ffffb3" stroke="black" points="2130.77,-122 1981.23,-122 1981.23,-86 2130.77,-86 2130.77,-122"/>
<text text-anchor="middle" x="2056" y="-99.8" font-family="Times,serif" font-size="14.00">ProductPathComponent</text>
</g>
<!-- ProductPathComponent&#45;&gt;ProductsModule -->
<g id="edge46" class="edge">
<title>ProductPathComponent&#45;&gt;ProductsModule</title>
<path fill="none" stroke="black" d="M2030.25,-122.16C2030.25,-127.04 2030.25,-131 2030.25,-131 2030.25,-131 1741.71,-131 1741.71,-131 1741.71,-131 1741.71,-151.75 1741.71,-151.75"/>
<polygon fill="black" stroke="black" points="1738.21,-151.75 1741.71,-161.75 1745.21,-151.75 1738.21,-151.75"/>
</g>
<!-- ProductPayComponent -->
<g id="node48" class="node">
<title>ProductPayComponent</title>
<polygon fill="#ffffb3" stroke="black" points="1962.88,-122 1817.12,-122 1817.12,-86 1962.88,-86 1962.88,-122"/>
<text text-anchor="middle" x="1890" y="-99.8" font-family="Times,serif" font-size="14.00">ProductPayComponent</text>
</g>
<!-- ProductPayComponent&#45;&gt;ProductsModule -->
<g id="edge47" class="edge">
<title>ProductPayComponent&#45;&gt;ProductsModule</title>
<path fill="none" stroke="black" d="M1874.77,-122.12C1874.77,-124.97 1874.77,-127 1874.77,-127 1874.77,-127 1730.85,-127 1730.85,-127 1730.85,-127 1730.85,-151.76 1730.85,-151.76"/>
<polygon fill="black" stroke="black" points="1727.35,-151.76 1730.85,-161.76 1734.35,-151.76 1727.35,-151.76"/>
</g>
<!-- ProductPhotoComponent -->
<g id="node49" class="node">
<title>ProductPhotoComponent</title>
<polygon fill="#ffffb3" stroke="black" points="1798.55,-122 1641.45,-122 1641.45,-86 1798.55,-86 1798.55,-122"/>
<text text-anchor="middle" x="1720" y="-99.8" font-family="Times,serif" font-size="14.00">ProductPhotoComponent</text>
</g>
<!-- ProductPhotoComponent&#45;&gt;ProductsModule -->
<g id="edge48" class="edge">
<title>ProductPhotoComponent&#45;&gt;ProductsModule</title>
<path fill="none" stroke="black" d="M1720,-122.01C1720,-122.01 1720,-151.85 1720,-151.85"/>
<polygon fill="black" stroke="black" points="1716.5,-151.85 1720,-161.85 1723.5,-151.85 1716.5,-151.85"/>
</g>
<!-- ProductsComponent -->
<g id="node50" class="node">
<title>ProductsComponent</title>
<polygon fill="#ffffb3" stroke="black" points="1623.33,-122 1492.67,-122 1492.67,-86 1623.33,-86 1623.33,-122"/>
<text text-anchor="middle" x="1558" y="-99.8" font-family="Times,serif" font-size="14.00">ProductsComponent</text>
</g>
<!-- ProductsComponent&#45;&gt;ProductsModule -->
<g id="edge49" class="edge">
<title>ProductsComponent&#45;&gt;ProductsModule</title>
<path fill="none" stroke="black" d="M1565.43,-122.1C1565.43,-133.09 1565.43,-145 1565.43,-145 1565.43,-145 1709.15,-145 1709.15,-145 1709.15,-145 1709.15,-151.68 1709.15,-151.68"/>
<polygon fill="black" stroke="black" points="1705.65,-151.68 1709.15,-161.68 1712.65,-151.68 1705.65,-151.68"/>
</g>
<!-- ServiciosComponent -->
<g id="node51" class="node">
<title>ServiciosComponent</title>
<polygon fill="#ffffb3" stroke="black" points="1474.93,-122 1341.07,-122 1341.07,-86 1474.93,-86 1474.93,-122"/>
<text text-anchor="middle" x="1408" y="-99.8" font-family="Times,serif" font-size="14.00">ServiciosComponent</text>
</g>
<!-- ServiciosComponent&#45;&gt;ProductsModule -->
<g id="edge50" class="edge">
<title>ServiciosComponent&#45;&gt;ProductsModule</title>
<path fill="none" stroke="black" d="M1408,-122.04C1408,-134.56 1408,-149 1408,-149 1408,-149 1698.29,-149 1698.29,-149 1698.29,-149 1698.29,-151.97 1698.29,-151.97"/>
<polygon fill="black" stroke="black" points="1694.79,-151.97 1698.29,-161.97 1701.79,-151.97 1694.79,-151.97"/>
</g>
<!-- SteperComponent -->
<g id="node52" class="node">
<title>SteperComponent</title>
<polygon fill="#ffffb3" stroke="black" points="1323.6,-122 1206.4,-122 1206.4,-86 1323.6,-86 1323.6,-122"/>
<text text-anchor="middle" x="1265" y="-99.8" font-family="Times,serif" font-size="14.00">SteperComponent</text>
</g>
<!-- SteperComponent&#45;&gt;ProductsModule -->
<g id="edge51" class="edge">
<title>SteperComponent&#45;&gt;ProductsModule</title>
<path fill="none" stroke="black" d="M1264.45,-122.05C1264.45,-136.37 1264.45,-154 1264.45,-154 1264.45,-154 1687.44,-154 1687.44,-154 1687.44,-154 1687.44,-154.79 1687.44,-154.79"/>
<polygon fill="black" stroke="black" points="1683.94,-151.94 1687.44,-161.94 1690.94,-151.94 1683.94,-151.94"/>
</g>
<!-- ProductRoutingModule -->
<g id="node53" class="node">
<title>ProductRoutingModule</title>
<polygon fill="#8dd3c7" stroke="black" points="1182.22,-122 1179.22,-126 1158.22,-126 1155.22,-122 1033.78,-122 1033.78,-86 1182.22,-86 1182.22,-122"/>
<text text-anchor="middle" x="1108" y="-99.8" font-family="Times,serif" font-size="14.00">ProductRoutingModule</text>
</g>
<!-- ProductRoutingModule&#45;&gt;ProductsModule -->
<g id="edge52" class="edge">
<title>ProductRoutingModule&#45;&gt;ProductsModule</title>
<path fill="none" stroke="black" d="M1155.83,-122.28C1155.83,-137.95 1155.83,-158 1155.83,-158 1155.83,-158 1676.58,-158 1676.58,-158 1676.58,-158 1676.58,-158.38 1676.58,-158.38"/>
<polygon fill="black" stroke="black" points="1673.08,-151.83 1676.58,-161.83 1680.08,-151.83 1673.08,-151.83"/>
</g>
</g>
</svg>
